<svg width="158" height="67" viewBox="0 0 158 67" fill="none" xmlns="http://www.w3.org/2000/svg">
<path d="M71.0562 42.1801C69.7654 42.06 68.257 42 66.5309 42H64.7523L74.5458 14.5558C74.9811 13.3251 75.1987 12.6121 75.1987 12.417C75.1987 12.2069 75.1912 12.0793 75.1762 12.0343L75.1987 11.9892C76.1743 12.0343 77.2099 12.0568 78.3056 12.0568C79.2061 12.0568 80.2868 12.0418 81.5476 12.0118L81.5701 12.0568C81.5401 12.1168 81.5251 12.1994 81.5251 12.3044C81.5251 12.5896 81.7502 13.3476 82.2005 14.5783L92.1965 42.0675C91.8964 42.0525 91.5437 42.045 91.1384 42.045C91.1384 42.045 90.7482 42.03 89.9677 42C89.5925 42 89.2548 42 88.9546 42H85.465L83.3487 35.5161H73.1725L71.0562 42.1801ZM81.5926 30.1128L78.193 19.6439L74.8835 30.1128H81.5926ZM101.922 42.1351C101.202 42.045 99.8137 42 97.7574 42H95.9563V11.9667C96.9169 12.0268 97.9751 12.0568 99.1308 12.0568C100.286 12.0568 101.104 11.9967 101.585 11.8767L109.149 24.732L116.421 11.8767C116.902 11.9967 117.817 12.0568 119.168 12.0568C120.519 12.0568 121.674 12.0268 122.635 11.9667V42H120.834C118.778 42 117.389 42.045 116.669 42.1351V21.9628L109.307 35.1333L101.922 23.021V42.1351ZM155.19 23.944C154.905 24.4543 154.762 25.6776 154.762 27.6137V34.593C154.762 36.7093 153.666 38.5479 151.475 40.1088C149.209 41.7448 146.432 42.5628 143.145 42.5628C138.582 42.5628 134.943 41.1295 132.226 38.2627C129.599 35.5311 128.286 32.0489 128.286 27.8164C128.286 23.3136 129.622 19.5613 132.293 16.5595C135.28 13.1825 139.393 11.4939 144.631 11.4939C148.128 11.4939 150.897 12.1693 152.939 13.5202L152.578 20.1617L152.398 20.2067C151.873 19.2912 150.837 18.5407 149.291 17.9554C147.82 17.4 146.274 17.1224 144.653 17.1224C143.047 17.1224 141.637 17.3775 140.421 17.8878C139.22 18.3981 138.2 19.1261 137.359 20.0717C135.588 22.0078 134.702 24.5669 134.702 27.7488C134.702 30.5255 135.483 32.7544 137.044 34.4354C138.605 36.1014 140.616 36.9344 143.078 36.9344C145.794 36.9344 147.625 36.229 148.571 34.8181C148.871 34.3679 149.021 33.8575 149.021 33.2872V29.5499H146.117C144.556 29.5499 143.708 29.685 143.573 29.9552L143.505 29.9327L143.303 24.0566C143.723 24.1767 145.426 24.2367 148.413 24.2367H151.07C152.721 24.2367 154.072 24.1241 155.122 23.899L155.19 23.944Z" fill="black"/>
<path d="M100.478 51.5425C100.594 51.383 100.775 51.2381 101.022 51.1076C101.283 50.9627 101.565 50.8902 101.87 50.8902H102.565V47.7595C102.797 47.5711 103.066 47.4334 103.37 47.3464C103.689 47.2449 103.993 47.1942 104.283 47.1942V50.8902H108.544C108.53 51.1366 108.457 51.3468 108.327 51.5207C108.211 51.6802 108.059 51.7599 107.87 51.7599H104.283V58.891C104.283 59.3548 104.334 59.7317 104.435 60.0215C104.551 60.2969 104.703 60.5143 104.892 60.6738C105.08 60.8332 105.298 60.9419 105.544 60.9999C105.79 61.0579 106.044 61.0869 106.305 61.0869C106.783 61.0869 107.182 60.9927 107.501 60.8042C107.82 60.6158 108.08 60.4201 108.283 60.2172C108.486 60.2752 108.617 60.3984 108.675 60.5868C108.602 60.7028 108.486 60.855 108.327 61.0434C108.167 61.2318 107.957 61.4202 107.696 61.6087C107.436 61.7826 107.124 61.9348 106.762 62.0652C106.399 62.1957 105.993 62.2609 105.544 62.2609C105.138 62.2609 104.754 62.2102 104.392 62.1087C104.029 62.0072 103.711 61.8406 103.435 61.6087C103.174 61.3768 102.964 61.0651 102.805 60.6738C102.645 60.2824 102.565 59.7969 102.565 59.2171V51.7599H100.478V51.5425ZM112.088 55.9342C112.088 56.8473 112.197 57.6445 112.415 58.3257C112.646 59.007 112.944 59.5795 113.306 60.0433C113.683 60.4926 114.11 60.8332 114.589 61.0651C115.082 61.297 115.596 61.413 116.132 61.413C117.292 61.413 118.176 61.0289 118.785 60.2607C119.394 59.478 119.698 58.304 119.698 56.7386C119.698 55.9849 119.611 55.282 119.437 54.6297C119.263 53.9775 119.002 53.4122 118.654 52.9339C118.321 52.4556 117.908 52.0787 117.415 51.8034C116.922 51.528 116.357 51.3903 115.719 51.3903C115.255 51.3903 114.806 51.4772 114.371 51.6512C113.936 51.8251 113.552 52.1005 113.219 52.4773C112.886 52.8397 112.61 53.3108 112.393 53.8905C112.19 54.4558 112.088 55.137 112.088 55.9342ZM110.262 56.6082C110.262 55.724 110.422 54.9051 110.741 54.1514C111.059 53.3832 111.487 52.731 112.023 52.1947C112.574 51.6439 113.212 51.2163 113.936 50.912C114.676 50.5931 115.458 50.4337 116.285 50.4337C117.183 50.4337 117.959 50.5858 118.611 50.8902C119.278 51.1946 119.821 51.6004 120.241 52.1077C120.676 52.615 120.995 53.2093 121.198 53.8905C121.415 54.5717 121.524 55.2892 121.524 56.0429C121.524 56.927 121.386 57.7532 121.111 58.5214C120.836 59.2896 120.437 59.9636 119.915 60.5433C119.408 61.1086 118.785 61.5579 118.046 61.8913C117.306 62.2247 116.466 62.3913 115.524 62.3913C114.828 62.3913 114.161 62.2609 113.523 62C112.886 61.7391 112.32 61.3623 111.828 60.8695C111.349 60.3767 110.965 59.7751 110.675 59.0649C110.4 58.3402 110.262 57.5213 110.262 56.6082ZM129.393 61.1304C130.089 61.1304 130.719 60.9347 131.284 60.5433C131.85 60.1375 132.277 59.594 132.567 58.9127V51.0207C132.814 50.8902 133.082 50.796 133.372 50.738C133.676 50.6801 133.98 50.6511 134.285 50.6511V61.8261C134.082 61.942 133.828 62.0217 133.524 62.0652C133.234 62.1232 132.944 62.1522 132.654 62.1522V60.0868C132.509 60.3332 132.306 60.5941 132.045 60.8695C131.799 61.1304 131.502 61.3768 131.154 61.6087C130.806 61.8261 130.408 62.0072 129.958 62.1522C129.523 62.2971 129.038 62.3696 128.502 62.3696C127.965 62.3696 127.458 62.2899 126.98 62.1304C126.516 61.971 126.11 61.7246 125.762 61.3912C125.414 61.0434 125.139 60.6158 124.936 60.1085C124.733 59.5867 124.632 58.9707 124.632 58.2605V51.0207C124.878 50.8902 125.146 50.796 125.436 50.738C125.74 50.6801 126.045 50.6511 126.349 50.6511V57.6083C126.349 58.2605 126.429 58.8113 126.588 59.2606C126.748 59.7099 126.965 60.0723 127.241 60.3477C127.516 60.6231 127.835 60.826 128.197 60.9564C128.574 61.0724 128.973 61.1304 129.393 61.1304ZM138.264 51.0207C138.742 50.7743 139.286 50.6511 139.894 50.6511V53.7818C140.039 53.347 140.235 52.9339 140.482 52.5426C140.728 52.1367 141.018 51.7816 141.351 51.4772C141.699 51.1729 142.083 50.9337 142.503 50.7598C142.924 50.5714 143.388 50.4771 143.895 50.4771C144.286 50.4771 144.627 50.5424 144.917 50.6728C145.207 50.7888 145.446 50.941 145.634 51.1294C145.823 51.3033 145.96 51.5062 146.047 51.7381C146.149 51.97 146.207 52.1947 146.221 52.4121C146.105 52.615 145.902 52.789 145.612 52.9339C145.337 53.0788 145.062 53.1658 144.786 53.1948C144.714 52.8035 144.554 52.4556 144.308 52.1512C144.062 51.8468 143.648 51.6947 143.069 51.6947C142.648 51.6947 142.257 51.8179 141.895 52.0643C141.547 52.3107 141.235 52.6585 140.96 53.1078C140.684 53.5427 140.46 54.0644 140.286 54.6732C140.126 55.282 140.025 55.9487 139.981 56.6734V61.8261C139.779 61.942 139.51 62.0217 139.177 62.0652C138.858 62.1232 138.554 62.1522 138.264 62.1522V51.0207ZM147.712 59.6954C147.828 59.4925 148.016 59.3041 148.277 59.1302C148.552 58.9562 148.842 58.8548 149.147 58.8258C149.248 59.565 149.603 60.181 150.212 60.6738C150.835 61.1521 151.625 61.3912 152.582 61.3912C153.495 61.3912 154.169 61.1956 154.604 60.8042C155.053 60.3984 155.278 59.8983 155.278 59.3041C155.278 58.7098 155.068 58.246 154.647 57.9126C154.241 57.5793 153.538 57.2894 152.538 57.043L151.256 56.7169C150.792 56.6009 150.372 56.4705 149.995 56.3255C149.632 56.1806 149.313 56.0067 149.038 55.8037C148.777 55.5863 148.574 55.3327 148.429 55.0428C148.284 54.7529 148.212 54.3978 148.212 53.9775C148.212 53.5282 148.328 53.0933 148.56 52.673C148.792 52.2382 149.111 51.8541 149.516 51.5207C149.937 51.1874 150.415 50.9265 150.951 50.738C151.502 50.5351 152.096 50.4337 152.734 50.4337C153.386 50.4337 153.937 50.5134 154.386 50.6728C154.836 50.8178 155.205 51.0062 155.495 51.2381C155.8 51.4555 156.017 51.6947 156.147 51.9555C156.292 52.2164 156.372 52.4483 156.387 52.6513C156.285 52.8542 156.111 53.0354 155.865 53.1948C155.618 53.3397 155.35 53.4267 155.06 53.4557C154.959 52.9049 154.676 52.4266 154.212 52.0208C153.749 51.6149 153.053 51.412 152.125 51.412C151.821 51.412 151.517 51.4555 151.212 51.5425C150.922 51.6149 150.661 51.7309 150.429 51.8903C150.198 52.0498 150.009 52.2454 149.864 52.4773C149.719 52.6948 149.647 52.9556 149.647 53.26C149.647 53.7528 149.821 54.1514 150.169 54.4558C150.516 54.7457 151.125 54.9921 151.995 55.195L153.321 55.5211C154.582 55.84 155.481 56.2458 156.017 56.7386C156.568 57.2169 156.843 57.8329 156.843 58.5866C156.843 59.0649 156.734 59.536 156.517 59.9998C156.3 60.4491 155.981 60.855 155.56 61.2173C155.14 61.5652 154.626 61.8406 154.017 62.0435C153.408 62.2609 152.712 62.3696 151.93 62.3696C151.248 62.3696 150.654 62.2826 150.147 62.1087C149.64 61.9493 149.205 61.7391 148.842 61.4782C148.495 61.2173 148.226 60.9347 148.038 60.6303C147.85 60.3114 147.741 59.9998 147.712 59.6954Z" fill="black"/>
<path d="M35.0417 33.1666C33.0358 33.1666 31.4167 31.5474 31.4167 29.5416V17.4583C31.4167 15.4524 33.0358 13.8333 35.0417 13.8333C37.0475 13.8333 38.6667 15.4524 38.6667 17.4583V29.5416C38.6667 31.5474 37.0475 33.1666 35.0417 33.1666Z" stroke="#101828" stroke-width="4.83333" stroke-linecap="round" stroke-linejoin="round"/>
<path d="M49.5417 33.1666H45.9167V29.5416C45.9167 27.5358 47.5358 25.9166 49.5417 25.9166C51.5475 25.9166 53.1667 27.5358 53.1667 29.5416C53.1667 31.5474 51.5475 33.1666 49.5417 33.1666Z" stroke="#101828" stroke-width="4.83333" stroke-linecap="round" stroke-linejoin="round"/>
<path d="M22.9583 42.8333C24.9642 42.8333 26.5833 44.4524 26.5833 46.4583V58.5416C26.5833 60.5474 24.9642 62.1666 22.9583 62.1666C20.9525 62.1666 19.3333 60.5474 19.3333 58.5416V46.4583C19.3333 44.4524 20.9525 42.8333 22.9583 42.8333Z" stroke="#101828" stroke-width="4.83333" stroke-linecap="round" stroke-linejoin="round"/>
<path d="M8.45833 42.8333H12.0833V46.4583C12.0833 48.4641 10.4642 50.0833 8.45833 50.0833C6.4525 50.0833 4.83333 48.4641 4.83333 46.4583C4.83333 44.4524 6.4525 42.8333 8.45833 42.8333Z" stroke="#101828" stroke-width="4.83333" stroke-linecap="round" stroke-linejoin="round"/>
<path d="M33.8333 44.0416C33.8333 42.0358 35.4525 40.4166 37.4583 40.4166H49.5417C51.5475 40.4166 53.1667 42.0358 53.1667 44.0416C53.1667 46.0474 51.5475 47.6666 49.5417 47.6666H37.4583C35.4525 47.6666 33.8333 46.0474 33.8333 44.0416Z" stroke="#101828" stroke-width="4.83333" stroke-linecap="round" stroke-linejoin="round"/>
<path d="M37.4583 54.9166H33.8333V58.5416C33.8333 60.5474 35.4525 62.1666 37.4583 62.1666C39.4642 62.1666 41.0833 60.5474 41.0833 58.5416C41.0833 56.5358 39.4642 54.9166 37.4583 54.9166Z" stroke="#101828" stroke-width="4.83333" stroke-linecap="round" stroke-linejoin="round"/>
<path d="M24.1667 31.9583C24.1667 29.9524 22.5475 28.3333 20.5417 28.3333H8.45833C6.4525 28.3333 4.83333 29.9524 4.83333 31.9583C4.83333 33.9641 6.4525 35.5833 8.45833 35.5833H20.5417C22.5475 35.5833 24.1667 33.9641 24.1667 31.9583Z" stroke="#101828" stroke-width="4.83333" stroke-linecap="round" stroke-linejoin="round"/>
<path d="M20.5417 21.0833H24.1667V17.4583C24.1667 15.4524 22.5475 13.8333 20.5417 13.8333C18.5358 13.8333 16.9167 15.4524 16.9167 17.4583C16.9167 19.4641 18.5358 21.0833 20.5417 21.0833Z" stroke="#101828" stroke-width="4.83333" stroke-linecap="round" stroke-linejoin="round"/>
</svg>
