<svg width="37" height="44" viewBox="0 0 37 44" fill="none" xmlns="http://www.w3.org/2000/svg">
<path fill-rule="evenodd" clip-rule="evenodd" d="M5.70594 5.76436C5.58912 5.90523 5.55914 7.1855 5.60286 10.1739C5.66018 14.0863 5.6881 14.4523 5.99632 15.3326C6.49388 16.7541 6.92916 17.5338 7.88817 18.7218C9.36829 20.5554 11.1329 21.6185 13.2413 21.9464C14.5048 22.1429 14.9374 22.021 15.2664 21.3764C15.4538 21.0091 15.4407 20.8571 15.136 19.8707C14.6559 18.3168 13.9645 16.3735 13.8516 16.2605C13.799 16.2079 13.756 16.0151 13.756 15.8321C13.756 15.6491 13.6902 15.4587 13.6098 15.409C13.5294 15.3593 13.4636 15.2519 13.4636 15.1706C13.4636 15.0891 13.5623 15.1211 13.6829 15.2418C13.8035 15.3625 13.9022 15.4968 13.9022 15.5402C13.9022 15.5837 14.1541 15.9999 14.4619 16.465C14.7697 16.9301 15.6416 18.2596 16.3992 19.4194C17.2231 20.6805 17.9532 21.6357 18.2155 21.7959C18.5532 22.0023 18.9566 22.0646 19.9701 22.0676C21.4187 22.0718 22.034 22.2719 23.0066 23.056L23.5575 23.5L22.661 24.099C21.7666 24.6966 21.761 24.698 20.3555 24.6983C18.3842 24.6986 18.1823 24.8218 16.8265 26.8521C16.2233 27.7551 15.2364 29.2829 14.6333 30.2469C13.5686 31.9491 13.159 32.434 13.4826 31.61C14.0307 30.2132 15.3643 26.186 15.3643 25.927C15.3643 25.7555 15.2279 25.4418 15.0612 25.2298C14.8017 24.8996 14.6466 24.8443 13.9801 24.8443C13.1255 24.8443 11.565 25.2762 10.5393 25.7966C9.19839 26.477 7.47746 28.3445 6.6208 30.0491C5.72963 31.8222 5.65038 32.3857 5.64556 36.9859L5.64117 41.155H15.803C25.9408 41.155 25.9671 41.1543 26.9416 40.8272C29.3192 40.0293 31.3571 38.2931 32.464 36.1224C33.1599 34.7576 33.4054 33.6203 33.3981 31.7928C33.3893 29.5545 32.9944 28.2039 31.837 26.4535C31.1223 25.3726 29.0253 23.5336 28.4972 23.5244C28.391 23.5227 28.5263 23.4116 28.7978 23.2778C29.0693 23.1441 29.8096 22.5453 30.443 21.9475C32.4527 20.0503 33.4529 17.5003 33.3124 14.6321C33.1918 12.1715 32.3161 10.2071 30.5522 8.44062C29.4616 7.34846 28.6371 6.81789 27.2251 6.29975C25.9898 5.84657 23.4729 5.72676 13.2127 5.63299C7.1495 5.5777 5.84177 5.60052 5.70594 5.76436ZM15.3643 7.58033C11.1424 7.63767 7.67178 7.69457 7.6516 7.70686C7.63142 7.719 7.61505 9.07535 7.61505 10.7208C7.61505 13.806 7.72997 14.6774 8.29567 15.8792C8.99968 17.3749 10.179 18.6041 11.6761 19.4024C12.6784 19.9369 13.1103 20.0086 12.9556 19.6147C12.9004 19.4738 12.7584 19.0625 12.6402 18.7004C12.5221 18.3383 12.367 17.9105 12.2955 17.7496C12.2241 17.5886 11.9177 16.714 11.6146 15.8059L11.0636 14.1546L11.3299 13.6597C11.6343 13.0945 11.8462 13.0176 13.2033 12.9801C14.39 12.9475 14.7225 13.1317 15.4104 14.2029C15.6813 14.6249 16.4611 15.8259 17.1432 16.8719C17.8254 17.9178 18.5759 19.0838 18.8112 19.463L19.239 20.1526L20.6099 20.1578C21.8425 20.1627 22.0692 20.2081 22.8564 20.6084C23.3379 20.8531 23.815 21.133 23.9166 21.2301C24.0183 21.3272 24.2485 21.5054 24.4285 21.6261C24.6085 21.7468 24.9066 21.9606 25.0909 22.1015C25.5181 22.4279 25.7887 22.4233 26.744 22.074C28.9617 21.263 30.7515 19.2419 31.3758 16.8436C31.7102 15.5594 31.6586 13.9457 31.2438 12.7193C30.7732 11.3275 30.3187 10.5891 29.3441 9.63328C27.9175 8.23407 26.4689 7.61909 24.3959 7.53264C23.6505 7.50148 19.5862 7.52298 15.3643 7.58033ZM25.0719 24.8222C24.9123 24.9709 24.7189 25.1191 24.6421 25.1514C24.5654 25.1836 24.1327 25.4606 23.6806 25.7669C22.68 26.4447 21.6297 26.7419 20.2274 26.7443L19.1688 26.746L18.6315 27.5872C17.2087 29.8143 14.9864 33.1443 14.7267 33.4385C14.4675 33.7321 14.2993 33.7677 13.1711 33.7677C12.038 33.7677 11.8731 33.7324 11.5882 33.4292C11.4134 33.2429 11.2704 32.9081 11.2704 32.685C11.2704 32.4621 11.6653 31.0895 12.1479 29.635C12.6306 28.1805 13.0007 26.9656 12.9704 26.9352C12.8637 26.8285 11.6274 27.3851 10.8681 27.8818C9.4778 28.7909 8.34333 30.3559 7.82077 32.0854C7.6013 32.812 7.55437 33.5048 7.54881 36.1082L7.54194 39.2533H16.534C24.8935 39.2533 25.5879 39.2341 26.4034 38.9808C27.5518 38.6241 28.1368 38.2719 29.0844 37.366C30.0504 36.4428 30.5747 35.6871 30.9721 34.6454C31.7051 32.7242 31.7494 31.2639 31.1293 29.4523C30.549 27.7573 29.056 26.0035 27.6044 25.3117C25.782 24.4432 25.5305 24.3947 25.0719 24.8222Z" fill="url(#paint0_linear_730_5654)"/>
<defs>
<linearGradient id="paint0_linear_730_5654" x1="19.491" y1="5.60596" x2="19.491" y2="41.155" gradientUnits="userSpaceOnUse">
<stop stop-color="white"/>
<stop offset="0.0001" stop-color="white"/>
<stop offset="1" stop-color="white"/>
</linearGradient>
</defs>
</svg>
