<svg width="315" height="96" viewBox="0 0 315 96" fill="none" xmlns="http://www.w3.org/2000/svg">
<path fill-rule="evenodd" clip-rule="evenodd" d="M12.014 11.2468C11.7541 11.5602 11.6875 14.4077 11.7847 21.0545C11.9122 29.7563 11.9743 30.5704 12.6598 32.5284C13.7665 35.6899 14.7346 37.4241 16.8676 40.0663C20.1597 44.1447 24.0846 46.5091 28.774 47.2386C31.5841 47.6756 32.5463 47.4045 33.278 45.9707C33.695 45.1537 33.6657 44.8156 32.988 42.6217C31.9203 39.1657 30.3824 34.8433 30.1314 34.5921C30.0143 34.475 29.9187 34.0462 29.9187 33.6392C29.9187 33.2321 29.7724 32.8088 29.5935 32.6982C29.4146 32.5876 29.2683 32.3488 29.2683 32.1679C29.2683 31.9867 29.4878 32.0579 29.7561 32.3263C30.0244 32.5948 30.2439 32.8934 30.2439 32.9901C30.2439 33.0867 30.8042 34.0124 31.4888 35.047C32.1733 36.0813 34.1125 39.0385 35.7977 41.618C37.6302 44.4229 39.254 46.5475 39.8374 46.9038C40.5886 47.3629 41.4859 47.5015 43.7398 47.508C46.9619 47.5174 48.3304 47.9625 50.4937 49.7065L51.719 50.6939L49.7249 52.0263C47.7356 53.3554 47.7232 53.3586 44.5971 53.3593C40.2127 53.3599 39.7636 53.6339 36.748 58.1496C35.4065 60.158 33.2114 63.5561 31.8699 65.7002C29.5018 69.4861 28.5909 70.5647 29.3106 68.732C30.5298 65.6254 33.4959 56.6682 33.4959 56.092C33.4959 55.7107 33.1925 55.0128 32.8218 54.5413C32.2446 53.807 31.8995 53.684 30.4172 53.684C28.5164 53.684 25.0455 54.6445 22.7642 55.8021C19.7818 57.3154 15.9541 61.4689 14.0488 65.2604C12.0667 69.2041 11.8904 70.4573 11.8797 80.689L11.8699 89.9618H34.4715C57.0198 89.9618 57.0784 89.9601 59.2458 89.2326C64.534 87.4581 69.0667 83.5964 71.5284 78.7684C73.0764 75.7327 73.6224 73.2034 73.6062 69.1387C73.5867 64.1603 72.7083 61.1562 70.134 57.263C68.5444 54.8589 63.8803 50.7688 62.7057 50.7483C62.4696 50.7444 62.7704 50.4974 63.3743 50.1997C63.9782 49.9023 65.6247 48.5706 67.0335 47.2409C71.5034 43.0213 73.7281 37.3496 73.4156 30.9702C73.1473 25.4973 71.1997 21.1284 67.2764 17.1993C64.8507 14.7702 63.0169 13.5901 59.8764 12.4377C57.1288 11.4297 51.5307 11.1632 28.7102 10.9547C15.2247 10.8317 12.3161 10.8824 12.014 11.2468ZM33.4959 15.2859C24.1057 15.4134 16.3863 15.54 16.3415 15.5673C16.2966 15.5943 16.2602 18.6111 16.2602 22.2707C16.2602 29.1329 16.5158 31.0711 17.774 33.7439C19.3398 37.0707 21.9629 39.8048 25.2927 41.5802C27.522 42.7691 28.4826 42.9285 28.1385 42.0523C28.0156 41.739 27.6998 40.8241 27.4371 40.0188C27.1743 39.2136 26.8293 38.2619 26.6702 37.904C26.5115 37.5461 25.8299 35.6008 25.1558 33.5809L23.9304 29.9082L24.5226 28.8075C25.1997 27.5504 25.6709 27.3792 28.6894 27.2959C31.3288 27.2234 32.0683 27.633 33.5984 30.0156C34.201 30.9543 35.9353 33.6255 37.4524 35.9518C38.9698 38.2782 40.639 40.8716 41.1623 41.7149L42.1138 43.2487L45.1629 43.2604C47.9044 43.2711 48.4088 43.3723 50.1597 44.2625C51.2306 44.8069 52.2917 45.4293 52.5177 45.6453C52.7437 45.8613 53.2559 46.2576 53.6563 46.5261C54.0566 46.7945 54.7197 47.2702 55.1294 47.5835C56.0797 48.3094 56.6816 48.2993 58.8062 47.5223C63.7389 45.7185 67.7197 41.2233 69.1083 35.889C69.852 33.0327 69.7372 29.4436 68.8146 26.7158C67.7678 23.6203 66.7571 21.9779 64.5893 19.852C61.4163 16.7399 58.1945 15.3721 53.5837 15.1798C51.9259 15.1105 42.8862 15.1583 33.4959 15.2859ZM55.0872 53.6349C54.7324 53.9654 54.3021 54.295 54.1314 54.3669C53.9606 54.4385 52.9984 55.0548 51.9928 55.7361C49.7672 57.2435 47.4312 57.9046 44.3122 57.9098L41.9577 57.9137L40.7626 59.7845C37.598 64.7381 32.6553 72.1447 32.0777 72.799C31.5011 73.452 31.1272 73.531 28.6179 73.531C26.0976 73.531 25.7307 73.4526 25.0972 72.7781C24.7083 72.364 24.3902 71.6192 24.3902 71.123C24.3902 70.6272 25.2686 67.5743 26.3421 64.3393C27.4156 61.1042 28.2387 58.4021 28.1714 58.3344C27.934 58.0972 25.1844 59.3352 23.4956 60.4398C20.4033 62.4619 17.88 65.9426 16.7177 69.7894C16.2296 71.4054 16.1252 72.9464 16.1128 78.7368L16.0976 85.7321H36.0976C54.6904 85.7321 56.2348 85.6894 58.0488 85.1259C60.6029 84.3327 61.9041 83.5492 64.0117 81.5343C66.1603 79.4809 67.3265 77.8001 68.2104 75.4832C69.8406 71.2102 69.9392 67.9622 68.56 63.9329C67.2693 60.1629 63.9486 56.2622 60.72 54.7235C56.6667 52.7919 56.1073 52.6838 55.0872 53.6349Z" fill="black"/>
<path d="M98.0699 63V37.5506H107.486C110.223 37.5506 112.344 38.1331 113.848 39.2981C115.364 40.4518 116.122 42.075 116.122 44.1675C116.122 45.4456 115.822 46.5767 115.223 47.5607C114.623 48.5334 113.815 49.2743 112.797 49.7833C114.244 50.2131 115.37 50.954 116.173 52.0059C116.987 53.0465 117.394 54.3246 117.394 55.8402C117.394 57.288 117.038 58.5492 116.326 59.6237C115.624 60.6869 114.629 61.5183 113.34 62.1178C112.061 62.7059 110.557 63 108.826 63H98.0699ZM103.295 48.2054H107.198C108.363 48.2054 109.285 47.9283 109.963 47.3741C110.642 46.8198 110.981 46.0677 110.981 45.1176C110.981 44.1901 110.636 43.4605 109.946 42.9289C109.268 42.386 108.323 42.1145 107.113 42.1145H103.295V48.2054ZM103.295 58.4361H107.52C108.448 58.4361 109.251 58.306 109.929 58.0459C110.608 57.7744 111.128 57.3955 111.49 56.9091C111.863 56.4114 112.05 55.8346 112.05 55.1786C112.05 54.5225 111.88 53.9626 111.541 53.4989C111.213 53.0352 110.732 52.6845 110.099 52.447C109.466 52.1982 108.713 52.0737 107.842 52.0737H103.295V58.4361ZM128.626 63.3393C126.884 63.3393 125.323 62.9604 123.943 62.2026C122.563 61.4334 121.478 60.3872 120.686 59.0638C119.905 57.7292 119.515 56.2135 119.515 54.5169C119.515 52.8316 119.905 51.3272 120.686 50.0038C121.478 48.6692 122.563 47.6173 123.943 46.8481C125.323 46.079 126.884 45.6944 128.626 45.6944C130.368 45.6944 131.918 46.079 133.275 46.8481C134.643 47.6173 135.718 48.6692 136.498 50.0038C137.29 51.3272 137.686 52.8316 137.686 54.5169C137.686 56.2135 137.29 57.7292 136.498 59.0638C135.718 60.3872 134.643 61.4334 133.275 62.2026C131.918 62.9604 130.368 63.3393 128.626 63.3393ZM128.609 58.979C129.39 58.979 130.085 58.7867 130.696 58.4021C131.318 58.0063 131.804 57.4747 132.155 56.8073C132.517 56.1287 132.698 55.3539 132.698 54.4829C132.698 53.6459 132.517 52.8938 132.155 52.2264C131.804 51.5591 131.318 51.0331 130.696 50.6486C130.085 50.2527 129.39 50.0547 128.609 50.0547C127.817 50.0547 127.11 50.2527 126.488 50.6486C125.878 51.0331 125.391 51.5591 125.029 52.2264C124.679 52.8938 124.503 53.6459 124.503 54.4829C124.503 55.3539 124.679 56.1287 125.029 56.8073C125.391 57.4747 125.878 58.0063 126.488 58.4021C127.11 58.7867 127.817 58.979 128.609 58.979ZM148.85 63.3393C147.108 63.3393 145.547 62.9604 144.167 62.2026C142.787 61.4334 141.701 60.3872 140.91 59.0638C140.129 57.7292 139.739 56.2135 139.739 54.5169C139.739 52.8316 140.129 51.3272 140.91 50.0038C141.701 48.6692 142.787 47.6173 144.167 46.8481C145.547 46.079 147.108 45.6944 148.85 45.6944C150.592 45.6944 152.141 46.079 153.499 46.8481C154.867 47.6173 155.942 48.6692 156.722 50.0038C157.514 51.3272 157.91 52.8316 157.91 54.5169C157.91 56.2135 157.514 57.7292 156.722 59.0638C155.942 60.3872 154.867 61.4334 153.499 62.2026C152.141 62.9604 150.592 63.3393 148.85 63.3393ZM148.833 58.979C149.613 58.979 150.309 58.7867 150.92 58.4021C151.542 58.0063 152.028 57.4747 152.379 56.8073C152.741 56.1287 152.922 55.3539 152.922 54.4829C152.922 53.6459 152.741 52.8938 152.379 52.2264C152.028 51.5591 151.542 51.0331 150.92 50.6486C150.309 50.2527 149.613 50.0547 148.833 50.0547C148.041 50.0547 147.334 50.2527 146.712 50.6486C146.101 51.0331 145.615 51.5591 145.253 52.2264C144.902 52.8938 144.727 53.6459 144.727 54.4829C144.727 55.3539 144.902 56.1287 145.253 56.8073C145.615 57.4747 146.101 58.0063 146.712 58.4021C147.334 58.7867 148.041 58.979 148.833 58.979ZM165.884 63H161.015V37.5506H165.884V53.1935L167.547 51.1915L172.433 46.0337H178.524L171.347 53.5837L179.372 63H173.078L168.005 56.6377L165.884 58.5718V63ZM184.309 41.9788C183.665 41.9788 183.122 41.7526 182.681 41.3002C182.239 40.8477 182.019 40.2992 182.019 39.6544C182.019 39.0097 182.239 38.4668 182.681 38.0257C183.122 37.5732 183.665 37.347 184.309 37.347C184.965 37.347 185.514 37.5732 185.955 38.0257C186.408 38.4668 186.634 39.0097 186.634 39.6544C186.634 40.2992 186.408 40.8477 185.955 41.3002C185.514 41.7526 184.965 41.9788 184.309 41.9788ZM186.752 63H181.883V46.0337H186.752V63ZM207.875 63H203.006V54.3133C203.006 52.9899 202.689 51.955 202.056 51.2085C201.434 50.4506 200.58 50.0717 199.494 50.0717C198.363 50.0717 197.464 50.4676 196.797 51.2594C196.14 52.0398 195.812 53.103 195.812 54.449V63H190.943V46.0337H194.879L195.049 48.7483C195.66 47.753 196.457 46.9952 197.441 46.4749C198.425 45.9546 199.585 45.6944 200.919 45.6944C203.08 45.6944 204.776 46.3618 206.009 47.6964C207.253 49.0198 207.875 50.8522 207.875 53.1935V63ZM218.615 63.2036C217.088 63.2036 215.72 62.8247 214.509 62.0669C213.299 61.2977 212.349 60.2571 211.659 58.9451C210.969 57.6217 210.624 56.123 210.624 54.449C210.624 52.7637 210.969 51.265 211.659 49.953C212.349 48.6409 213.299 47.606 214.509 46.8481C215.72 46.079 217.094 45.6944 218.632 45.6944C219.831 45.6944 220.928 45.9319 221.924 46.407C222.93 46.8707 223.795 47.5155 224.519 48.3412L224.74 46.0337H229.015V62.5249C229.015 64.4025 228.603 66.037 227.777 67.4282C226.963 68.8307 225.809 69.9109 224.316 70.6687C222.823 71.4379 221.075 71.8225 219.073 71.8225C216.291 71.8225 213.768 70.9515 211.506 69.2096L213.474 65.2395C214.979 66.7213 216.732 67.4621 218.734 67.4621C219.808 67.4621 220.747 67.2472 221.55 66.8174C222.365 66.3876 222.998 65.7881 223.45 65.019C223.914 64.2498 224.146 63.3563 224.146 62.3383V60.9471C223.445 61.6484 222.625 62.2026 221.686 62.6098C220.747 63.0057 219.724 63.2036 218.615 63.2036ZM219.871 58.8602C220.662 58.8602 221.381 58.6906 222.025 58.3512C222.67 58.0006 223.185 57.5199 223.569 56.9091C223.954 56.287 224.146 55.5857 224.146 54.8053V54.0758C224.146 53.2953 223.948 52.5997 223.552 51.9889C223.168 51.3781 222.653 50.9031 222.008 50.5637C221.375 50.2131 220.662 50.0378 219.871 50.0378C219.056 50.0378 218.327 50.2301 217.682 50.6146C217.037 50.9992 216.528 51.5252 216.155 52.1925C215.782 52.8485 215.595 53.6007 215.595 54.449C215.595 55.2973 215.782 56.0551 216.155 56.7225C216.528 57.3898 217.037 57.9158 217.682 58.3003C218.327 58.6736 219.056 58.8602 219.871 58.8602ZM231.798 60.2515L234.275 56.2644C235.055 56.8978 235.808 57.4181 236.531 57.8253C237.267 58.2212 237.991 58.5153 238.703 58.7075C239.416 58.8885 240.145 58.979 240.892 58.979C241.774 58.979 242.538 58.8546 243.182 58.6057C243.827 58.3569 244.325 58.0006 244.675 57.5369C245.037 57.0731 245.218 56.5359 245.218 55.9251C245.218 55.2125 244.992 54.613 244.54 54.1266C244.087 53.6403 243.493 53.2161 242.758 52.8542C242.034 52.4809 241.248 52.1246 240.4 51.7853C239.574 51.446 238.743 51.0784 237.906 50.6825C237.08 50.2753 236.317 49.7946 235.615 49.2404C234.925 48.6861 234.365 48.0131 233.936 47.2214C233.517 46.4183 233.308 45.4456 233.308 44.3032C233.308 42.8102 233.681 41.5207 234.428 40.4349C235.185 39.349 236.22 38.512 237.532 37.9239C238.845 37.3357 240.343 37.0416 242.029 37.0416C243.216 37.0416 244.449 37.2 245.727 37.5167C247.017 37.8334 248.3 38.3141 249.579 38.9588L247.526 43.1834C246.723 42.697 245.857 42.3125 244.93 42.0297C244.002 41.7469 243.131 41.6056 242.317 41.6056C241.582 41.6056 240.937 41.7187 240.383 41.9449C239.84 42.1711 239.416 42.4878 239.11 42.895C238.805 43.2909 238.652 43.7603 238.652 44.3032C238.652 44.9479 238.873 45.5078 239.314 45.9828C239.755 46.4466 240.326 46.8594 241.028 47.2214C241.74 47.5833 242.504 47.9453 243.318 48.3072C244.155 48.6692 244.998 49.0651 245.846 49.4949C246.706 49.9247 247.486 50.4337 248.187 51.0218C248.9 51.5987 249.471 52.2943 249.901 53.1087C250.342 53.9117 250.563 54.8788 250.563 56.0099C250.563 57.5029 250.167 58.815 249.375 59.9461C248.583 61.0658 247.48 61.9424 246.067 62.5758C244.653 63.1979 243.007 63.509 241.129 63.509C239.41 63.509 237.764 63.2319 236.192 62.6776C234.62 62.1234 233.155 61.3147 231.798 60.2515ZM261.913 63.3393C260.171 63.3393 258.61 62.9604 257.23 62.2026C255.85 61.4334 254.765 60.3872 253.973 59.0638C253.192 57.7292 252.802 56.2135 252.802 54.5169C252.802 52.8316 253.192 51.3272 253.973 50.0038C254.765 48.6692 255.85 47.6173 257.23 46.8481C258.61 46.079 260.171 45.6944 261.913 45.6944C263.655 45.6944 265.204 46.079 266.562 46.8481C267.93 47.6173 269.005 48.6692 269.785 50.0038C270.577 51.3272 270.973 52.8316 270.973 54.5169C270.973 56.2135 270.577 57.7292 269.785 59.0638C269.005 60.3872 267.93 61.4334 266.562 62.2026C265.204 62.9604 263.655 63.3393 261.913 63.3393ZM261.896 58.979C262.676 58.979 263.372 58.7867 263.983 58.4021C264.605 58.0063 265.091 57.4747 265.442 56.8073C265.804 56.1287 265.985 55.3539 265.985 54.4829C265.985 53.6459 265.804 52.8938 265.442 52.2264C265.091 51.5591 264.605 51.0331 263.983 50.6486C263.372 50.2527 262.676 50.0547 261.896 50.0547C261.104 50.0547 260.397 50.2527 259.775 50.6486C259.164 51.0331 258.678 51.5591 258.316 52.2264C257.966 52.8938 257.79 53.6459 257.79 54.4829C257.79 55.3539 257.966 56.1287 258.316 56.8073C258.678 57.4747 259.164 58.0063 259.775 58.4021C260.397 58.7867 261.104 58.979 261.896 58.979ZM290.671 63H286.718L286.548 60.2854C285.949 61.2808 285.151 62.0386 284.156 62.5589C283.172 63.0792 282.018 63.3393 280.695 63.3393C278.523 63.3393 276.821 62.672 275.588 61.3373C274.355 60.0026 273.738 58.1703 273.738 55.8402V46.0337H278.608V54.7205C278.608 56.0438 278.919 57.0844 279.541 57.8423C280.174 58.5888 281.034 58.962 282.12 58.962C283.251 58.962 284.144 58.5718 284.8 57.7914C285.468 56.9996 285.801 55.9307 285.801 54.5847V46.0337H290.671V63ZM312.286 71.4831H307.416V61.0658C306.704 61.7784 305.867 62.3383 304.905 62.7455C303.955 63.1414 302.926 63.3393 301.818 63.3393C300.279 63.3393 298.899 62.9604 297.678 62.2026C296.468 61.4334 295.512 60.3815 294.811 59.0469C294.109 57.7122 293.759 56.2022 293.759 54.5169C293.759 52.8202 294.109 51.3103 294.811 49.9869C295.512 48.6522 296.468 47.606 297.678 46.8481C298.899 46.079 300.279 45.6944 301.818 45.6944C303.017 45.6944 304.125 45.9319 305.143 46.407C306.161 46.8707 307.032 47.5155 307.756 48.3412L307.993 46.0337H312.286V71.4831ZM303.073 58.962C303.876 58.962 304.589 58.7924 305.211 58.453C305.844 58.1137 306.353 57.6443 306.738 57.0448C307.122 56.4341 307.349 55.7384 307.416 54.958V54.1097C307.349 53.3179 307.122 52.6167 306.738 52.0059C306.365 51.3951 305.861 50.92 305.228 50.5807C304.606 50.2414 303.893 50.0717 303.09 50.0717C302.253 50.0717 301.507 50.264 300.851 50.6486C300.206 51.0218 299.697 51.5421 299.324 52.2095C298.95 52.8768 298.764 53.6459 298.764 54.5169C298.764 55.3765 298.945 56.1456 299.307 56.8243C299.68 57.4916 300.195 58.0176 300.851 58.4021C301.507 58.7754 302.247 58.962 303.073 58.962Z" fill="black"/>
</svg>
