<svg width="315" height="96" viewBox="0 0 315 96" fill="none" xmlns="http://www.w3.org/2000/svg">
<path fill-rule="evenodd" clip-rule="evenodd" d="M12.014 11.2468C11.7541 11.5602 11.6875 14.4077 11.7847 21.0545C11.9122 29.7563 11.9743 30.5704 12.6598 32.5284C13.7665 35.6899 14.7346 37.4241 16.8676 40.0663C20.1597 44.1447 24.0846 46.5091 28.774 47.2386C31.5841 47.6756 32.5463 47.4045 33.278 45.9707C33.695 45.1537 33.6657 44.8156 32.988 42.6217C31.9203 39.1657 30.3824 34.8433 30.1314 34.5921C30.0143 34.475 29.9187 34.0462 29.9187 33.6392C29.9187 33.2321 29.7724 32.8088 29.5935 32.6982C29.4146 32.5876 29.2683 32.3488 29.2683 32.1679C29.2683 31.9867 29.4878 32.0579 29.7561 32.3263C30.0244 32.5948 30.2439 32.8934 30.2439 32.9901C30.2439 33.0867 30.8042 34.0124 31.4888 35.047C32.1733 36.0813 34.1125 39.0385 35.7977 41.618C37.6302 44.4229 39.254 46.5475 39.8374 46.9038C40.5886 47.3629 41.4859 47.5015 43.7398 47.508C46.9619 47.5174 48.3304 47.9625 50.4937 49.7065L51.719 50.6939L49.7249 52.0263C47.7356 53.3554 47.7232 53.3586 44.5971 53.3593C40.2127 53.3599 39.7636 53.6339 36.748 58.1496C35.4065 60.158 33.2114 63.5561 31.8699 65.7002C29.5018 69.4861 28.5909 70.5647 29.3106 68.732C30.5298 65.6254 33.4959 56.6682 33.4959 56.092C33.4959 55.7107 33.1925 55.0128 32.8218 54.5413C32.2446 53.807 31.8995 53.684 30.4172 53.684C28.5164 53.684 25.0455 54.6445 22.7642 55.8021C19.7818 57.3154 15.9541 61.4689 14.0488 65.2604C12.0667 69.2041 11.8904 70.4573 11.8797 80.689L11.8699 89.9618H34.4715C57.0198 89.9618 57.0784 89.9601 59.2458 89.2326C64.534 87.4581 69.0667 83.5964 71.5284 78.7684C73.0764 75.7327 73.6224 73.2034 73.6062 69.1387C73.5867 64.1603 72.7083 61.1562 70.134 57.263C68.5444 54.8589 63.8803 50.7688 62.7057 50.7483C62.4696 50.7444 62.7704 50.4974 63.3743 50.1997C63.9782 49.9023 65.6247 48.5706 67.0335 47.2409C71.5034 43.0213 73.7281 37.3496 73.4156 30.9702C73.1473 25.4973 71.1997 21.1284 67.2764 17.1993C64.8507 14.7702 63.0169 13.5901 59.8764 12.4377C57.1288 11.4297 51.5307 11.1632 28.7102 10.9547C15.2247 10.8317 12.3161 10.8824 12.014 11.2468ZM33.4959 15.2859C24.1057 15.4134 16.3863 15.54 16.3415 15.5673C16.2966 15.5943 16.2602 18.6111 16.2602 22.2707C16.2602 29.1329 16.5158 31.0711 17.774 33.7439C19.3398 37.0707 21.9629 39.8048 25.2927 41.5802C27.522 42.7691 28.4826 42.9285 28.1385 42.0523C28.0156 41.739 27.6998 40.8241 27.4371 40.0188C27.1743 39.2136 26.8293 38.2619 26.6702 37.904C26.5115 37.5461 25.8299 35.6008 25.1558 33.5809L23.9304 29.9082L24.5226 28.8075C25.1997 27.5504 25.6709 27.3792 28.6894 27.2959C31.3288 27.2234 32.0683 27.633 33.5984 30.0156C34.201 30.9543 35.9353 33.6255 37.4524 35.9518C38.9698 38.2782 40.639 40.8716 41.1623 41.7149L42.1138 43.2487L45.1629 43.2604C47.9044 43.2711 48.4088 43.3723 50.1597 44.2625C51.2306 44.8069 52.2917 45.4293 52.5177 45.6453C52.7437 45.8613 53.2559 46.2576 53.6563 46.5261C54.0566 46.7945 54.7197 47.2702 55.1294 47.5835C56.0797 48.3094 56.6816 48.2993 58.8062 47.5223C63.7389 45.7185 67.7197 41.2233 69.1083 35.889C69.852 33.0327 69.7372 29.4436 68.8146 26.7158C67.7678 23.6203 66.7571 21.9779 64.5893 19.852C61.4163 16.7399 58.1945 15.3721 53.5837 15.1798C51.9259 15.1105 42.8862 15.1583 33.4959 15.2859ZM55.0872 53.6349C54.7324 53.9654 54.3021 54.295 54.1314 54.3669C53.9606 54.4385 52.9984 55.0548 51.9928 55.7361C49.7672 57.2435 47.4312 57.9046 44.3122 57.9098L41.9577 57.9137L40.7626 59.7845C37.598 64.7381 32.6553 72.1447 32.0777 72.799C31.5011 73.452 31.1272 73.531 28.6179 73.531C26.0976 73.531 25.7307 73.4526 25.0972 72.7781C24.7083 72.364 24.3902 71.6192 24.3902 71.123C24.3902 70.6272 25.2686 67.5743 26.3421 64.3393C27.4156 61.1042 28.2387 58.4021 28.1714 58.3344C27.934 58.0972 25.1844 59.3352 23.4956 60.4398C20.4033 62.4619 17.88 65.9426 16.7177 69.7894C16.2296 71.4054 16.1252 72.9464 16.1128 78.7368L16.0976 85.7321H36.0976C54.6904 85.7321 56.2348 85.6894 58.0488 85.1259C60.6029 84.3327 61.9041 83.5492 64.0117 81.5343C66.1603 79.4809 67.3265 77.8001 68.2104 75.4832C69.8406 71.2102 69.9392 67.9622 68.56 63.9329C67.2693 60.1629 63.9486 56.2622 60.72 54.7235C56.6667 52.7919 56.1073 52.6838 55.0872 53.6349Z" fill="#07399E"/>
<path d="M98.0699 43V17.5506H107.486C110.223 17.5506 112.344 18.1331 113.848 19.2981C115.364 20.4518 116.122 22.075 116.122 24.1675C116.122 25.4456 115.822 26.5767 115.223 27.5607C114.623 28.5334 113.815 29.2743 112.797 29.7833C114.244 30.2131 115.37 30.954 116.173 32.0059C116.987 33.0465 117.394 34.3246 117.394 35.8402C117.394 37.288 117.038 38.5492 116.326 39.6237C115.624 40.6869 114.629 41.5183 113.34 42.1178C112.061 42.7059 110.557 43 108.826 43H98.0699ZM103.295 28.2054H107.198C108.363 28.2054 109.285 27.9283 109.963 27.3741C110.642 26.8198 110.981 26.0677 110.981 25.1176C110.981 24.1901 110.636 23.4605 109.946 22.9289C109.268 22.386 108.323 22.1145 107.113 22.1145H103.295V28.2054ZM103.295 38.4361H107.52C108.448 38.4361 109.251 38.306 109.929 38.0459C110.608 37.7744 111.128 37.3955 111.49 36.9091C111.863 36.4114 112.05 35.8346 112.05 35.1786C112.05 34.5225 111.88 33.9626 111.541 33.4989C111.213 33.0352 110.732 32.6845 110.099 32.447C109.466 32.1982 108.713 32.0737 107.842 32.0737H103.295V38.4361ZM128.626 43.3393C126.884 43.3393 125.323 42.9604 123.943 42.2026C122.563 41.4334 121.478 40.3872 120.686 39.0638C119.905 37.7292 119.515 36.2135 119.515 34.5169C119.515 32.8316 119.905 31.3272 120.686 30.0038C121.478 28.6692 122.563 27.6173 123.943 26.8481C125.323 26.079 126.884 25.6944 128.626 25.6944C130.368 25.6944 131.918 26.079 133.275 26.8481C134.643 27.6173 135.718 28.6692 136.498 30.0038C137.29 31.3272 137.686 32.8316 137.686 34.5169C137.686 36.2135 137.29 37.7292 136.498 39.0638C135.718 40.3872 134.643 41.4334 133.275 42.2026C131.918 42.9604 130.368 43.3393 128.626 43.3393ZM128.609 38.979C129.39 38.979 130.085 38.7867 130.696 38.4021C131.318 38.0063 131.804 37.4747 132.155 36.8073C132.517 36.1287 132.698 35.3539 132.698 34.4829C132.698 33.6459 132.517 32.8938 132.155 32.2264C131.804 31.5591 131.318 31.0331 130.696 30.6486C130.085 30.2527 129.39 30.0547 128.609 30.0547C127.817 30.0547 127.11 30.2527 126.488 30.6486C125.878 31.0331 125.391 31.5591 125.029 32.2264C124.679 32.8938 124.503 33.6459 124.503 34.4829C124.503 35.3539 124.679 36.1287 125.029 36.8073C125.391 37.4747 125.878 38.0063 126.488 38.4021C127.11 38.7867 127.817 38.979 128.609 38.979ZM148.85 43.3393C147.108 43.3393 145.547 42.9604 144.167 42.2026C142.787 41.4334 141.701 40.3872 140.91 39.0638C140.129 37.7292 139.739 36.2135 139.739 34.5169C139.739 32.8316 140.129 31.3272 140.91 30.0038C141.701 28.6692 142.787 27.6173 144.167 26.8481C145.547 26.079 147.108 25.6944 148.85 25.6944C150.592 25.6944 152.141 26.079 153.499 26.8481C154.867 27.6173 155.942 28.6692 156.722 30.0038C157.514 31.3272 157.91 32.8316 157.91 34.5169C157.91 36.2135 157.514 37.7292 156.722 39.0638C155.942 40.3872 154.867 41.4334 153.499 42.2026C152.141 42.9604 150.592 43.3393 148.85 43.3393ZM148.833 38.979C149.613 38.979 150.309 38.7867 150.92 38.4021C151.542 38.0063 152.028 37.4747 152.379 36.8073C152.741 36.1287 152.922 35.3539 152.922 34.4829C152.922 33.6459 152.741 32.8938 152.379 32.2264C152.028 31.5591 151.542 31.0331 150.92 30.6486C150.309 30.2527 149.613 30.0547 148.833 30.0547C148.041 30.0547 147.334 30.2527 146.712 30.6486C146.101 31.0331 145.615 31.5591 145.253 32.2264C144.902 32.8938 144.727 33.6459 144.727 34.4829C144.727 35.3539 144.902 36.1287 145.253 36.8073C145.615 37.4747 146.101 38.0063 146.712 38.4021C147.334 38.7867 148.041 38.979 148.833 38.979ZM165.884 43H161.015V17.5506H165.884V33.1935L167.547 31.1915L172.433 26.0337H178.524L171.347 33.5837L179.372 43H173.078L168.005 36.6377L165.884 38.5718V43ZM184.309 21.9788C183.665 21.9788 183.122 21.7526 182.681 21.3002C182.239 20.8477 182.019 20.2992 182.019 19.6544C182.019 19.0097 182.239 18.4668 182.681 18.0257C183.122 17.5732 183.665 17.347 184.309 17.347C184.965 17.347 185.514 17.5732 185.955 18.0257C186.408 18.4668 186.634 19.0097 186.634 19.6544C186.634 20.2992 186.408 20.8477 185.955 21.3002C185.514 21.7526 184.965 21.9788 184.309 21.9788ZM186.752 43H181.883V26.0337H186.752V43ZM207.875 43H203.006V34.3133C203.006 32.9899 202.689 31.955 202.056 31.2085C201.434 30.4506 200.58 30.0717 199.494 30.0717C198.363 30.0717 197.464 30.4676 196.797 31.2594C196.14 32.0398 195.812 33.103 195.812 34.449V43H190.943V26.0337H194.879L195.049 28.7483C195.66 27.753 196.457 26.9952 197.441 26.4749C198.425 25.9546 199.585 25.6944 200.919 25.6944C203.08 25.6944 204.776 26.3618 206.009 27.6964C207.253 29.0198 207.875 30.8522 207.875 33.1935V43ZM218.615 43.2036C217.088 43.2036 215.72 42.8247 214.509 42.0669C213.299 41.2977 212.349 40.2571 211.659 38.9451C210.969 37.6217 210.624 36.123 210.624 34.449C210.624 32.7637 210.969 31.265 211.659 29.953C212.349 28.6409 213.299 27.606 214.509 26.8481C215.72 26.079 217.094 25.6944 218.632 25.6944C219.831 25.6944 220.928 25.9319 221.924 26.407C222.93 26.8707 223.795 27.5155 224.519 28.3412L224.74 26.0337H229.015V42.5249C229.015 44.4025 228.603 46.037 227.777 47.4282C226.963 48.8307 225.809 49.9109 224.316 50.6687C222.823 51.4379 221.075 51.8225 219.073 51.8225C216.291 51.8225 213.768 50.9515 211.506 49.2096L213.474 45.2395C214.979 46.7213 216.732 47.4621 218.734 47.4621C219.808 47.4621 220.747 47.2472 221.55 46.8174C222.365 46.3876 222.998 45.7881 223.45 45.019C223.914 44.2498 224.146 43.3563 224.146 42.3383V40.9471C223.445 41.6484 222.625 42.2026 221.686 42.6098C220.747 43.0057 219.724 43.2036 218.615 43.2036ZM219.871 38.8602C220.662 38.8602 221.381 38.6906 222.025 38.3512C222.67 38.0006 223.185 37.5199 223.569 36.9091C223.954 36.287 224.146 35.5857 224.146 34.8053V34.0758C224.146 33.2953 223.948 32.5997 223.552 31.9889C223.168 31.3781 222.653 30.9031 222.008 30.5637C221.375 30.2131 220.662 30.0378 219.871 30.0378C219.056 30.0378 218.327 30.2301 217.682 30.6146C217.037 30.9992 216.528 31.5252 216.155 32.1925C215.782 32.8485 215.595 33.6007 215.595 34.449C215.595 35.2973 215.782 36.0551 216.155 36.7225C216.528 37.3898 217.037 37.9158 217.682 38.3003C218.327 38.6736 219.056 38.8602 219.871 38.8602ZM231.798 40.2515L234.275 36.2644C235.055 36.8978 235.808 37.4181 236.531 37.8253C237.267 38.2212 237.991 38.5153 238.703 38.7075C239.416 38.8885 240.145 38.979 240.892 38.979C241.774 38.979 242.538 38.8546 243.182 38.6057C243.827 38.3569 244.325 38.0006 244.675 37.5369C245.037 37.0731 245.218 36.5359 245.218 35.9251C245.218 35.2125 244.992 34.613 244.54 34.1266C244.087 33.6403 243.493 33.2161 242.758 32.8542C242.034 32.4809 241.248 32.1246 240.4 31.7853C239.574 31.446 238.743 31.0784 237.906 30.6825C237.08 30.2753 236.317 29.7946 235.615 29.2404C234.925 28.6861 234.365 28.0131 233.936 27.2214C233.517 26.4183 233.308 25.4456 233.308 24.3032C233.308 22.8102 233.681 21.5207 234.428 20.4349C235.185 19.349 236.22 18.512 237.532 17.9239C238.845 17.3357 240.343 17.0416 242.029 17.0416C243.216 17.0416 244.449 17.2 245.727 17.5167C247.017 17.8334 248.3 18.3141 249.579 18.9588L247.526 23.1834C246.723 22.697 245.857 22.3125 244.93 22.0297C244.002 21.7469 243.131 21.6056 242.317 21.6056C241.582 21.6056 240.937 21.7187 240.383 21.9449C239.84 22.1711 239.416 22.4878 239.11 22.895C238.805 23.2909 238.652 23.7603 238.652 24.3032C238.652 24.9479 238.873 25.5078 239.314 25.9828C239.755 26.4466 240.326 26.8594 241.028 27.2214C241.74 27.5833 242.504 27.9453 243.318 28.3072C244.155 28.6692 244.998 29.0651 245.846 29.4949C246.706 29.9247 247.486 30.4337 248.187 31.0218C248.9 31.5987 249.471 32.2943 249.901 33.1087C250.342 33.9117 250.563 34.8788 250.563 36.0099C250.563 37.5029 250.167 38.815 249.375 39.9461C248.583 41.0658 247.48 41.9424 246.067 42.5758C244.653 43.1979 243.007 43.509 241.129 43.509C239.41 43.509 237.764 43.2319 236.192 42.6776C234.62 42.1234 233.155 41.3147 231.798 40.2515ZM261.913 43.3393C260.171 43.3393 258.61 42.9604 257.23 42.2026C255.85 41.4334 254.765 40.3872 253.973 39.0638C253.192 37.7292 252.802 36.2135 252.802 34.5169C252.802 32.8316 253.192 31.3272 253.973 30.0038C254.765 28.6692 255.85 27.6173 257.23 26.8481C258.61 26.079 260.171 25.6944 261.913 25.6944C263.655 25.6944 265.204 26.079 266.562 26.8481C267.93 27.6173 269.005 28.6692 269.785 30.0038C270.577 31.3272 270.973 32.8316 270.973 34.5169C270.973 36.2135 270.577 37.7292 269.785 39.0638C269.005 40.3872 267.93 41.4334 266.562 42.2026C265.204 42.9604 263.655 43.3393 261.913 43.3393ZM261.896 38.979C262.676 38.979 263.372 38.7867 263.983 38.4021C264.605 38.0063 265.091 37.4747 265.442 36.8073C265.804 36.1287 265.985 35.3539 265.985 34.4829C265.985 33.6459 265.804 32.8938 265.442 32.2264C265.091 31.5591 264.605 31.0331 263.983 30.6486C263.372 30.2527 262.676 30.0547 261.896 30.0547C261.104 30.0547 260.397 30.2527 259.775 30.6486C259.164 31.0331 258.678 31.5591 258.316 32.2264C257.966 32.8938 257.79 33.6459 257.79 34.4829C257.79 35.3539 257.966 36.1287 258.316 36.8073C258.678 37.4747 259.164 38.0063 259.775 38.4021C260.397 38.7867 261.104 38.979 261.896 38.979ZM290.671 43H286.718L286.548 40.2854C285.949 41.2808 285.151 42.0386 284.156 42.5589C283.172 43.0792 282.018 43.3393 280.695 43.3393C278.523 43.3393 276.821 42.672 275.588 41.3373C274.355 40.0026 273.738 38.1703 273.738 35.8402V26.0337H278.608V34.7205C278.608 36.0438 278.919 37.0844 279.541 37.8423C280.174 38.5888 281.034 38.962 282.12 38.962C283.251 38.962 284.144 38.5718 284.8 37.7914C285.468 36.9996 285.801 35.9307 285.801 34.5847V26.0337H290.671V43ZM312.286 51.4831H307.416V41.0658C306.704 41.7784 305.867 42.3383 304.905 42.7455C303.955 43.1414 302.926 43.3393 301.818 43.3393C300.279 43.3393 298.899 42.9604 297.678 42.2026C296.468 41.4334 295.512 40.3815 294.811 39.0469C294.109 37.7122 293.759 36.2022 293.759 34.5169C293.759 32.8202 294.109 31.3103 294.811 29.9869C295.512 28.6522 296.468 27.606 297.678 26.8481C298.899 26.079 300.279 25.6944 301.818 25.6944C303.017 25.6944 304.125 25.9319 305.143 26.407C306.161 26.8707 307.032 27.5155 307.756 28.3412L307.993 26.0337H312.286V51.4831ZM303.073 38.962C303.876 38.962 304.589 38.7924 305.211 38.453C305.844 38.1137 306.353 37.6443 306.738 37.0448C307.122 36.4341 307.349 35.7384 307.416 34.958V34.1097C307.349 33.3179 307.122 32.6167 306.738 32.0059C306.365 31.3951 305.861 30.92 305.228 30.5807C304.606 30.2414 303.893 30.0717 303.09 30.0717C302.253 30.0717 301.507 30.264 300.851 30.6486C300.206 31.0218 299.697 31.5421 299.324 32.2095C298.95 32.8768 298.764 33.6459 298.764 34.5169C298.764 35.3765 298.945 36.1456 299.307 36.8243C299.68 37.4916 300.195 38.0176 300.851 38.4021C301.507 38.7754 302.247 38.962 303.073 38.962Z" fill="black"/>
<path d="M120.109 77.8443C118.91 78.998 117.491 79.8972 115.851 80.5419C114.222 81.1866 112.446 81.509 110.523 81.509C108.589 81.509 106.796 81.181 105.145 80.5249C103.505 79.8576 102.074 78.9301 100.852 77.7425C99.6421 76.5435 98.6976 75.141 98.019 73.5348C97.3516 71.9287 97.018 70.1755 97.018 68.2753C97.018 66.3751 97.3516 64.6219 98.019 63.0158C98.6976 61.4096 99.6421 60.0127 100.852 58.8251C102.074 57.6262 103.505 56.6987 105.145 56.0426C106.796 55.3753 108.589 55.0416 110.523 55.0416C112.435 55.0416 114.199 55.3696 115.817 56.0257C117.445 56.6704 118.859 57.5696 120.058 58.7233L115.375 63.4399C114.787 62.6482 114.063 62.0261 113.204 61.5736C112.355 61.1212 111.428 60.895 110.421 60.895C109.494 60.895 108.634 61.0816 107.842 61.4549C107.051 61.8281 106.355 62.3484 105.756 63.0158C105.167 63.6831 104.709 64.4636 104.381 65.3571C104.053 66.2507 103.889 67.2177 103.889 68.2583C103.889 69.3103 104.053 70.283 104.381 71.1765C104.709 72.0701 105.167 72.8562 105.756 73.5348C106.355 74.2022 107.051 74.7225 107.842 75.0957C108.634 75.469 109.494 75.6556 110.421 75.6556C111.428 75.6556 112.355 75.4294 113.204 74.977C114.052 74.5245 114.77 73.9025 115.358 73.1107L120.109 77.8443ZM144.693 81H137.262L132.41 72.5847H129.39V81H122.671V55.5506H132.919C135.124 55.5506 137.002 55.8843 138.551 56.5516C140.101 57.219 141.283 58.1917 142.097 59.4698C142.923 60.7366 143.336 62.2693 143.336 64.0677C143.336 65.753 142.974 67.2064 142.25 68.428C141.526 69.6496 140.48 70.611 139.111 71.3123L144.693 81ZM129.39 67.41H132.393C133.739 67.41 134.751 67.1612 135.43 66.6635C136.12 66.1545 136.465 65.4024 136.465 64.407C136.465 63.4117 136.12 62.6651 135.43 62.1675C134.751 61.6585 133.739 61.404 132.393 61.404H129.39V67.41ZM174.978 81H168.259V65.1875L163.322 76.7245H158.368L153.448 65.2214V81H146.729V55.5506H155.212L160.845 69.1576L166.495 55.5506H174.978V81Z" fill="black"/>
</svg>
