<svg width="75" height="75" viewBox="0 0 75 75" fill="none" xmlns="http://www.w3.org/2000/svg">
<path d="M45.3125 31.2501C42.7188 31.2501 40.625 29.1564 40.625 26.5626V10.9376C40.625 8.34387 42.7188 6.25012 45.3125 6.25012C47.9063 6.25012 50 8.34387 50 10.9376V26.5626C50 29.1564 47.9063 31.2501 45.3125 31.2501Z" stroke="white" stroke-width="6.25" stroke-linecap="round" stroke-linejoin="round"/>
<path d="M64.0625 31.2501H59.375V26.5626C59.375 23.9689 61.4688 21.8751 64.0625 21.8751C66.6563 21.8751 68.75 23.9689 68.75 26.5626C68.75 29.1564 66.6563 31.2501 64.0625 31.2501Z" stroke="white" stroke-width="6.25" stroke-linecap="round" stroke-linejoin="round"/>
<path d="M29.6875 43.7501C32.2813 43.7501 34.375 45.8439 34.375 48.4376V64.0626C34.375 66.6564 32.2813 68.7501 29.6875 68.7501C27.0938 68.7501 25 66.6564 25 64.0626V48.4376C25 45.8439 27.0938 43.7501 29.6875 43.7501Z" stroke="white" stroke-width="6.25" stroke-linecap="round" stroke-linejoin="round"/>
<path d="M10.9375 43.7501H15.625V48.4376C15.625 51.0314 13.5313 53.1251 10.9375 53.1251C8.34375 53.1251 6.25 51.0314 6.25 48.4376C6.25 45.8439 8.34375 43.7501 10.9375 43.7501Z" stroke="white" stroke-width="6.25" stroke-linecap="round" stroke-linejoin="round"/>
<path d="M43.75 45.3126C43.75 42.7189 45.8438 40.6251 48.4375 40.6251H64.0625C66.6563 40.6251 68.75 42.7189 68.75 45.3126C68.75 47.9064 66.6563 50.0001 64.0625 50.0001H48.4375C45.8438 50.0001 43.75 47.9064 43.75 45.3126Z" stroke="white" stroke-width="6.25" stroke-linecap="round" stroke-linejoin="round"/>
<path d="M48.4375 59.3751H43.75V64.0626C43.75 66.6564 45.8438 68.7501 48.4375 68.7501C51.0313 68.7501 53.125 66.6564 53.125 64.0626C53.125 61.4689 51.0313 59.3751 48.4375 59.3751Z" stroke="white" stroke-width="6.25" stroke-linecap="round" stroke-linejoin="round"/>
<path d="M31.25 29.6876C31.25 27.0939 29.1563 25.0001 26.5625 25.0001H10.9375C8.34375 25.0001 6.25 27.0939 6.25 29.6876C6.25 32.2814 8.34375 34.3751 10.9375 34.3751H26.5625C29.1563 34.3751 31.25 32.2814 31.25 29.6876Z" stroke="white" stroke-width="6.25" stroke-linecap="round" stroke-linejoin="round"/>
<path d="M26.5625 15.6251H31.25V10.9376C31.25 8.34387 29.1563 6.25012 26.5625 6.25012C23.9688 6.25012 21.875 8.34387 21.875 10.9376C21.875 13.5314 23.9688 15.6251 26.5625 15.6251Z" stroke="white" stroke-width="6.25" stroke-linecap="round" stroke-linejoin="round"/>
</svg>
