<svg width="60" height="60" viewBox="0 0 60 60" fill="none" xmlns="http://www.w3.org/2000/svg">
<path fill-rule="evenodd" clip-rule="evenodd" d="M57 0C55.0791 0 53.2369 0.763062 51.8787 2.12132L43.2011 10.7989C42.4559 11.5441 41.3745 11.8436 40.3521 11.588L6 3L2.94318 6.05683C1.7716 7.2284 1.7716 9.12789 2.94318 10.2995C3.17118 10.5275 3.43445 10.7172 3.72285 10.8614L30 24L18 36H4.8541C3.71779 36 2.679 36.642 2.17082 37.6584L0 42L12 48L18 60L22.3416 57.8292C23.358 57.321 24 56.2822 24 55.1459V42L36 30L49.1386 56.2771C49.8795 57.7591 51.6816 58.3598 53.1635 57.6188C53.4519 57.4746 53.7152 57.2848 53.9432 57.0568L57 54L48.412 19.6479C48.1564 18.6255 48.4559 17.5441 49.2011 16.7989L57.8787 8.12132C59.2369 6.76306 60 4.92087 60 3C60 1.34315 58.6569 0 57 0Z" fill="white"/>
<path d="M22.1875 13.75L5.625 30.3125" stroke="white" stroke-opacity="0.5" stroke-width="5.32292" stroke-linecap="round"/>
<path d="M49.0625 38.75L32.5 55.3125" stroke="white" stroke-opacity="0.5" stroke-width="5.32292" stroke-linecap="round"/>
</svg>
