<svg width="121" height="106" viewBox="0 0 121 106" fill="none" xmlns="http://www.w3.org/2000/svg">
<rect x="0.125488" y="23.5748" width="119.942" height="81.6103" rx="19.7843" fill="url(#paint0_radial_115_691)"/>
<g filter="url(#filter0_b_115_691)">
<path d="M15.5815 8.73657C15.5815 3.9562 19.4568 0.0809326 24.2372 0.0809326H95.3371C100.117 0.0809326 103.993 3.9562 103.993 8.73658V47.0687C103.993 57.9953 95.135 66.853 84.2084 66.853H15.5815V8.73657Z" fill="#019C6E" fill-opacity="0.34"/>
</g>
<path d="M20.3521 88.9032L21.3405 87.3122C21.6519 87.565 21.9521 87.7726 22.241 87.9351C22.5343 88.093 22.8232 88.2104 23.1075 88.2871C23.3919 88.3593 23.683 88.3954 23.9809 88.3954C24.333 88.3954 24.6376 88.3458 24.8949 88.2465C25.1522 88.1472 25.3508 88.005 25.4907 87.82C25.6351 87.6349 25.7073 87.4205 25.7073 87.1768C25.7073 86.8925 25.6171 86.6532 25.4365 86.4592C25.256 86.2651 25.019 86.0958 24.7256 85.9514C24.4368 85.8024 24.1231 85.6603 23.7846 85.5249C23.4551 85.3895 23.1233 85.2428 22.7893 85.0848C22.4599 84.9223 22.1552 84.7305 21.8754 84.5093C21.6 84.2882 21.3766 84.0196 21.2051 83.7037C21.0381 83.3832 20.9546 82.995 20.9546 82.5392C20.9546 81.9434 21.1036 81.4289 21.4014 80.9956C21.7038 80.5623 22.1168 80.2283 22.6404 79.9936C23.164 79.7589 23.762 79.6415 24.4345 79.6415C24.9084 79.6415 25.4004 79.7047 25.9104 79.8311C26.425 79.9575 26.9373 80.1493 27.4473 80.4065L26.6281 82.0923C26.3076 81.8983 25.9623 81.7448 25.5922 81.632C25.2221 81.5191 24.8746 81.4627 24.5496 81.4627C24.2562 81.4627 23.999 81.5078 23.7778 81.5981C23.5612 81.6884 23.3919 81.8148 23.27 81.9772C23.1482 82.1352 23.0872 82.3225 23.0872 82.5392C23.0872 82.7964 23.1752 83.0199 23.3513 83.2094C23.5273 83.3945 23.7552 83.5592 24.0351 83.7037C24.3194 83.8481 24.6241 83.9925 24.9491 84.137C25.2831 84.2814 25.6193 84.4394 25.9578 84.6109C26.3009 84.7824 26.6123 84.9855 26.8921 85.2202C27.1765 85.4504 27.4044 85.728 27.5759 86.0529C27.7519 86.3734 27.84 86.7593 27.84 87.2107C27.84 87.8064 27.682 88.33 27.366 88.7814C27.0501 89.2282 26.61 89.578 26.0458 89.8307C25.4816 90.079 24.8249 90.2031 24.0757 90.2031C23.3896 90.2031 22.7329 90.0925 22.1055 89.8714C21.4782 89.6502 20.8937 89.3275 20.3521 88.9032ZM31.1032 93.3851H29.1534V83.2297H30.8595L30.961 84.1505C31.2499 83.821 31.5952 83.5637 31.9969 83.3787C32.4031 83.1891 32.8454 83.0943 33.3239 83.0943C33.9467 83.0943 34.4996 83.2478 34.9826 83.5547C35.4655 83.8571 35.8469 84.2746 36.1267 84.8072C36.4066 85.3353 36.5465 85.9378 36.5465 86.6149C36.5465 87.2874 36.4066 87.8899 36.1267 88.4225C35.8469 88.9551 35.4655 89.3749 34.9826 89.6818C34.4996 89.9842 33.9467 90.1354 33.3239 90.1354C32.8815 90.1354 32.4708 90.0564 32.0917 89.8984C31.7171 89.736 31.3876 89.5125 31.1032 89.2282V93.3851ZM32.8296 88.3887C33.1681 88.3887 33.466 88.3142 33.7233 88.1653C33.9806 88.0118 34.1814 87.8019 34.3259 87.5356C34.4748 87.2648 34.5493 86.9579 34.5493 86.6149C34.5493 86.2673 34.4748 85.9604 34.3259 85.6941C34.1814 85.4278 33.9806 85.2179 33.7233 85.0645C33.466 84.911 33.1704 84.8343 32.8364 84.8343C32.5205 84.8343 32.2361 84.9043 31.9834 85.0442C31.7306 85.1796 31.5252 85.3691 31.3673 85.6129C31.2138 85.8566 31.1258 86.1364 31.1032 86.4524V86.7909C31.1258 87.0978 31.2138 87.3731 31.3673 87.6169C31.5207 87.8561 31.7238 88.0457 31.9766 88.1856C32.2293 88.321 32.5137 88.3887 32.8296 88.3887ZM43.8178 90H42.1252L42.0236 89.1943C41.7754 89.4922 41.4685 89.7247 41.1029 89.8917C40.7373 90.0542 40.3356 90.1354 39.8978 90.1354C39.4239 90.1354 39.0018 90.0451 38.6317 89.8646C38.2616 89.6795 37.9705 89.4268 37.7584 89.1063C37.5462 88.7814 37.4402 88.4135 37.4402 88.0028C37.4402 87.5695 37.5553 87.1881 37.7855 86.8586C38.0156 86.5291 38.3316 86.2718 38.7333 86.0868C39.1395 85.8972 39.5999 85.8024 40.1144 85.8024C40.4168 85.8024 40.7192 85.8363 41.0216 85.904C41.3286 85.9717 41.6129 86.0665 41.8747 86.1883V86.0123C41.8747 85.7415 41.798 85.5091 41.6445 85.315C41.4956 85.1164 41.2879 84.9629 41.0216 84.8546C40.7599 84.7463 40.4665 84.6921 40.1415 84.6921C39.8301 84.6921 39.5209 84.7418 39.214 84.8411C38.9116 84.9404 38.6317 85.0893 38.3745 85.2879L37.8464 83.8052C38.3023 83.5705 38.7626 83.3945 39.2275 83.2771C39.6969 83.1553 40.1505 83.0943 40.5883 83.0943C41.2473 83.0943 41.8183 83.2252 42.3012 83.487C42.7842 83.7443 43.1565 84.1099 43.4183 84.5838C43.6846 85.0532 43.8178 85.6106 43.8178 86.256V90ZM40.3243 88.6392C40.5816 88.6392 40.8276 88.5828 41.0623 88.4699C41.297 88.3571 41.4865 88.2036 41.631 88.0095C41.7799 87.8155 41.8589 87.6011 41.8679 87.3664V87.319C41.6693 87.1836 41.4482 87.0798 41.2044 87.0075C40.9652 86.9308 40.7215 86.8925 40.4732 86.8925C40.1031 86.8925 39.8007 86.9737 39.566 87.1362C39.3313 87.2987 39.214 87.5085 39.214 87.7658C39.214 87.9328 39.2614 88.084 39.3562 88.2194C39.4555 88.3503 39.5886 88.4541 39.7556 88.5309C39.9226 88.6031 40.1122 88.6392 40.3243 88.6392ZM51.3327 88.9235C51.0033 89.3027 50.5993 89.6006 50.1209 89.8172C49.6424 90.0293 49.1166 90.1354 48.5434 90.1354C47.8483 90.1354 47.2255 89.9842 46.6748 89.6818C46.1287 89.3749 45.6976 88.9551 45.3817 88.4225C45.0703 87.8899 44.9145 87.2874 44.9145 86.6149C44.9145 85.9378 45.0703 85.3353 45.3817 84.8072C45.6976 84.2746 46.1287 83.8571 46.6748 83.5547C47.2255 83.2478 47.8483 83.0943 48.5434 83.0943C49.1121 83.0943 49.6357 83.2004 50.1141 83.4125C50.5925 83.6247 50.9965 83.9181 51.326 84.2927L50.1818 85.491C50.0058 85.2879 49.7824 85.1299 49.5115 85.0171C49.2452 84.8997 48.9654 84.8411 48.672 84.8411C48.3335 84.8411 48.0311 84.9178 47.7648 85.0713C47.4985 85.2202 47.2886 85.4278 47.1352 85.6941C46.9817 85.9559 46.905 86.2583 46.905 86.6013C46.905 86.9489 46.9817 87.258 47.1352 87.5289C47.2886 87.7997 47.4985 88.0118 47.7648 88.1653C48.0311 88.3142 48.3335 88.3887 48.672 88.3887C48.9654 88.3887 49.2475 88.3323 49.5183 88.2194C49.7891 88.1021 50.0103 87.9418 50.1818 87.7387L51.3327 88.9235ZM58.7597 89.2417C57.9202 89.8375 57.0017 90.1354 56.0042 90.1354C55.264 90.1354 54.5983 89.9774 54.007 89.6615C53.4202 89.341 52.9553 88.9077 52.6123 88.3616C52.2738 87.8155 52.1045 87.1994 52.1045 86.5133C52.1045 85.8589 52.258 85.2744 52.5649 84.7598C52.8764 84.2453 53.2984 83.8391 53.831 83.5412C54.3636 83.2433 54.9684 83.0943 55.6454 83.0943C56.345 83.0943 56.9611 83.2591 57.4937 83.5886C58.0263 83.9135 58.4415 84.3694 58.7394 84.9562C59.0373 85.5384 59.1862 86.2132 59.1862 86.9805V87.1971H54.1966C54.2778 87.4634 54.4087 87.6981 54.5892 87.9012C54.7743 88.0998 55.0045 88.2578 55.2798 88.3751C55.5596 88.4925 55.8778 88.5512 56.2344 88.5512C56.925 88.5512 57.5681 88.3277 58.1639 87.8809L58.7597 89.2417ZM54.1085 86.2087H57.3921C57.356 85.9153 57.2635 85.658 57.1145 85.4368C56.9701 85.2112 56.7783 85.0351 56.5391 84.9088C56.3044 84.7824 56.0403 84.7192 55.7469 84.7192C55.4491 84.7192 55.1828 84.7846 54.9481 84.9155C54.7179 85.0464 54.5306 85.2225 54.3861 85.4436C54.2417 85.6648 54.1492 85.9198 54.1085 86.2087ZM64.9477 90H64.1691L59.8362 79.8446H62.4224L65.6112 87.3393L68.7932 79.8446H69.2739L64.9477 90ZM71.0748 81.7877C70.795 81.7877 70.558 81.6906 70.3639 81.4966C70.1698 81.298 70.0728 81.0588 70.0728 80.7789C70.0728 80.4991 70.1698 80.2621 70.3639 80.068C70.558 79.8694 70.795 79.7701 71.0748 79.7701C71.3592 79.7701 71.5961 79.8694 71.7857 80.068C71.9798 80.2621 72.0768 80.4991 72.0768 80.7789C72.0768 81.0588 71.9798 81.298 71.7857 81.4966C71.5961 81.6906 71.3592 81.7877 71.0748 81.7877ZM72.1919 90H69.9712V83.2297H72.1919V90ZM80.2553 89.2688C79.4248 89.8465 78.4973 90.1354 77.4727 90.1354C76.7144 90.1354 76.0397 89.9797 75.4484 89.6683C74.8571 89.3523 74.39 88.9235 74.0469 88.3819C73.7084 87.8358 73.5392 87.2152 73.5392 86.5201C73.5392 85.8566 73.6949 85.2676 74.0063 84.7531C74.3178 84.234 74.7465 83.8278 75.2927 83.5344C75.8433 83.241 76.4707 83.0943 77.1748 83.0943C77.8789 83.0943 78.5018 83.2433 79.0434 83.5412C79.585 83.8391 80.007 84.2521 80.3094 84.7801C80.6163 85.3082 80.7698 85.9198 80.7698 86.6149V86.6758H75.6853C75.6944 87.2761 75.7982 87.7997 75.9968 88.2465C76.1954 88.6888 76.4684 89.0319 76.816 89.2756C77.168 89.5193 77.572 89.6412 78.0279 89.6412C78.6507 89.6412 79.3413 89.4155 80.0996 88.9642L80.2553 89.2688ZM75.6786 86.3711H78.7387C78.7116 85.8024 78.6281 85.3014 78.4882 84.8681C78.3528 84.4303 78.1768 84.0873 77.9602 83.8391C77.7435 83.5908 77.4998 83.4667 77.229 83.4667C76.9536 83.4667 76.6964 83.5999 76.4572 83.8661C76.2225 84.1279 76.0329 84.48 75.8885 84.9223C75.7485 85.3601 75.6786 85.8431 75.6786 86.3711ZM89.3816 90H88.6165L86.7073 85.7077L85.0486 90H84.2903L81.4875 83.2297H83.9654L85.5835 87.6372L87.2896 83.2297H88.014L89.9232 87.6372L91.6158 83.2297H92.049L89.3816 90ZM94.3606 85.8266H93.5419V82.6913H92.4183V81.9743H95.4788V82.6913H94.3606V85.8266ZM100.118 85.8266H99.299V83.1675L98.3627 85.1792H97.7421L96.8111 83.1728V85.8266H95.9978V81.9743H97.0198L98.0524 84.2696L99.0904 81.9743H100.118V85.8266Z" fill="white"/>
<g filter="url(#filter1_d_115_691)">
<rect x="24.2378" y="6.88184" width="16.693" height="15.4565" rx="3.70956" fill="white"/>
</g>
<g filter="url(#filter2_d_115_691)">
<rect x="24.2378" y="26.0479" width="16.693" height="15.4565" rx="3.70956" fill="white"/>
</g>
<g filter="url(#filter3_d_115_691)">
<rect x="24.2378" y="45.214" width="16.693" height="15.4565" rx="3.70956" fill="white"/>
</g>
<g filter="url(#filter4_d_115_691)">
<rect x="44.6401" y="6.88184" width="16.693" height="15.4565" rx="3.70956" fill="white"/>
</g>
<g filter="url(#filter5_d_115_691)">
<rect x="44.6401" y="26.0479" width="16.693" height="15.4565" rx="3.70956" fill="white"/>
</g>
<g filter="url(#filter6_d_115_691)">
<rect x="44.6401" y="45.214" width="16.693" height="15.4565" rx="3.70956" fill="white"/>
</g>
<circle cx="82.3543" cy="33.4671" r="14.22" fill="#340E46"/>
<path d="M79.2627 40.2678L86.0636 33.4669L79.2627 26.6661" stroke="white" stroke-width="1.70022" stroke-linecap="round" stroke-linejoin="round"/>
<defs>
<filter id="filter0_b_115_691" x="11.5815" y="-3.91907" width="96.4111" height="74.7721" filterUnits="userSpaceOnUse" color-interpolation-filters="sRGB">
<feFlood flood-opacity="0" result="BackgroundImageFix"/>
<feGaussianBlur in="BackgroundImageFix" stdDeviation="2"/>
<feComposite in2="SourceAlpha" operator="in" result="effect1_backgroundBlur_115_691"/>
<feBlend mode="normal" in="SourceGraphic" in2="effect1_backgroundBlur_115_691" result="shape"/>
</filter>
<filter id="filter1_d_115_691" x="20.2378" y="6.88184" width="24.6929" height="23.4565" filterUnits="userSpaceOnUse" color-interpolation-filters="sRGB">
<feFlood flood-opacity="0" result="BackgroundImageFix"/>
<feColorMatrix in="SourceAlpha" type="matrix" values="0 0 0 0 0 0 0 0 0 0 0 0 0 0 0 0 0 0 127 0" result="hardAlpha"/>
<feOffset dy="4"/>
<feGaussianBlur stdDeviation="2"/>
<feComposite in2="hardAlpha" operator="out"/>
<feColorMatrix type="matrix" values="0 0 0 0 0 0 0 0 0 0 0 0 0 0 0 0 0 0 0.25 0"/>
<feBlend mode="normal" in2="BackgroundImageFix" result="effect1_dropShadow_115_691"/>
<feBlend mode="normal" in="SourceGraphic" in2="effect1_dropShadow_115_691" result="shape"/>
</filter>
<filter id="filter2_d_115_691" x="20.2378" y="26.0479" width="24.6929" height="23.4565" filterUnits="userSpaceOnUse" color-interpolation-filters="sRGB">
<feFlood flood-opacity="0" result="BackgroundImageFix"/>
<feColorMatrix in="SourceAlpha" type="matrix" values="0 0 0 0 0 0 0 0 0 0 0 0 0 0 0 0 0 0 127 0" result="hardAlpha"/>
<feOffset dy="4"/>
<feGaussianBlur stdDeviation="2"/>
<feComposite in2="hardAlpha" operator="out"/>
<feColorMatrix type="matrix" values="0 0 0 0 0 0 0 0 0 0 0 0 0 0 0 0 0 0 0.25 0"/>
<feBlend mode="normal" in2="BackgroundImageFix" result="effect1_dropShadow_115_691"/>
<feBlend mode="normal" in="SourceGraphic" in2="effect1_dropShadow_115_691" result="shape"/>
</filter>
<filter id="filter3_d_115_691" x="20.2378" y="45.214" width="24.6929" height="23.4565" filterUnits="userSpaceOnUse" color-interpolation-filters="sRGB">
<feFlood flood-opacity="0" result="BackgroundImageFix"/>
<feColorMatrix in="SourceAlpha" type="matrix" values="0 0 0 0 0 0 0 0 0 0 0 0 0 0 0 0 0 0 127 0" result="hardAlpha"/>
<feOffset dy="4"/>
<feGaussianBlur stdDeviation="2"/>
<feComposite in2="hardAlpha" operator="out"/>
<feColorMatrix type="matrix" values="0 0 0 0 0 0 0 0 0 0 0 0 0 0 0 0 0 0 0.25 0"/>
<feBlend mode="normal" in2="BackgroundImageFix" result="effect1_dropShadow_115_691"/>
<feBlend mode="normal" in="SourceGraphic" in2="effect1_dropShadow_115_691" result="shape"/>
</filter>
<filter id="filter4_d_115_691" x="40.6401" y="6.88184" width="24.6929" height="23.4565" filterUnits="userSpaceOnUse" color-interpolation-filters="sRGB">
<feFlood flood-opacity="0" result="BackgroundImageFix"/>
<feColorMatrix in="SourceAlpha" type="matrix" values="0 0 0 0 0 0 0 0 0 0 0 0 0 0 0 0 0 0 127 0" result="hardAlpha"/>
<feOffset dy="4"/>
<feGaussianBlur stdDeviation="2"/>
<feComposite in2="hardAlpha" operator="out"/>
<feColorMatrix type="matrix" values="0 0 0 0 0 0 0 0 0 0 0 0 0 0 0 0 0 0 0.25 0"/>
<feBlend mode="normal" in2="BackgroundImageFix" result="effect1_dropShadow_115_691"/>
<feBlend mode="normal" in="SourceGraphic" in2="effect1_dropShadow_115_691" result="shape"/>
</filter>
<filter id="filter5_d_115_691" x="40.6401" y="26.0479" width="24.6929" height="23.4565" filterUnits="userSpaceOnUse" color-interpolation-filters="sRGB">
<feFlood flood-opacity="0" result="BackgroundImageFix"/>
<feColorMatrix in="SourceAlpha" type="matrix" values="0 0 0 0 0 0 0 0 0 0 0 0 0 0 0 0 0 0 127 0" result="hardAlpha"/>
<feOffset dy="4"/>
<feGaussianBlur stdDeviation="2"/>
<feComposite in2="hardAlpha" operator="out"/>
<feColorMatrix type="matrix" values="0 0 0 0 0 0 0 0 0 0 0 0 0 0 0 0 0 0 0.25 0"/>
<feBlend mode="normal" in2="BackgroundImageFix" result="effect1_dropShadow_115_691"/>
<feBlend mode="normal" in="SourceGraphic" in2="effect1_dropShadow_115_691" result="shape"/>
</filter>
<filter id="filter6_d_115_691" x="40.6401" y="45.214" width="24.6929" height="23.4565" filterUnits="userSpaceOnUse" color-interpolation-filters="sRGB">
<feFlood flood-opacity="0" result="BackgroundImageFix"/>
<feColorMatrix in="SourceAlpha" type="matrix" values="0 0 0 0 0 0 0 0 0 0 0 0 0 0 0 0 0 0 127 0" result="hardAlpha"/>
<feOffset dy="4"/>
<feGaussianBlur stdDeviation="2"/>
<feComposite in2="hardAlpha" operator="out"/>
<feColorMatrix type="matrix" values="0 0 0 0 0 0 0 0 0 0 0 0 0 0 0 0 0 0 0.25 0"/>
<feBlend mode="normal" in2="BackgroundImageFix" result="effect1_dropShadow_115_691"/>
<feBlend mode="normal" in="SourceGraphic" in2="effect1_dropShadow_115_691" result="shape"/>
</filter>
<radialGradient id="paint0_radial_115_691" cx="0" cy="0" r="1" gradientUnits="userSpaceOnUse" gradientTransform="translate(60.0967 64.38) rotate(90) scale(40.8052 59.9712)">
<stop offset="0.104167" stop-color="#340E47"/>
<stop offset="1"/>
</radialGradient>
</defs>
</svg>
