<svg width="298" height="52" viewBox="0 0 298 52" fill="none" xmlns="http://www.w3.org/2000/svg">
<path d="M40.3407 13.2476C38.7467 10.6391 34.5442 10.3493 28.4578 12.3781C26.1391 10.9289 23.3858 10.0594 20.3426 10.0594C11.5028 10.0594 4.40204 17.1602 4.40204 26C4.40204 26.5796 4.40204 27.1593 4.54695 27.739C0.489359 32.2313 -0.959781 35.9991 0.634274 38.4626C1.64867 40.0567 3.38764 40.6363 5.70626 40.6363C10.7783 40.6363 18.4587 37.4482 25.1247 33.1008C30.1967 29.9127 34.6891 26.1449 37.4424 22.5221C41.6449 17.7399 41.3551 14.8416 40.3407 13.2476ZM3.09781 37.0135C2.51816 36.144 3.09781 34.1152 5.41644 31.3618C6.28592 33.6804 7.59015 35.7092 9.32911 37.4482C5.99609 38.1728 3.67747 38.0279 3.09781 37.0135ZM35.4136 20.7831C34.5442 18.3195 33.2399 16.1458 31.356 14.4069C35.1238 13.5374 37.2975 13.8272 37.8772 14.6967C38.4568 15.5662 38.0221 17.595 35.4136 20.7831Z" fill="url(#paint0_radial_1127_5573)"/>
<path d="M14.2563 40.7812C16.1402 41.5058 18.169 41.9405 20.3427 41.9405C28.7478 41.9405 35.5587 35.4194 36.2833 27.1593C33.5299 29.7678 30.1969 32.3762 26.719 34.6948C22.3715 37.3033 18.169 39.477 14.2563 40.7812Z" fill="url(#paint1_radial_1127_5573)"/>
<path d="M55.0392 37.697L58.016 32.9055C58.9539 33.6667 59.8578 34.292 60.7278 34.7813C61.6113 35.2571 62.4812 35.6105 63.3376 35.8416C64.1939 36.0591 65.0707 36.1678 65.9678 36.1678C67.028 36.1678 67.9455 36.0183 68.7203 35.7192C69.4951 35.4202 70.0932 34.992 70.5145 34.4347C70.9495 33.8774 71.167 33.2318 71.167 32.4978C71.167 31.6414 70.8951 30.921 70.3514 30.3365C69.8077 29.752 69.0941 29.2423 68.2106 28.8073C67.3406 28.3588 66.3959 27.9306 65.3765 27.5228C64.3842 27.115 63.3852 26.6733 62.3793 26.1975C61.387 25.7082 60.4695 25.1305 59.6268 24.4645C58.7976 23.7984 58.1248 22.9897 57.6083 22.0382C57.1053 21.0731 56.8539 19.9041 56.8539 18.5313C56.8539 16.737 57.3024 15.1874 58.1995 13.8825C59.1103 12.5776 60.354 11.5718 61.9307 10.865C63.5075 10.1581 65.3085 9.80474 67.3338 9.80474C68.7611 9.80474 70.2427 9.99503 71.7787 10.3756C73.3282 10.7562 74.871 11.3339 76.407 12.1087L73.9399 17.1856C72.9748 16.6011 71.935 16.1389 70.8204 15.7991C69.7058 15.4593 68.6591 15.2894 67.6805 15.2894C66.7969 15.2894 66.0221 15.4253 65.3561 15.6972C64.7037 15.969 64.1939 16.3496 63.8269 16.839C63.4599 17.3147 63.2764 17.8788 63.2764 18.5313C63.2764 19.306 63.5415 19.9789 64.0716 20.5498C64.6017 21.1071 65.2881 21.6032 66.1309 22.0382C66.9872 22.4731 67.9047 22.9081 68.8834 23.3431C69.8893 23.778 70.9019 24.2538 71.9214 24.7703C72.9544 25.2868 73.8923 25.8985 74.7351 26.6053C75.5914 27.2986 76.2778 28.1345 76.7944 29.1132C77.3245 30.0783 77.5895 31.2404 77.5895 32.5997C77.5895 34.3939 77.1138 35.9707 76.1623 37.33C75.2108 38.6756 73.8855 39.7291 72.1864 40.4903C70.4873 41.2379 68.5096 41.6117 66.2532 41.6117C64.1871 41.6117 62.2094 41.2787 60.32 40.6126C58.4306 39.9466 56.6704 38.9747 55.0392 37.697ZM87.4171 51.1945H81.545V20.6109H86.6831L86.9889 23.3839C87.8588 22.3916 88.8987 21.6168 90.1084 21.0595C91.3318 20.4886 92.6638 20.2032 94.1047 20.2032C95.9805 20.2032 97.6456 20.6653 99.1 21.5896C100.554 22.5003 101.703 23.7577 102.546 25.3616C103.388 26.9519 103.81 28.7666 103.81 30.8055C103.81 32.8308 103.388 34.6454 102.546 36.2493C101.703 37.8533 100.554 39.1174 99.1 40.0417C97.6456 40.9524 95.9805 41.4078 94.1047 41.4078C92.7726 41.4078 91.5357 41.1699 90.3939 40.6942C89.2657 40.2048 88.2734 39.532 87.4171 38.6756V51.1945ZM92.6163 36.1474C93.6357 36.1474 94.5328 35.9231 95.3076 35.4746C96.0824 35.0124 96.6873 34.3804 97.1223 33.5784C97.5708 32.7628 97.7951 31.8385 97.7951 30.8055C97.7951 29.7588 97.5708 28.8345 97.1223 28.0326C96.6873 27.2306 96.0824 26.5985 95.3076 26.1364C94.5328 25.6742 93.6425 25.4431 92.6367 25.4431C91.6852 25.4431 90.8288 25.6538 90.0676 26.0752C89.3065 26.483 88.688 27.0539 88.2122 27.7879C87.7501 28.5219 87.485 29.3646 87.4171 30.3161V31.3356C87.485 32.2599 87.7501 33.089 88.2122 33.8231C88.6744 34.5435 89.2861 35.1144 90.0473 35.5357C90.8084 35.9435 91.6648 36.1474 92.6163 36.1474ZM125.708 41H120.61L120.305 38.5737C119.557 39.4708 118.633 40.1708 117.532 40.6738C116.431 41.1631 115.221 41.4078 113.902 41.4078C112.475 41.4078 111.204 41.1359 110.09 40.5922C108.975 40.0349 108.098 39.2737 107.46 38.3086C106.821 37.33 106.501 36.2222 106.501 34.9852C106.501 33.6803 106.848 32.5317 107.541 31.5395C108.234 30.5472 109.186 29.7724 110.396 29.2151C111.619 28.6442 113.005 28.3588 114.555 28.3588C115.466 28.3588 116.376 28.4607 117.287 28.6646C118.211 28.8685 119.068 29.154 119.856 29.521V28.9908C119.856 28.1753 119.625 27.4753 119.163 26.8908C118.714 26.2927 118.089 25.8305 117.287 25.5043C116.499 25.1781 115.615 25.015 114.636 25.015C113.699 25.015 112.767 25.1645 111.843 25.4635C110.932 25.7626 110.09 26.2111 109.315 26.8092L107.725 22.344C109.097 21.6372 110.484 21.1071 111.884 20.7537C113.298 20.3867 114.664 20.2032 115.982 20.2032C117.967 20.2032 119.686 20.5973 121.141 21.3857C122.595 22.1605 123.716 23.2615 124.505 24.6888C125.307 26.1024 125.708 27.7811 125.708 29.7248V41ZM115.187 36.9018C115.962 36.9018 116.703 36.7319 117.409 36.3921C118.116 36.0523 118.687 35.5901 119.122 35.0056C119.571 34.4211 119.808 33.7755 119.836 33.0687V32.9259C119.238 32.5182 118.572 32.2055 117.838 31.988C117.117 31.757 116.383 31.6414 115.636 31.6414C114.521 31.6414 113.61 31.8861 112.903 32.3754C112.197 32.8648 111.843 33.4968 111.843 34.2716C111.843 34.7745 111.986 35.2299 112.271 35.6377C112.57 36.0319 112.971 36.3445 113.474 36.5756C113.977 36.7931 114.548 36.9018 115.187 36.9018ZM148.34 37.7581C147.347 38.8999 146.131 39.797 144.69 40.4495C143.249 41.0884 141.666 41.4078 139.939 41.4078C137.846 41.4078 135.97 40.9524 134.312 40.0417C132.667 39.1174 131.369 37.8533 130.418 36.2493C129.48 34.6454 129.011 32.8308 129.011 30.8055C129.011 28.7666 129.48 26.9519 130.418 25.3616C131.369 23.7577 132.667 22.5003 134.312 21.5896C135.97 20.6653 137.846 20.2032 139.939 20.2032C141.652 20.2032 143.229 20.5226 144.67 21.1614C146.11 21.8003 147.327 22.6838 148.319 23.812L144.873 27.4209C144.343 26.8092 143.67 26.3335 142.855 25.9937C142.053 25.6402 141.21 25.4635 140.327 25.4635C139.307 25.4635 138.397 25.6946 137.595 26.1568C136.793 26.6053 136.161 27.2306 135.698 28.0326C135.236 28.8209 135.005 29.7316 135.005 30.7647C135.005 31.8113 135.236 32.7424 135.698 33.558C136.161 34.3736 136.793 35.0124 137.595 35.4746C138.397 35.9231 139.307 36.1474 140.327 36.1474C141.21 36.1474 142.06 35.9775 142.875 35.6377C143.691 35.2843 144.357 34.8017 144.873 34.1901L148.34 37.7581ZM170.706 38.7164C168.178 40.5107 165.412 41.4078 162.408 41.4078C160.179 41.4078 158.174 40.932 156.393 39.9805C154.626 39.0155 153.226 37.7106 152.193 36.0658C151.174 34.4211 150.664 32.5657 150.664 30.4996C150.664 28.5287 151.126 26.7684 152.05 25.2189C152.988 23.6693 154.259 22.446 155.863 21.5488C157.467 20.6517 159.289 20.2032 161.327 20.2032C163.434 20.2032 165.29 20.6993 166.894 21.6916C168.498 22.6702 169.748 24.0431 170.645 25.8101C171.542 27.5636 171.991 29.5957 171.991 31.9065V32.5589H156.964C157.209 33.3609 157.603 34.0677 158.147 34.6794C158.704 35.2775 159.397 35.7532 160.226 36.1066C161.069 36.46 162.027 36.6367 163.101 36.6367C165.181 36.6367 167.118 35.9639 168.912 34.6182L170.706 38.7164ZM156.699 29.5821H166.588C166.479 28.6986 166.2 27.9238 165.752 27.2578C165.317 26.5781 164.739 26.048 164.019 25.6674C163.312 25.2868 162.517 25.0965 161.633 25.0965C160.736 25.0965 159.934 25.2936 159.227 25.6878C158.534 26.082 157.97 26.6121 157.535 27.2782C157.1 27.9442 156.821 28.7122 156.699 29.5821ZM277.921 28.4316H275.455V18.9893H272.072V16.8301H281.288V18.9893H277.921V28.4316ZM295.259 28.4316H292.793V20.4233L289.973 26.4819H288.104L285.301 20.4395V28.4316H282.851V16.8301H285.929L289.039 23.7427L292.165 16.8301H295.259V28.4316Z" fill="black"/>
<path d="M189.342 41H186.997L173.948 10.4164H181.737L191.34 32.9871L200.923 10.4164H202.371L189.342 41ZM207.794 16.2681C206.951 16.2681 206.238 15.9758 205.653 15.3913C205.069 14.7933 204.777 14.0728 204.777 13.2301C204.777 12.3874 205.069 11.6737 205.653 11.0892C206.238 10.4912 206.951 10.1921 207.794 10.1921C208.65 10.1921 209.364 10.4912 209.935 11.0892C210.519 11.6737 210.812 12.3874 210.812 13.2301C210.812 14.0728 210.519 14.7933 209.935 15.3913C209.364 15.9758 208.65 16.2681 207.794 16.2681ZM211.158 41H204.471V20.6109H211.158V41ZM235.442 38.798C232.941 40.5378 230.147 41.4078 227.062 41.4078C224.778 41.4078 222.746 40.9388 220.965 40.0009C219.185 39.0494 217.778 37.7581 216.745 36.127C215.725 34.4823 215.216 32.6133 215.216 30.52C215.216 28.5219 215.685 26.748 216.623 25.1985C217.56 23.6353 218.852 22.412 220.496 21.5284C222.155 20.6449 224.044 20.2032 226.165 20.2032C228.285 20.2032 230.161 20.6517 231.792 21.5488C233.423 22.446 234.694 23.6897 235.605 25.28C236.529 26.8704 236.991 28.7122 236.991 30.8055V30.989H221.679C221.706 32.7968 222.019 34.3736 222.617 35.7192C223.215 37.0513 224.037 38.0844 225.084 38.8184C226.144 39.5524 227.361 39.9194 228.734 39.9194C230.609 39.9194 232.689 39.2397 234.973 37.8805L235.442 38.798ZM221.659 30.0715H230.874C230.793 28.3588 230.541 26.85 230.12 25.5451C229.712 24.2266 229.182 23.1936 228.53 22.446C227.877 21.6984 227.143 21.3246 226.328 21.3246C225.499 21.3246 224.724 21.7255 224.003 22.5275C223.297 23.3159 222.726 24.3761 222.291 25.7082C221.869 27.0267 221.659 28.4811 221.659 30.0715ZM262.926 41H260.622L254.872 28.0733L249.877 41H247.594L239.152 20.6109H246.615L251.488 33.8842L256.626 20.6109H258.808L264.557 33.8842L269.654 20.6109H270.959L262.926 41Z" fill="url(#paint2_radial_1127_5573)"/>
<defs>
<radialGradient id="paint0_radial_1127_5573" cx="0" cy="0" r="1" gradientUnits="userSpaceOnUse" gradientTransform="translate(20.4894 25.3479) rotate(90) scale(15.2884 20.4894)">
<stop/>
<stop offset="1" stop-color="#5E1F7C"/>
</radialGradient>
<radialGradient id="paint1_radial_1127_5573" cx="0" cy="0" r="1" gradientUnits="userSpaceOnUse" gradientTransform="translate(25.2698 34.5499) rotate(87.0037) scale(13.9692 20.8168)">
<stop/>
<stop offset="1" stop-color="#00FFB3"/>
</radialGradient>
<radialGradient id="paint2_radial_1127_5573" cx="0" cy="0" r="1" gradientUnits="userSpaceOnUse" gradientTransform="translate(216.5 2.00001) rotate(129.022) scale(64.358 301.987)">
<stop stop-color="#7A21A4"/>
<stop offset="1" stop-color="#171717"/>
</radialGradient>
</defs>
</svg>
