<svg width="60" height="60" viewBox="0 0 60 60" fill="none" xmlns="http://www.w3.org/2000/svg">
<circle cx="30" cy="30" r="30" fill="#202020"/>
<mask id="mask0_730_5757" style="mask-type:alpha" maskUnits="userSpaceOnUse" x="0" y="0" width="60" height="60">
<circle cx="30" cy="30" r="30" fill="#D9D9D9"/>
</mask>
<g mask="url(#mask0_730_5757)">
<path d="M29.4996 36.4C36.717 36.4 42.5679 30.5491 42.5679 23.3316C42.5679 16.1141 36.717 10.2632 29.4996 10.2632C22.2821 10.2632 16.4312 16.1141 16.4312 23.3316C16.4312 30.5491 22.2821 36.4 29.4996 36.4Z" fill="#575757"/>
<path d="M30.2016 43.3577C26.3836 43.2036 22.5738 43.8234 19.0015 45.18C15.4292 46.5366 12.1683 48.6018 9.41498 51.2514L8.68408 52.07V70.5763C8.69549 71.1791 8.82555 71.7737 9.06682 72.3262C9.30809 72.8788 9.65586 73.3784 10.0902 73.7965C10.5246 74.2146 11.0371 74.543 11.5985 74.763C12.1598 74.983 12.759 75.0902 13.3618 75.0786H46.9537C47.5565 75.0902 48.1557 74.983 48.7171 74.763C49.2784 74.543 49.7909 74.2146 50.2253 73.7965C50.6597 73.3784 51.0074 72.8788 51.2487 72.3262C51.49 71.7737 51.62 71.1791 51.6315 70.5763V52.1285L50.9298 51.2514C48.1943 48.5936 44.9447 46.5226 41.3804 45.1652C37.8161 43.8079 34.0121 43.1928 30.2016 43.3577Z" fill="#575757"/>
</g>
</svg>
