<svg width="230" height="78" viewBox="0 0 230 78" fill="none" xmlns="http://www.w3.org/2000/svg">
<rect x="0.138672" width="229.477" height="78" rx="11" fill="#07399E" fill-opacity="0.06"/>
<path fill-rule="evenodd" clip-rule="evenodd" d="M20.8992 15.2649C20.7314 15.4673 20.6883 17.3067 20.7511 21.6003C20.8335 27.2213 20.8736 27.7471 21.3164 29.0119C22.0313 31.0541 22.6566 32.1743 24.0345 33.8811C26.161 36.5156 28.6963 38.0429 31.7255 38.5141C33.5406 38.7963 34.1622 38.6213 34.6349 37.6951C34.9042 37.1673 34.8853 36.949 34.4475 35.5318C33.7579 33.2994 32.7644 30.5073 32.6023 30.345C32.5267 30.2693 32.4649 29.9923 32.4649 29.7294C32.4649 29.4665 32.3704 29.1931 32.2548 29.1216C32.1393 29.0502 32.0448 28.8959 32.0448 28.779C32.0448 28.662 32.1866 28.708 32.3599 28.8814C32.5332 29.0548 32.675 29.2477 32.675 29.3101C32.675 29.3726 33.0369 29.9705 33.4791 30.6388C33.9213 31.307 35.1739 33.2172 36.2625 34.8834C37.4462 36.6953 38.4951 38.0677 38.872 38.2978C39.3572 38.5944 39.9368 38.6839 41.3928 38.6881C43.4741 38.6942 44.3581 38.9817 45.7554 40.1082L46.547 40.7461L45.2588 41.6067C43.9739 42.4653 43.9659 42.4674 41.9465 42.4678C39.1144 42.4682 38.8243 42.6452 36.8763 45.5621C36.0098 46.8595 34.5918 49.0545 33.7253 50.4395C32.1956 52.8851 31.6072 53.5818 32.0721 52.3979C32.8596 50.3912 34.7756 44.6052 34.7756 44.233C34.7756 43.9867 34.5796 43.5359 34.3402 43.2313C33.9673 42.757 33.7444 42.6775 32.7869 42.6775C31.5591 42.6775 29.317 43.298 27.8434 44.0457C25.9169 45.0232 23.4444 47.7063 22.2136 50.1554C20.9332 52.7028 20.8194 53.5124 20.8124 60.1216L20.8061 66.1114H35.4058C49.9711 66.1114 50.0089 66.1104 51.409 65.6405C54.8249 64.4942 57.7528 61.9997 59.343 58.881C60.343 56.9201 60.6957 55.2862 60.6852 52.6606C60.6726 49.4448 60.1052 47.5043 58.4423 44.9894C57.4155 43.4365 54.4027 40.7944 53.6439 40.7812C53.4914 40.7787 53.6857 40.6191 54.0758 40.4268C54.4659 40.2347 55.5295 39.3745 56.4395 38.5156C59.3269 35.7899 60.7639 32.1262 60.5621 28.0054C60.3888 24.4701 59.1307 21.648 56.5964 19.11C55.0295 17.5409 53.8449 16.7786 51.8163 16.0341C50.0415 15.383 46.4253 15.2109 31.6843 15.0762C22.9732 14.9968 21.0944 15.0295 20.8992 15.2649ZM34.7756 17.874C28.7099 17.9564 23.7236 18.0381 23.6946 18.0558C23.6656 18.0732 23.6421 20.0219 23.6421 22.3859C23.6421 26.8186 23.8072 28.0706 24.6199 29.7971C25.6314 31.9461 27.3258 33.7121 29.4767 34.859C30.9167 35.627 31.5372 35.73 31.315 35.164C31.2356 34.9616 31.0316 34.3706 30.8619 33.8504C30.6921 33.3303 30.4692 32.7155 30.3665 32.4843C30.264 32.2531 29.8237 30.9965 29.3882 29.6918L28.5967 27.3194L28.9792 26.6084C29.4166 25.7963 29.721 25.6858 31.6708 25.632C33.3757 25.5851 33.8534 25.8497 34.8418 27.3888C35.2311 27.9951 36.3514 29.7206 37.3313 31.2233C38.3115 32.726 39.3898 34.4013 39.7278 34.946L40.3424 35.9368L42.312 35.9443C44.0829 35.9513 44.4087 36.0166 45.5397 36.5917C46.2315 36.9433 46.9169 37.3453 47.0629 37.4849C47.2089 37.6244 47.5398 37.8804 47.7983 38.0538C48.0569 38.2272 48.4853 38.5345 48.75 38.7369C49.3638 39.2058 49.7526 39.1992 51.125 38.6974C54.3113 37.5322 56.8827 34.6285 57.7797 31.1827C58.2601 29.3377 58.186 27.0193 57.59 25.2572C56.9138 23.2577 56.2609 22.1967 54.8606 20.8235C52.811 18.8132 50.7298 17.9297 47.7515 17.8055C46.6806 17.7607 40.8413 17.7916 34.7756 17.874ZM48.7226 42.6458C48.4935 42.8593 48.2155 43.0722 48.1053 43.1187C47.995 43.1649 47.3734 43.563 46.7239 44.0031C45.2862 44.9768 43.7772 45.4039 41.7625 45.4072L40.2416 45.4097L39.4696 46.6182C37.4254 49.8181 34.2326 54.6024 33.8595 55.025C33.4871 55.4468 33.2455 55.4979 31.6246 55.4979C29.9966 55.4979 29.7596 55.4472 29.3504 55.0116C29.0992 54.744 28.8937 54.2629 28.8937 53.9424C28.8937 53.6221 29.4611 51.6501 30.1546 49.5604C30.848 47.4707 31.3797 45.7252 31.3362 45.6815C31.1828 45.5283 29.4067 46.328 28.3158 47.0415C26.3183 48.3477 24.6884 50.5961 23.9376 53.0809C23.6223 54.1248 23.5549 55.1202 23.5469 58.8606L23.537 63.3792H36.4562C48.4664 63.3792 49.464 63.3517 50.6357 62.9877C52.2856 62.4753 53.1261 61.9692 54.4875 60.6676C55.8754 59.3413 56.6287 58.2555 57.1997 56.7589C58.2528 53.9987 58.3164 51.9006 57.4255 49.2979C56.5918 46.8627 54.4468 44.3429 52.3612 43.349C49.7429 42.1013 49.3816 42.0315 48.7226 42.6458Z" fill="white"/>
<path d="M76.4874 37V20.5608H82.57C84.3381 20.5608 85.708 20.9371 86.6798 21.6896C87.6588 22.4348 88.1483 23.4833 88.1483 24.835C88.1483 25.6606 87.9547 26.3912 87.5675 27.0269C87.1803 27.6552 86.6578 28.1338 86.0003 28.4626C86.9355 28.7402 87.6625 29.2188 88.1812 29.8983C88.7073 30.5704 88.9703 31.3961 88.9703 32.3751C88.9703 33.3103 88.7402 34.125 88.2799 34.8191C87.8269 35.5059 87.1839 36.0429 86.351 36.4301C85.5254 36.81 84.5536 37 83.4358 37H76.4874ZM79.863 27.4433H82.3836C83.1362 27.4433 83.7317 27.2643 84.17 26.9063C84.6084 26.5483 84.8276 26.0624 84.8276 25.4487C84.8276 24.8496 84.6048 24.3783 84.1591 24.0349C83.7207 23.6842 83.1106 23.5089 82.3289 23.5089H79.863V27.4433ZM79.863 34.0519H82.5919C83.191 34.0519 83.7097 33.9679 84.1481 33.7998C84.5865 33.6245 84.9226 33.3797 85.1564 33.0655C85.3975 32.7441 85.5181 32.3714 85.5181 31.9477C85.5181 31.5239 85.4085 31.1622 85.1893 30.8627C84.9774 30.5631 84.6669 30.3366 84.2577 30.1832C83.8486 30.0225 83.3627 29.9421 82.8001 29.9421H79.863V34.0519ZM96.2255 37.2192C95.1003 37.2192 94.092 36.9744 93.2007 36.4849C92.3093 35.9881 91.6079 35.3122 91.0964 34.4574C90.5923 33.5953 90.3402 32.6162 90.3402 31.5203C90.3402 30.4316 90.5923 29.4599 91.0964 28.605C91.6079 27.7429 92.3093 27.0634 93.2007 26.5666C94.092 26.0697 95.1003 25.8213 96.2255 25.8213C97.3507 25.8213 98.3516 26.0697 99.2284 26.5666C100.112 27.0634 100.807 27.7429 101.311 28.605C101.822 29.4599 102.078 30.4316 102.078 31.5203C102.078 32.6162 101.822 33.5953 101.311 34.4574C100.807 35.3122 100.112 35.9881 99.2284 36.4849C98.3516 36.9744 97.3507 37.2192 96.2255 37.2192ZM96.2145 34.4026C96.7187 34.4026 97.168 34.2784 97.5625 34.03C97.9644 33.7743 98.2786 33.4309 98.5051 32.9998C98.7389 32.5614 98.8558 32.0609 98.8558 31.4983C98.8558 30.9577 98.7389 30.4718 98.5051 30.0407C98.2786 29.6097 97.9644 29.2699 97.5625 29.0215C97.168 28.7658 96.7187 28.6379 96.2145 28.6379C95.7031 28.6379 95.2464 28.7658 94.8446 29.0215C94.45 29.2699 94.1359 29.6097 93.9021 30.0407C93.6756 30.4718 93.5623 30.9577 93.5623 31.4983C93.5623 32.0609 93.6756 32.5614 93.9021 32.9998C94.1359 33.4309 94.45 33.7743 94.8446 34.03C95.2464 34.2784 95.7031 34.4026 96.2145 34.4026ZM109.289 37.2192C108.164 37.2192 107.156 36.9744 106.264 36.4849C105.373 35.9881 104.672 35.3122 104.16 34.4574C103.656 33.5953 103.404 32.6162 103.404 31.5203C103.404 30.4316 103.656 29.4599 104.16 28.605C104.672 27.7429 105.373 27.0634 106.264 26.5666C107.156 26.0697 108.164 25.8213 109.289 25.8213C110.414 25.8213 111.415 26.0697 112.292 26.5666C113.176 27.0634 113.87 27.7429 114.374 28.605C114.886 29.4599 115.142 30.4316 115.142 31.5203C115.142 32.6162 114.886 33.5953 114.374 34.4574C113.87 35.3122 113.176 35.9881 112.292 36.4849C111.415 36.9744 110.414 37.2192 109.289 37.2192ZM109.278 34.4026C109.782 34.4026 110.232 34.2784 110.626 34.03C111.028 33.7743 111.342 33.4309 111.569 32.9998C111.803 32.5614 111.919 32.0609 111.919 31.4983C111.919 30.9577 111.803 30.4718 111.569 30.0407C111.342 29.6097 111.028 29.2699 110.626 29.0215C110.232 28.7658 109.782 28.6379 109.278 28.6379C108.767 28.6379 108.31 28.7658 107.908 29.0215C107.514 29.2699 107.2 29.6097 106.966 30.0407C106.739 30.4718 106.626 30.9577 106.626 31.4983C106.626 32.0609 106.739 32.5614 106.966 32.9998C107.2 33.4309 107.514 33.7743 107.908 34.03C108.31 34.2784 108.767 34.4026 109.278 34.4026ZM120.293 37H117.147V20.5608H120.293V30.6654L121.367 29.3722L124.523 26.0405H128.457L123.821 30.9175L129.005 37H124.939L121.662 32.8902L120.293 34.1396V37ZM132.195 23.4212C131.778 23.4212 131.427 23.2751 131.142 22.9828C130.857 22.6906 130.715 22.3362 130.715 21.9198C130.715 21.5033 130.857 21.1526 131.142 20.8676C131.427 20.5754 131.778 20.4293 132.195 20.4293C132.618 20.4293 132.973 20.5754 133.258 20.8676C133.55 21.1526 133.696 21.5033 133.696 21.9198C133.696 22.3362 133.55 22.6906 133.258 22.9828C132.973 23.2751 132.618 23.4212 132.195 23.4212ZM133.773 37H130.627V26.0405H133.773V37ZM147.417 37H144.272V31.3887C144.272 30.5339 144.067 29.8654 143.658 29.3832C143.256 28.8936 142.705 28.6489 142.003 28.6489C141.273 28.6489 140.692 28.9046 140.261 29.416C139.837 29.9202 139.625 30.607 139.625 31.4764V37H136.48V26.0405H139.022L139.132 27.794C139.526 27.1511 140.041 26.6616 140.677 26.3255C141.313 25.9894 142.062 25.8213 142.924 25.8213C144.319 25.8213 145.415 26.2524 146.212 27.1145C147.015 27.9694 147.417 29.153 147.417 30.6654V37ZM154.355 37.1315C153.368 37.1315 152.484 36.8868 151.702 36.3972C150.921 35.9004 150.307 35.2282 149.861 34.3807C149.416 33.5258 149.193 32.5578 149.193 31.4764C149.193 30.3878 149.416 29.4197 149.861 28.5722C150.307 27.7246 150.921 27.0561 151.702 26.5666C152.484 26.0697 153.372 25.8213 154.366 25.8213C155.14 25.8213 155.849 25.9748 156.492 26.2816C157.142 26.5812 157.701 26.9976 158.168 27.531L158.311 26.0405H161.073V36.6931C161.073 37.906 160.806 38.9617 160.273 39.8604C159.747 40.7664 159.001 41.4642 158.037 41.9537C157.073 42.4505 155.944 42.6989 154.65 42.6989C152.853 42.6989 151.224 42.1363 149.763 41.0112L151.034 38.4467C152.006 39.4038 153.138 39.8823 154.431 39.8823C155.125 39.8823 155.732 39.7435 156.251 39.4659C156.777 39.1882 157.186 38.801 157.478 38.3042C157.778 37.8073 157.927 37.2301 157.927 36.5726V35.6739C157.474 36.1269 156.945 36.4849 156.338 36.7479C155.732 37.0037 155.071 37.1315 154.355 37.1315ZM155.166 34.3259C155.677 34.3259 156.141 34.2163 156.557 33.9971C156.974 33.7706 157.306 33.4601 157.555 33.0655C157.803 32.6637 157.927 32.2107 157.927 31.7066V31.2353C157.927 30.7312 157.8 30.2818 157.544 29.8873C157.295 29.4928 156.963 29.1859 156.546 28.9667C156.137 28.7402 155.677 28.627 155.166 28.627C154.64 28.627 154.168 28.7512 153.752 28.9996C153.335 29.248 153.007 29.5877 152.765 30.0188C152.524 30.4426 152.404 30.9284 152.404 31.4764C152.404 32.0244 152.524 32.5139 152.765 32.945C153.007 33.3761 153.335 33.7158 153.752 33.9642C154.168 34.2053 154.64 34.3259 155.166 34.3259ZM162.87 35.2246L164.47 32.6491C164.974 33.0582 165.46 33.3943 165.928 33.6574C166.403 33.9131 166.87 34.103 167.331 34.2273C167.791 34.3442 168.262 34.4026 168.744 34.4026C169.314 34.4026 169.807 34.3222 170.224 34.1615C170.64 34.0008 170.962 33.7706 171.188 33.471C171.422 33.1715 171.539 32.8244 171.539 32.4299C171.539 31.9696 171.393 31.5824 171.101 31.2682C170.808 30.954 170.425 30.68 169.95 30.4462C169.482 30.2051 168.975 29.975 168.427 29.7558C167.893 29.5366 167.356 29.2991 166.816 29.0434C166.282 28.7804 165.789 28.4699 165.336 28.1119C164.89 27.7538 164.529 27.3191 164.251 26.8077C163.981 26.2889 163.845 25.6606 163.845 24.9226C163.845 23.9582 164.087 23.1253 164.569 22.4239C165.058 21.7225 165.727 21.1818 166.574 20.8019C167.422 20.422 168.39 20.232 169.479 20.232C170.246 20.232 171.042 20.3343 171.868 20.5389C172.701 20.7434 173.53 21.054 174.356 21.4704L173.03 24.1993C172.511 23.8852 171.952 23.6367 171.353 23.4541C170.754 23.2714 170.191 23.1801 169.665 23.1801C169.19 23.1801 168.774 23.2532 168.416 23.3993C168.065 23.5454 167.791 23.75 167.594 24.013C167.396 24.2687 167.298 24.5719 167.298 24.9226C167.298 25.3391 167.44 25.7008 167.725 26.0076C168.01 26.3072 168.379 26.5739 168.832 26.8077C169.292 27.0415 169.786 27.2753 170.312 27.5091C170.852 27.7429 171.397 27.9986 171.945 28.2763C172.5 28.5539 173.004 28.8827 173.457 29.2626C173.917 29.6352 174.286 30.0846 174.564 30.6106C174.849 31.1294 174.991 31.7541 174.991 32.4847C174.991 33.4491 174.736 34.2967 174.224 35.0273C173.713 35.7506 173 36.3169 172.087 36.726C171.174 37.1279 170.111 37.3288 168.898 37.3288C167.787 37.3288 166.724 37.1498 165.709 36.7918C164.693 36.4338 163.747 35.9114 162.87 35.2246ZM182.323 37.2192C181.198 37.2192 180.19 36.9744 179.298 36.4849C178.407 35.9881 177.706 35.3122 177.194 34.4574C176.69 33.5953 176.438 32.6162 176.438 31.5203C176.438 30.4316 176.69 29.4599 177.194 28.605C177.706 27.7429 178.407 27.0634 179.298 26.5666C180.19 26.0697 181.198 25.8213 182.323 25.8213C183.448 25.8213 184.449 26.0697 185.326 26.5666C186.21 27.0634 186.904 27.7429 187.408 28.605C187.92 29.4599 188.176 30.4316 188.176 31.5203C188.176 32.6162 187.92 33.5953 187.408 34.4574C186.904 35.3122 186.21 35.9881 185.326 36.4849C184.449 36.9744 183.448 37.2192 182.323 37.2192ZM182.312 34.4026C182.816 34.4026 183.266 34.2784 183.66 34.03C184.062 33.7743 184.376 33.4309 184.603 32.9998C184.837 32.5614 184.953 32.0609 184.953 31.4983C184.953 30.9577 184.837 30.4718 184.603 30.0407C184.376 29.6097 184.062 29.2699 183.66 29.0215C183.266 28.7658 182.816 28.6379 182.312 28.6379C181.801 28.6379 181.344 28.7658 180.942 29.0215C180.548 29.2699 180.234 29.6097 180 30.0407C179.773 30.4718 179.66 30.9577 179.66 31.4983C179.66 32.0609 179.773 32.5614 180 32.9998C180.234 33.4309 180.548 33.7743 180.942 34.03C181.344 34.2784 181.801 34.4026 182.312 34.4026ZM200.9 37H198.346L198.236 35.2465C197.849 35.8894 197.334 36.379 196.691 36.7151C196.055 37.0511 195.31 37.2192 194.455 37.2192C193.053 37.2192 191.953 36.7881 191.157 35.926C190.36 35.0638 189.962 33.8802 189.962 32.3751V26.0405H193.107V31.6518C193.107 32.5066 193.308 33.1788 193.71 33.6683C194.119 34.1505 194.675 34.3916 195.376 34.3916C196.107 34.3916 196.684 34.1396 197.108 33.6354C197.539 33.124 197.754 32.4335 197.754 31.5641V26.0405H200.9V37ZM214.862 42.4797H211.717V35.7506C211.256 36.2109 210.716 36.5726 210.095 36.8356C209.481 37.0913 208.816 37.2192 208.1 37.2192C207.106 37.2192 206.215 36.9744 205.426 36.4849C204.644 35.9881 204.027 35.3086 203.574 34.4464C203.121 33.5843 202.894 32.6089 202.894 31.5203C202.894 30.4243 203.121 29.4489 203.574 28.5941C204.027 27.7319 204.644 27.0561 205.426 26.5666C206.215 26.0697 207.106 25.8213 208.1 25.8213C208.874 25.8213 209.59 25.9748 210.248 26.2816C210.906 26.5812 211.468 26.9976 211.936 27.531L212.089 26.0405H214.862V42.4797ZM208.911 34.3916C209.43 34.3916 209.89 34.282 210.292 34.0629C210.701 33.8437 211.03 33.5405 211.278 33.1532C211.527 32.7587 211.673 32.3093 211.717 31.8052V31.2572C211.673 30.7458 211.527 30.2928 211.278 29.8983C211.037 29.5037 210.712 29.1968 210.303 28.9777C209.901 28.7585 209.441 28.6489 208.922 28.6489C208.381 28.6489 207.899 28.7731 207.475 29.0215C207.059 29.2626 206.73 29.5987 206.489 30.0298C206.248 30.4608 206.127 30.9577 206.127 31.5203C206.127 32.0755 206.244 32.5724 206.478 33.0107C206.719 33.4418 207.051 33.7816 207.475 34.03C207.899 34.2711 208.378 34.3916 208.911 34.3916Z" fill="white"/>
<path d="M78.871 51H78.3713V49.5769H75.4721V49.1757L78.3751 45.3226H78.871V49.134H79.5636V49.5769H78.871V51ZM76.0436 49.134H78.3713V46.0418L76.0436 49.134ZM80.3244 50.4588L80.5477 50.0878C80.7546 50.2796 80.9741 50.4247 81.2062 50.5231C81.4409 50.6215 81.6806 50.6707 81.9254 50.6707C82.1853 50.6707 82.4136 50.619 82.6104 50.5155C82.8073 50.4096 82.9624 50.2645 83.076 50.0803C83.1895 49.8935 83.2463 49.6803 83.2463 49.4406C83.2463 49.0571 83.1 48.7593 82.8073 48.5474C82.5171 48.3329 82.1121 48.2257 81.5923 48.2257H81.4106V47.8472H81.5923C81.8749 47.8472 82.126 47.7967 82.3455 47.6958C82.565 47.5948 82.7379 47.4573 82.864 47.2832C82.9902 47.1066 83.0533 46.906 83.0533 46.6814C83.0533 46.4821 83.0041 46.3055 82.9057 46.1515C82.8073 45.9951 82.6723 45.8727 82.5007 45.7844C82.3291 45.6961 82.1335 45.6519 81.914 45.6519C81.7046 45.6519 81.4977 45.6961 81.2933 45.7844C81.0889 45.8702 80.8971 45.9951 80.718 46.1591L80.4682 45.8147C80.67 45.6204 80.8984 45.4715 81.1533 45.3681C81.4081 45.2621 81.6743 45.2091 81.9519 45.2091C82.2572 45.2091 82.5284 45.2696 82.7656 45.3908C83.0028 45.5094 83.1895 45.6734 83.3258 45.8828C83.4646 46.0897 83.534 46.3269 83.534 46.5944C83.534 46.9249 83.4305 47.2176 83.2236 47.4725C83.0167 47.7273 82.753 47.909 82.4326 48.0175C82.8438 48.0982 83.1681 48.2673 83.4053 48.5247C83.645 48.782 83.7648 49.1038 83.7648 49.4898C83.7648 49.8027 83.6854 50.0815 83.5264 50.3263C83.37 50.571 83.1555 50.7641 82.883 50.9054C82.6104 51.0442 82.2976 51.1135 81.9443 51.1135C81.6415 51.1135 81.3513 51.058 81.0738 50.947C80.7987 50.8335 80.5489 50.6707 80.3244 50.4588ZM87.3075 51H86.8041V45.3226H87.3037V48.9448C87.3744 48.8439 87.4425 48.7492 87.5081 48.6609C87.5737 48.5726 87.6343 48.4931 87.6898 48.4225L90.1538 45.3226H90.7556L88.6928 47.9153L91.1908 51H90.5398L88.3673 48.3203L87.3075 49.6564V51ZM91.9138 51V45.3226H92.3793V47.8926C92.6518 47.3905 93.1136 47.1394 93.7646 47.1394C94.2667 47.1394 94.6578 47.2895 94.9379 47.5898C95.2205 47.8901 95.3618 48.3102 95.3618 48.8502V51H94.8963V48.9448C94.8963 48.5083 94.7865 48.1689 94.567 47.9267C94.3474 47.6819 94.0421 47.5595 93.651 47.5595C93.2574 47.5595 92.947 47.6832 92.7199 47.9304C92.4928 48.1777 92.3793 48.5158 92.3793 48.9448V51H91.9138ZM99.8886 51H99.476L99.4609 50.2884C99.3271 50.5433 99.1429 50.7388 98.9083 50.8751C98.6761 51.0088 98.3973 51.0757 98.0718 51.0757C97.5722 51.0757 97.1786 50.9243 96.8909 50.6215C96.6058 50.3162 96.4632 49.8973 96.4632 49.3649V47.2151H96.9288V49.3346C96.9288 49.7384 97.0385 50.0588 97.258 50.296C97.4776 50.5307 97.7741 50.648 98.1475 50.648C98.5336 50.648 98.8427 50.5244 99.0748 50.2771C99.3069 50.0273 99.423 49.6955 99.423 49.2817V47.2151H99.8886V51ZM101.63 51H101.141V45.1712H101.63V51ZM104.922 51H104.396L106.751 45.3226H107.303L109.657 51H109.128L108.458 49.3611H105.596L104.922 51ZM105.774 48.9145H108.28L107.027 45.8601L105.774 48.9145ZM113.628 47.2151L112.019 51H111.565L109.96 47.2151H110.464L111.796 50.4966L113.132 47.2151H113.628ZM117.75 50.5269C117.285 50.8928 116.771 51.0757 116.205 51.0757C115.814 51.0757 115.463 50.9886 115.153 50.8145C114.845 50.6379 114.603 50.3982 114.426 50.0954C114.25 49.7926 114.161 49.4494 114.161 49.0659C114.161 48.695 114.243 48.3644 114.407 48.0743C114.574 47.7841 114.801 47.5557 115.089 47.3892C115.376 47.2227 115.703 47.1394 116.069 47.1394C116.44 47.1394 116.767 47.2277 117.049 47.4043C117.332 47.5784 117.553 47.8207 117.712 48.131C117.871 48.4389 117.95 48.7959 117.95 49.2022V49.3195H114.665C114.695 49.5844 114.782 49.8166 114.926 50.0159C115.072 50.2153 115.259 50.3704 115.486 50.4815C115.713 50.5925 115.968 50.648 116.251 50.648C116.715 50.648 117.141 50.4941 117.53 50.1862L117.75 50.5269ZM114.65 48.9183H117.515C117.492 48.6483 117.418 48.4124 117.292 48.2105C117.165 48.0087 116.999 47.851 116.792 47.7374C116.588 47.6239 116.354 47.5671 116.092 47.5671C115.827 47.5671 115.588 47.6239 115.376 47.7374C115.167 47.851 114.998 48.0099 114.869 48.2143C114.743 48.4162 114.67 48.6508 114.65 48.9183ZM119.097 51.9084H118.749L119.082 50.3187H119.521L119.097 51.9084ZM125.251 51.1135C124.825 51.1135 124.432 51.0404 124.074 50.894C123.716 50.7477 123.404 50.542 123.139 50.2771C122.877 50.0096 122.672 49.6967 122.526 49.3384C122.382 48.9776 122.31 48.5852 122.31 48.1613C122.31 47.7349 122.382 47.3425 122.526 46.9842C122.672 46.6234 122.877 46.3105 123.139 46.0456C123.404 45.7806 123.716 45.575 124.074 45.4286C124.432 45.2823 124.825 45.2091 125.251 45.2091C125.675 45.2091 126.065 45.2823 126.421 45.4286C126.779 45.575 127.089 45.7806 127.352 46.0456C127.617 46.3105 127.821 46.6234 127.965 46.9842C128.111 47.3425 128.185 47.7349 128.185 48.1613C128.185 48.5852 128.111 48.9776 127.965 49.3384C127.821 49.6967 127.617 50.0096 127.352 50.2771C127.089 50.542 126.779 50.7477 126.421 50.894C126.065 51.0404 125.675 51.1135 125.251 51.1135ZM125.247 50.6669C125.598 50.6669 125.921 50.6051 126.216 50.4815C126.512 50.3553 126.768 50.1799 126.985 49.9554C127.204 49.7283 127.373 49.4621 127.492 49.1567C127.613 48.8514 127.674 48.5196 127.674 48.1613C127.674 47.803 127.613 47.4712 127.492 47.1659C127.373 46.8606 127.204 46.5956 126.985 46.3711C126.768 46.144 126.512 45.9686 126.216 45.845C125.921 45.7188 125.598 45.6557 125.247 45.6557C124.899 45.6557 124.578 45.7188 124.282 45.845C123.987 45.9686 123.73 46.144 123.51 46.3711C123.293 46.5956 123.124 46.8606 123.003 47.1659C122.882 47.4687 122.821 47.8005 122.821 48.1613C122.821 48.5221 122.882 48.8552 123.003 49.1605C123.124 49.4633 123.293 49.7283 123.51 49.9554C123.73 50.1799 123.987 50.3553 124.282 50.4815C124.578 50.6051 124.899 50.6669 125.247 50.6669ZM129.623 51H129.157V47.2151H129.57L129.589 48.0516C129.715 47.7589 129.902 47.5343 130.149 47.3778C130.399 47.2189 130.69 47.1394 131.023 47.1394C131.084 47.1394 131.146 47.1432 131.209 47.1507C131.274 47.1558 131.339 47.1646 131.402 47.1772L131.345 47.5974C131.221 47.5721 131.098 47.5595 130.974 47.5595C130.712 47.5595 130.478 47.6239 130.274 47.7525C130.069 47.8812 129.909 48.0591 129.793 48.2862C129.68 48.5108 129.623 48.7707 129.623 49.0659V51ZM134.96 51H134.562L134.524 50.3679C134.398 50.5849 134.221 50.7578 133.994 50.8865C133.767 51.0126 133.509 51.0757 133.218 51.0757C132.951 51.0757 132.711 51.024 132.499 50.9205C132.29 50.8145 132.125 50.6707 132.004 50.489C131.882 50.3048 131.822 50.0967 131.822 49.8645C131.822 49.6223 131.887 49.4078 132.019 49.2211C132.15 49.0344 132.33 48.888 132.56 48.782C132.79 48.6735 133.051 48.6193 133.343 48.6193C133.548 48.6193 133.751 48.6458 133.953 48.6988C134.155 48.7518 134.335 48.8262 134.494 48.9221V48.6647C134.494 48.4351 134.444 48.2383 134.343 48.0743C134.242 47.9103 134.103 47.7854 133.926 47.6996C133.752 47.6112 133.554 47.5671 133.332 47.5671C133.14 47.5671 132.948 47.6024 132.757 47.6731C132.565 47.7412 132.386 47.8434 132.219 47.9796L132.053 47.5784C132.26 47.4346 132.48 47.3261 132.715 47.2529C132.952 47.1772 133.188 47.1394 133.423 47.1394C133.738 47.1394 134.01 47.2037 134.237 47.3324C134.466 47.4611 134.644 47.644 134.77 47.8812C134.896 48.1159 134.96 48.396 134.96 48.7215V51ZM133.294 50.648C133.514 50.648 133.712 50.6013 133.888 50.508C134.068 50.4121 134.211 50.2783 134.32 50.1068C134.428 49.9327 134.486 49.7333 134.494 49.5087V49.3801C134.338 49.2615 134.167 49.1719 133.983 49.1113C133.801 49.0482 133.612 49.0167 133.415 49.0167C133.095 49.0167 132.829 49.0937 132.617 49.2476C132.407 49.4015 132.303 49.5996 132.303 49.8418C132.303 49.9932 132.345 50.1307 132.431 50.2544C132.52 50.3755 132.638 50.4714 132.787 50.542C132.938 50.6127 133.107 50.648 133.294 50.648ZM139.592 51H139.127V48.8805C139.127 48.4767 139.016 48.1575 138.794 47.9229C138.572 47.6857 138.273 47.5671 137.897 47.5671C137.508 47.5671 137.196 47.692 136.962 47.9418C136.727 48.1891 136.61 48.5196 136.61 48.9334V51H136.144V47.2151H136.557L136.572 47.9267C136.703 47.6718 136.887 47.4775 137.124 47.3438C137.362 47.2075 137.644 47.1394 137.972 47.1394C138.477 47.1394 138.873 47.2908 139.161 47.5936C139.448 47.8964 139.592 48.3152 139.592 48.8502V51ZM142.355 50.9735C141.997 50.9735 141.675 50.8902 141.39 50.7237C141.105 50.5546 140.879 50.3263 140.713 50.0386C140.549 49.7485 140.467 49.4217 140.467 49.0583C140.467 48.6925 140.549 48.3657 140.713 48.0781C140.879 47.7879 141.105 47.5595 141.39 47.393C141.675 47.2239 141.998 47.1394 142.359 47.1394C142.687 47.1394 142.982 47.2113 143.245 47.3551C143.51 47.499 143.722 47.692 143.881 47.9342L143.903 47.2151H144.32V50.9054C144.32 51.3318 144.239 51.6989 144.077 52.0068C143.916 52.3146 143.685 52.5518 143.385 52.7183C143.084 52.8849 142.726 52.9682 142.31 52.9682C141.717 52.9682 141.208 52.7676 140.784 52.3664L141.004 51.9954C141.352 52.3638 141.785 52.548 142.302 52.548C142.623 52.548 142.898 52.4799 143.127 52.3436C143.359 52.2099 143.539 52.0207 143.665 51.7759C143.791 51.5311 143.854 51.2397 143.854 50.9016V50.209C143.693 50.4436 143.482 50.6303 143.222 50.7691C142.962 50.9054 142.673 50.9735 142.355 50.9735ZM142.393 50.561C142.661 50.561 142.903 50.5004 143.12 50.3793C143.337 50.2582 143.511 50.0929 143.642 49.8835C143.776 49.6715 143.846 49.4318 143.854 49.1643V48.9524C143.846 48.6824 143.776 48.4427 143.642 48.2332C143.511 48.0213 143.337 47.8547 143.12 47.7336C142.905 47.6125 142.664 47.5519 142.397 47.5519C142.119 47.5519 141.87 47.6188 141.647 47.7525C141.428 47.8838 141.254 48.0629 141.125 48.29C140.999 48.5146 140.936 48.7707 140.936 49.0583C140.936 49.3435 140.999 49.5996 141.125 49.8267C141.254 50.0538 141.428 50.2329 141.647 50.3641C141.867 50.4953 142.116 50.561 142.393 50.561ZM148.816 50.5269C148.352 50.8928 147.837 51.0757 147.272 51.0757C146.881 51.0757 146.53 50.9886 146.22 50.8145C145.912 50.6379 145.67 50.3982 145.493 50.0954C145.316 49.7926 145.228 49.4494 145.228 49.0659C145.228 48.695 145.31 48.3644 145.474 48.0743C145.641 47.7841 145.868 47.5557 146.155 47.3892C146.443 47.2227 146.77 47.1394 147.136 47.1394C147.506 47.1394 147.833 47.2277 148.116 47.4043C148.398 47.5784 148.619 47.8207 148.778 48.131C148.937 48.4389 149.017 48.7959 149.017 49.2022V49.3195H145.731C145.762 49.5844 145.849 49.8166 145.993 50.0159C146.139 50.2153 146.326 50.3704 146.553 50.4815C146.78 50.5925 147.035 50.648 147.317 50.648C147.782 50.648 148.208 50.4941 148.597 50.1862L148.816 50.5269ZM145.716 48.9183H148.581C148.559 48.6483 148.484 48.4124 148.358 48.2105C148.232 48.0087 148.065 47.851 147.858 47.7374C147.654 47.6239 147.421 47.5671 147.158 47.5671C146.893 47.5671 146.655 47.6239 146.443 47.7374C146.234 47.851 146.064 48.0099 145.936 48.2143C145.81 48.4162 145.736 48.6508 145.716 48.9183ZM153.816 51H153.316V45.7693H151.443V45.3226H155.693V45.7693H153.816V51ZM157.552 51.0757C157.178 51.0757 156.843 50.9899 156.545 50.8183C156.247 50.6467 156.012 50.4133 155.841 50.1181C155.669 49.8204 155.583 49.4835 155.583 49.1075C155.583 48.7341 155.669 48.3998 155.841 48.1045C156.012 47.8068 156.247 47.5721 156.545 47.4006C156.843 47.2264 157.178 47.1394 157.552 47.1394C157.923 47.1394 158.256 47.2264 158.551 47.4006C158.846 47.5721 159.079 47.8068 159.251 48.1045C159.423 48.3998 159.508 48.7341 159.508 49.1075C159.508 49.481 159.423 49.8166 159.251 50.1143C159.079 50.4121 158.846 50.6467 158.551 50.8183C158.256 50.9899 157.923 51.0757 157.552 51.0757ZM157.548 50.6556C157.83 50.6556 158.083 50.5874 158.305 50.4512C158.529 50.3149 158.706 50.1307 158.835 49.8986C158.966 49.6639 159.032 49.399 159.032 49.1038C159.032 48.8136 158.966 48.5524 158.835 48.3203C158.706 48.0856 158.529 47.9002 158.305 47.7639C158.083 47.6276 157.83 47.5595 157.548 47.5595C157.265 47.5595 157.012 47.6276 156.787 47.7639C156.563 47.9002 156.385 48.0856 156.253 48.3203C156.125 48.5524 156.06 48.8136 156.06 49.1038C156.06 49.399 156.125 49.6639 156.253 49.8986C156.385 50.1307 156.563 50.3149 156.787 50.4512C157.012 50.5874 157.265 50.6556 157.548 50.6556ZM164.304 51H163.77L162.805 47.8964L161.84 51H161.31L160.08 47.2151H160.572L161.571 50.4096L162.586 47.2151H163.025L164.039 50.4096L165.042 47.2151H165.534L164.304 51ZM169.856 51H169.391V48.8805C169.391 48.4767 169.28 48.1575 169.058 47.9229C168.836 47.6857 168.537 47.5671 168.161 47.5671C167.772 47.5671 167.461 47.692 167.226 47.9418C166.991 48.1891 166.874 48.5196 166.874 48.9334V51H166.408V47.2151H166.821L166.836 47.9267C166.967 47.6718 167.151 47.4775 167.389 47.3438C167.626 47.2075 167.908 47.1394 168.236 47.1394C168.741 47.1394 169.137 47.2908 169.425 47.5936C169.713 47.8964 169.856 48.3152 169.856 48.8502V51ZM171.23 51.9084H170.882L171.215 50.3187H171.654L171.23 51.9084ZM179.576 51H179.035L175.22 46.0872V51H174.72V45.3226H175.261L179.076 50.2354V45.3226H179.576V51ZM184.114 50.5269C183.65 50.8928 183.135 51.0757 182.57 51.0757C182.179 51.0757 181.828 50.9886 181.518 50.8145C181.21 50.6379 180.968 50.3982 180.791 50.0954C180.614 49.7926 180.526 49.4494 180.526 49.0659C180.526 48.695 180.608 48.3644 180.772 48.0743C180.939 47.7841 181.166 47.5557 181.453 47.3892C181.741 47.2227 182.068 47.1394 182.434 47.1394C182.805 47.1394 183.131 47.2277 183.414 47.4043C183.697 47.5784 183.917 47.8207 184.076 48.131C184.235 48.4389 184.315 48.7959 184.315 49.2022V49.3195H181.029C181.06 49.5844 181.147 49.8166 181.291 50.0159C181.437 50.2153 181.624 50.3704 181.851 50.4815C182.078 50.5925 182.333 50.648 182.615 50.648C183.08 50.648 183.506 50.4941 183.895 50.1862L184.114 50.5269ZM181.014 48.9183H183.879C183.857 48.6483 183.782 48.4124 183.656 48.2105C183.53 48.0087 183.363 47.851 183.157 47.7374C182.952 47.6239 182.719 47.5671 182.456 47.5671C182.191 47.5671 181.953 47.6239 181.741 47.7374C181.532 47.851 181.363 48.0099 181.234 48.2143C181.108 48.4162 181.034 48.6508 181.014 48.9183ZM188.516 47.2151L186.907 51H186.453L184.848 47.2151H185.352L186.684 50.4966L188.02 47.2151H188.516ZM192.301 51H191.903L191.866 50.3679C191.739 50.5849 191.563 50.7578 191.336 50.8865C191.109 51.0126 190.85 51.0757 190.56 51.0757C190.292 51.0757 190.053 51.024 189.841 50.9205C189.631 50.8145 189.466 50.6707 189.345 50.489C189.224 50.3048 189.163 50.0967 189.163 49.8645C189.163 49.6223 189.229 49.4078 189.36 49.2211C189.491 49.0344 189.672 48.888 189.901 48.782C190.131 48.6735 190.392 48.6193 190.685 48.6193C190.889 48.6193 191.092 48.6458 191.294 48.6988C191.496 48.7518 191.676 48.8262 191.835 48.9221V48.6647C191.835 48.4351 191.785 48.2383 191.684 48.0743C191.583 47.9103 191.444 47.7854 191.268 47.6996C191.094 47.6112 190.895 47.5671 190.673 47.5671C190.482 47.5671 190.29 47.6024 190.098 47.6731C189.906 47.7412 189.727 47.8434 189.561 47.9796L189.394 47.5784C189.601 47.4346 189.822 47.3261 190.056 47.2529C190.294 47.1772 190.53 47.1394 190.764 47.1394C191.08 47.1394 191.351 47.2037 191.578 47.3324C191.808 47.4611 191.985 47.644 192.112 47.8812C192.238 48.1159 192.301 48.396 192.301 48.7215V51ZM190.636 50.648C190.855 50.648 191.053 50.6013 191.23 50.508C191.409 50.4121 191.553 50.2783 191.661 50.1068C191.77 49.9327 191.828 49.7333 191.835 49.5087V49.3801C191.679 49.2615 191.509 49.1719 191.324 49.1113C191.143 49.0482 190.953 49.0167 190.757 49.0167C190.436 49.0167 190.17 49.0937 189.958 49.2476C189.749 49.4015 189.644 49.5996 189.644 49.8418C189.644 49.9932 189.687 50.1307 189.773 50.2544C189.861 50.3755 189.979 50.4714 190.128 50.542C190.28 50.6127 190.449 50.648 190.636 50.648ZM197.13 51H196.71L196.688 50.2733C196.526 50.5231 196.309 50.7199 196.037 50.8637C195.767 51.005 195.466 51.0757 195.136 51.0757C194.762 51.0757 194.428 50.9899 194.133 50.8183C193.84 50.6467 193.608 50.4121 193.436 50.1143C193.267 49.8166 193.183 49.481 193.183 49.1075C193.183 48.7316 193.267 48.396 193.436 48.1008C193.608 47.803 193.84 47.5683 194.133 47.3968C194.428 47.2252 194.762 47.1394 195.136 47.1394C195.459 47.1394 195.754 47.2088 196.021 47.3476C196.289 47.4838 196.503 47.6731 196.665 47.9153V45.3226H197.13V51ZM195.166 50.6556C195.441 50.6556 195.692 50.5925 195.919 50.4663C196.146 50.3376 196.327 50.1635 196.461 49.944C196.597 49.722 196.665 49.4709 196.665 49.1908V49.0205C196.665 48.7429 196.598 48.4944 196.464 48.2749C196.331 48.0528 196.15 47.8787 195.923 47.7525C195.698 47.6239 195.446 47.5595 195.166 47.5595C194.881 47.5595 194.624 47.6276 194.394 47.7639C194.167 47.8976 193.988 48.0818 193.856 48.3165C193.725 48.5486 193.66 48.8111 193.66 49.1038C193.66 49.399 193.725 49.6639 193.856 49.8986C193.988 50.1307 194.167 50.3149 194.394 50.4512C194.621 50.5874 194.878 50.6556 195.166 50.6556ZM201.332 51H200.934L200.896 50.3679C200.77 50.5849 200.594 50.7578 200.367 50.8865C200.139 51.0126 199.881 51.0757 199.591 51.0757C199.323 51.0757 199.083 51.024 198.871 50.9205C198.662 50.8145 198.497 50.6707 198.376 50.489C198.255 50.3048 198.194 50.0967 198.194 49.8645C198.194 49.6223 198.26 49.4078 198.391 49.2211C198.522 49.0344 198.702 48.888 198.932 48.782C199.162 48.6735 199.423 48.6193 199.716 48.6193C199.92 48.6193 200.123 48.6458 200.325 48.6988C200.527 48.7518 200.707 48.8262 200.866 48.9221V48.6647C200.866 48.4351 200.816 48.2383 200.715 48.0743C200.614 47.9103 200.475 47.7854 200.298 47.6996C200.124 47.6112 199.926 47.5671 199.704 47.5671C199.512 47.5671 199.321 47.6024 199.129 47.6731C198.937 47.7412 198.758 47.8434 198.591 47.9796L198.425 47.5784C198.632 47.4346 198.853 47.3261 199.087 47.2529C199.324 47.1772 199.56 47.1394 199.795 47.1394C200.11 47.1394 200.382 47.2037 200.609 47.3324C200.838 47.4611 201.016 47.644 201.142 47.8812C201.269 48.1159 201.332 48.396 201.332 48.7215V51ZM199.666 50.648C199.886 50.648 200.084 50.6013 200.261 50.508C200.44 50.4121 200.584 50.2783 200.692 50.1068C200.801 49.9327 200.859 49.7333 200.866 49.5087V49.3801C200.71 49.2615 200.539 49.1719 200.355 49.1113C200.173 49.0482 199.984 49.0167 199.787 49.0167C199.467 49.0167 199.201 49.0937 198.989 49.2476C198.779 49.4015 198.675 49.5996 198.675 49.8418C198.675 49.9932 198.718 50.1307 198.803 50.2544C198.892 50.3755 199.01 50.4714 199.159 50.542C199.311 50.6127 199.48 50.648 199.666 50.648ZM78.8747 59.3006H77.5349V60.6631H77.1148V59.3006H75.7749V58.9221H77.1148V57.5595H77.5349V58.9221H78.8747V59.3006ZM81.5734 61H81.0738V55.8185L79.9837 56.2121L79.8248 55.8071L81.1533 55.3226H81.5734V61ZM87.9472 61H87.4476V59.5769H84.5483V59.1757L87.4513 55.3226H87.9472V59.134H88.6398V59.5769H87.9472V61ZM85.1198 59.134H87.4476V56.0418L85.1198 59.134ZM89.2757 60.3793L89.5633 59.9894C89.692 60.2039 89.8686 60.3704 90.0932 60.489C90.3203 60.6076 90.5726 60.6669 90.8502 60.6669C91.1353 60.6669 91.3851 60.6076 91.5996 60.489C91.8141 60.3704 91.9806 60.2052 92.0992 59.9932C92.2203 59.7787 92.2809 59.5302 92.2809 59.2476C92.2809 58.965 92.2216 58.7177 92.103 58.5057C91.9844 58.2938 91.8166 58.1285 91.5996 58.0099C91.3851 57.8913 91.1366 57.832 90.854 57.832C90.6748 57.832 90.5058 57.8573 90.3468 57.9077C90.1904 57.9582 90.0478 58.0326 89.9191 58.131L89.6542 57.9569L89.904 55.3226H92.5648V55.7693H90.3657L90.184 57.5898C90.4162 57.4914 90.6723 57.4422 90.9524 57.4422C91.3157 57.4422 91.6349 57.5191 91.91 57.6731C92.185 57.827 92.4007 58.0402 92.5572 58.3127C92.7136 58.5852 92.7919 58.9006 92.7919 59.2589C92.7919 59.6248 92.7111 59.9478 92.5496 60.2279C92.3881 60.5054 92.1636 60.7224 91.8759 60.8789C91.5882 61.0353 91.2552 61.1135 90.8767 61.1135C90.5436 61.1135 90.2383 61.0505 89.9607 60.9243C89.6832 60.7956 89.4548 60.6139 89.2757 60.3793ZM95.3694 61.1135C95.0085 61.1135 94.6931 61.0479 94.4231 60.9167C94.1532 60.783 93.9437 60.595 93.7949 60.3528C93.646 60.1105 93.5715 59.8292 93.5715 59.5087C93.5715 59.1353 93.6725 58.8161 93.8743 58.5512C94.0762 58.2862 94.35 58.1008 94.6957 57.9948C94.408 57.8939 94.1822 57.7273 94.0182 57.4952C93.8541 57.2605 93.7721 56.9817 93.7721 56.6587C93.7721 56.3635 93.8377 56.1086 93.969 55.8942C94.1002 55.6772 94.2856 55.5094 94.5253 55.3908C94.7651 55.2696 95.0464 55.2091 95.3694 55.2091C95.6898 55.2091 95.9699 55.2696 96.2096 55.3908C96.4493 55.5094 96.6348 55.6772 96.766 55.8942C96.8972 56.1086 96.9628 56.3635 96.9628 56.6587C96.9628 56.9817 96.8808 57.2605 96.7168 57.4952C96.5528 57.7273 96.327 57.8939 96.0393 57.9948C96.3875 58.1008 96.6626 58.2862 96.8644 58.5512C97.0663 58.8161 97.1672 59.1353 97.1672 59.5087C97.1672 59.8292 97.0928 60.1105 96.9439 60.3528C96.795 60.5925 96.5856 60.7792 96.3156 60.9129C96.0456 61.0467 95.7302 61.1135 95.3694 61.1135ZM95.3694 57.8055C95.6974 57.8055 95.9623 57.7071 96.1642 57.5103C96.3686 57.311 96.4708 57.0523 96.4708 56.7344C96.4708 56.4114 96.3686 56.1515 96.1642 55.9547C95.9623 55.7554 95.6974 55.6557 95.3694 55.6557C95.0413 55.6557 94.7751 55.7554 94.5708 55.9547C94.3664 56.1515 94.2642 56.4114 94.2642 56.7344C94.2642 57.0523 94.3664 57.311 94.5708 57.5103C94.7751 57.7071 95.0413 57.8055 95.3694 57.8055ZM95.3694 60.6669C95.6267 60.6669 95.8526 60.6152 96.0469 60.5117C96.2437 60.4083 96.3963 60.2645 96.5048 60.0803C96.6133 59.8935 96.6676 59.6791 96.6676 59.4368C96.6676 59.1896 96.6133 58.9738 96.5048 58.7896C96.3963 58.6029 96.2437 58.4578 96.0469 58.3543C95.8526 58.2509 95.6267 58.1992 95.3694 58.1992C95.112 58.1992 94.8849 58.2509 94.6881 58.3543C94.4938 58.4578 94.3424 58.6029 94.2339 58.7896C94.1254 58.9738 94.0712 59.1896 94.0712 59.4368C94.0712 59.6816 94.1254 59.8961 94.2339 60.0803C94.3449 60.2645 94.4976 60.4083 94.6919 60.5117C94.8862 60.6152 95.112 60.6669 95.3694 60.6669ZM101.667 61.1135C101.304 61.1135 100.989 61.0303 100.721 60.8637C100.454 60.6947 100.247 60.4575 100.101 60.1522C99.9542 59.8443 99.881 59.4823 99.881 59.0659C99.881 58.7101 99.9352 58.3556 100.044 58.0024C100.152 57.6466 100.306 57.3047 100.505 56.9766C100.707 56.6461 100.948 56.3408 101.228 56.0607C101.511 55.7781 101.824 55.5321 102.167 55.3226L102.406 55.6557C102.067 55.8702 101.761 56.1238 101.486 56.4165C101.213 56.7067 100.981 57.0208 100.789 57.3589C100.6 57.697 100.461 58.0415 100.373 58.3922C100.522 58.155 100.717 57.9695 100.96 57.8358C101.202 57.7021 101.476 57.6352 101.781 57.6352C102.109 57.6352 102.399 57.7084 102.652 57.8547C102.906 58.0011 103.106 58.203 103.25 58.4603C103.393 58.7152 103.465 59.0079 103.465 59.3384C103.465 59.6816 103.388 59.9869 103.234 60.2544C103.08 60.5218 102.867 60.7325 102.595 60.8865C102.325 61.0378 102.016 61.1135 101.667 61.1135ZM101.694 60.6707C101.936 60.6707 102.152 60.6127 102.341 60.4966C102.53 60.378 102.679 60.2178 102.788 60.0159C102.899 59.8115 102.954 59.5819 102.954 59.3271C102.954 59.0747 102.9 58.8527 102.792 58.6609C102.686 58.4666 102.539 58.314 102.353 58.203C102.166 58.0919 101.95 58.0364 101.705 58.0364C101.458 58.0364 101.237 58.0932 101.043 58.2067C100.849 58.3178 100.696 58.4717 100.585 58.6685C100.474 58.8653 100.418 59.0886 100.418 59.3384C100.418 59.5908 100.474 59.8178 100.585 60.0197C100.699 60.219 100.851 60.378 101.043 60.4966C101.235 60.6127 101.452 60.6707 101.694 60.6707ZM105.464 61L105.225 60.6669C105.563 60.4524 105.87 60.2001 106.145 59.9099C106.42 59.6172 106.652 59.3018 106.841 58.9637C107.033 58.6256 107.172 58.2812 107.258 57.9304C107.111 58.1676 106.916 58.3543 106.671 58.4906C106.429 58.6243 106.155 58.6912 105.85 58.6912C105.522 58.6912 105.23 58.618 104.975 58.4717C104.723 58.3253 104.525 58.1247 104.381 57.8699C104.237 57.6125 104.166 57.3173 104.166 56.9842C104.166 56.641 104.242 56.3357 104.396 56.0683C104.55 55.8008 104.762 55.5914 105.032 55.44C105.305 55.286 105.616 55.2091 105.967 55.2091C106.33 55.2091 106.645 55.2936 106.91 55.4627C107.177 55.6292 107.384 55.8664 107.53 56.1742C107.677 56.4796 107.75 56.8404 107.75 57.2567C107.75 57.6125 107.696 57.9683 107.587 58.3241C107.479 58.6773 107.323 59.0192 107.122 59.3498C106.922 59.6778 106.681 59.9831 106.399 60.2657C106.119 60.5458 105.807 60.7906 105.464 61ZM105.925 58.2862C106.173 58.2862 106.392 58.2294 106.584 58.1159C106.778 58.0024 106.931 57.8472 107.042 57.6504C107.156 57.4535 107.212 57.2302 107.212 56.9804C107.212 56.7281 107.157 56.5023 107.046 56.3029C106.935 56.1036 106.782 55.9459 106.588 55.8298C106.396 55.7112 106.179 55.6519 105.937 55.6519C105.697 55.6519 105.481 55.7112 105.29 55.8298C105.098 55.9459 104.946 56.1049 104.835 56.3067C104.727 56.5086 104.673 56.7382 104.673 56.9956C104.673 57.2454 104.726 57.4674 104.832 57.6617C104.94 57.856 105.088 58.0087 105.274 58.1197C105.464 58.2307 105.681 58.2862 105.925 58.2862ZM109.824 61L109.585 60.6669C109.924 60.4524 110.23 60.2001 110.505 59.9099C110.78 59.6172 111.012 59.3018 111.202 58.9637C111.393 58.6256 111.532 58.2812 111.618 57.9304C111.472 58.1676 111.276 58.3543 111.031 58.4906C110.789 58.6243 110.515 58.6912 110.21 58.6912C109.882 58.6912 109.591 58.618 109.336 58.4717C109.083 58.3253 108.885 58.1247 108.741 57.8699C108.598 57.6125 108.526 57.3173 108.526 56.9842C108.526 56.641 108.603 56.3357 108.757 56.0683C108.911 55.8008 109.122 55.5914 109.392 55.44C109.665 55.286 109.977 55.2091 110.327 55.2091C110.691 55.2091 111.005 55.2936 111.27 55.4627C111.537 55.6292 111.744 55.8664 111.891 56.1742C112.037 56.4796 112.11 56.8404 112.11 57.2567C112.11 57.6125 112.056 57.9683 111.947 58.3241C111.839 58.6773 111.684 59.0192 111.482 59.3498C111.282 59.6778 111.041 59.9831 110.759 60.2657C110.479 60.5458 110.167 60.7906 109.824 61ZM110.286 58.2862C110.533 58.2862 110.753 58.2294 110.944 58.1159C111.139 58.0024 111.291 57.8472 111.402 57.6504C111.516 57.4535 111.573 57.2302 111.573 56.9804C111.573 56.7281 111.517 56.5023 111.406 56.3029C111.295 56.1036 111.142 55.9459 110.948 55.8298C110.756 55.7112 110.539 55.6519 110.297 55.6519C110.057 55.6519 109.842 55.7112 109.65 55.8298C109.458 55.9459 109.307 56.1049 109.196 56.3067C109.087 56.5086 109.033 56.7382 109.033 56.9956C109.033 57.2454 109.086 57.4674 109.192 57.6617C109.3 57.856 109.448 58.0087 109.635 58.1197C109.824 58.2307 110.041 58.2862 110.286 58.2862ZM118.113 61H117.613V59.5769H114.714V59.1757L117.617 55.3226H118.113V59.134H118.806V59.5769H118.113V61ZM115.286 59.134H117.613V56.0418L115.286 59.134ZM119.441 60.3793L119.729 59.9894C119.858 60.2039 120.034 60.3704 120.259 60.489C120.486 60.6076 120.738 60.6669 121.016 60.6669C121.301 60.6669 121.551 60.6076 121.765 60.489C121.98 60.3704 122.146 60.2052 122.265 59.9932C122.386 59.7787 122.447 59.5302 122.447 59.2476C122.447 58.965 122.387 58.7177 122.269 58.5057C122.15 58.2938 121.982 58.1285 121.765 58.0099C121.551 57.8913 121.302 57.832 121.02 57.832C120.841 57.832 120.671 57.8573 120.513 57.9077C120.356 57.9582 120.214 58.0326 120.085 58.131L119.82 57.9569L120.07 55.3226H122.73V55.7693H120.531L120.35 57.5898C120.582 57.4914 120.838 57.4422 121.118 57.4422C121.481 57.4422 121.801 57.5191 122.076 57.6731C122.351 57.827 122.566 58.0402 122.723 58.3127C122.879 58.5852 122.958 58.9006 122.958 59.2589C122.958 59.6248 122.877 59.9478 122.715 60.2279C122.554 60.5054 122.329 60.7224 122.042 60.8789C121.754 61.0353 121.421 61.1135 121.042 61.1135C120.709 61.1135 120.404 61.0505 120.126 60.9243C119.849 60.7956 119.621 60.6139 119.441 60.3793ZM127.079 61H123.737V60.6669C124.209 60.2683 124.614 59.8986 124.952 59.5579C125.29 59.2173 125.567 58.8981 125.781 58.6004C125.998 58.3026 126.157 58.0213 126.258 57.7563C126.361 57.4889 126.413 57.2315 126.413 56.9842C126.413 56.7218 126.363 56.4909 126.262 56.2916C126.161 56.0897 126.021 55.9333 125.842 55.8222C125.663 55.7087 125.456 55.6519 125.221 55.6519C124.953 55.6519 124.7 55.7289 124.46 55.8828C124.223 56.0342 124.03 56.2436 123.881 56.5111L123.586 56.2121C123.773 55.8967 124.016 55.6507 124.316 55.474C124.617 55.2974 124.941 55.2091 125.289 55.2091C125.61 55.2091 125.892 55.281 126.137 55.4248C126.384 55.5687 126.577 55.7667 126.716 56.0191C126.855 56.2714 126.924 56.5603 126.924 56.8858C126.924 57.1634 126.87 57.451 126.761 57.7488C126.655 58.044 126.496 58.3468 126.285 58.6571C126.075 58.9675 125.815 59.2817 125.505 59.5996C125.194 59.9175 124.836 60.2367 124.43 60.5572H127.079V61ZM131.447 61H128.105V60.6669C128.577 60.2683 128.982 59.8986 129.32 59.5579C129.658 59.2173 129.934 58.8981 130.149 58.6004C130.366 58.3026 130.525 58.0213 130.626 57.7563C130.729 57.4889 130.781 57.2315 130.781 56.9842C130.781 56.7218 130.731 56.4909 130.63 56.2916C130.529 56.0897 130.389 55.9333 130.209 55.8222C130.03 55.7087 129.823 55.6519 129.589 55.6519C129.321 55.6519 129.068 55.7289 128.828 55.8828C128.591 56.0342 128.398 56.2436 128.249 56.5111L127.954 56.2121C128.14 55.8967 128.384 55.6507 128.684 55.474C128.984 55.2974 129.309 55.2091 129.657 55.2091C129.977 55.2091 130.26 55.281 130.505 55.4248C130.752 55.5687 130.945 55.7667 131.084 56.0191C131.223 56.2714 131.292 56.5603 131.292 56.8858C131.292 57.1634 131.238 57.451 131.129 57.7488C131.023 58.044 130.864 58.3468 130.652 58.6571C130.443 58.9675 130.183 59.2817 129.873 59.5996C129.562 59.9175 129.204 60.2367 128.798 60.5572H131.447V61ZM135.009 61.9462H134.592V55.1712H135.009V61.9462ZM138.188 61V55.3226H138.654V57.8926C138.926 57.3905 139.388 57.1394 140.039 57.1394C140.541 57.1394 140.932 57.2895 141.212 57.5898C141.495 57.8901 141.636 58.3102 141.636 58.8502V61H141.171V58.9448C141.171 58.5083 141.061 58.1689 140.841 57.9267C140.622 57.6819 140.316 57.5595 139.925 57.5595C139.532 57.5595 139.221 57.6832 138.994 57.9304C138.767 58.1777 138.654 58.5158 138.654 58.9448V61H138.188ZM146.099 60.5269C145.634 60.8928 145.119 61.0757 144.554 61.0757C144.163 61.0757 143.812 60.9886 143.502 60.8145C143.194 60.6379 142.952 60.3982 142.775 60.0954C142.599 59.7926 142.51 59.4494 142.51 59.0659C142.51 58.695 142.592 58.3644 142.756 58.0743C142.923 57.7841 143.15 57.5557 143.438 57.3892C143.725 57.2227 144.052 57.1394 144.418 57.1394C144.789 57.1394 145.116 57.2277 145.398 57.4043C145.681 57.5784 145.902 57.8207 146.061 58.131C146.22 58.4389 146.299 58.7959 146.299 59.2022V59.3195H143.014C143.044 59.5844 143.131 59.8166 143.275 60.0159C143.421 60.2153 143.608 60.3704 143.835 60.4815C144.062 60.5925 144.317 60.648 144.6 60.648C145.064 60.648 145.49 60.4941 145.879 60.1862L146.099 60.5269ZM142.999 58.9183H145.864C145.841 58.6483 145.767 58.4124 145.641 58.2105C145.514 58.0087 145.348 57.851 145.141 57.7374C144.937 57.6239 144.703 57.5671 144.441 57.5671C144.176 57.5671 143.937 57.6239 143.725 57.7374C143.516 57.851 143.347 58.0099 143.218 58.2143C143.092 58.4162 143.019 58.6508 142.999 58.9183ZM147.737 61H147.249V55.1712H147.737V61ZM149.456 62.8925H148.99V57.2151H149.41L149.429 57.9418C149.593 57.692 149.812 57.4964 150.084 57.3551C150.357 57.2113 150.658 57.1394 150.989 57.1394C151.36 57.1394 151.691 57.2252 151.984 57.3968C152.279 57.5683 152.511 57.803 152.68 58.1008C152.852 58.396 152.938 58.7316 152.938 59.1075C152.938 59.481 152.852 59.8166 152.68 60.1143C152.511 60.4121 152.279 60.6467 151.984 60.8183C151.691 60.9899 151.36 61.0757 150.989 61.0757C150.666 61.0757 150.37 61.0076 150.103 60.8713C149.835 60.7351 149.62 60.5458 149.456 60.3036V62.8925ZM150.962 60.648C151.25 60.648 151.506 60.5824 151.73 60.4512C151.958 60.3175 152.134 60.1345 152.26 59.9024C152.389 59.6677 152.453 59.4015 152.453 59.1038C152.453 58.806 152.389 58.5411 152.26 58.3089C152.132 58.0768 151.955 57.8939 151.73 57.7601C151.506 57.6264 151.25 57.5595 150.962 57.5595C150.69 57.5595 150.441 57.6213 150.216 57.745C149.994 57.8661 149.815 58.0339 149.679 58.2484C149.543 58.4628 149.468 58.7063 149.456 58.9789V59.2362C149.468 59.5087 149.542 59.7522 149.675 59.9667C149.812 60.1787 149.991 60.3452 150.213 60.4663C150.437 60.5874 150.687 60.648 150.962 60.648ZM156.734 60.6934C156.414 60.6934 156.132 60.624 155.89 60.4853C155.648 60.3465 155.459 60.1534 155.322 59.9062C155.186 59.6564 155.118 59.3687 155.118 59.0432C155.118 58.6824 155.197 58.3607 155.356 58.0781C155.515 57.7929 155.732 57.5683 156.007 57.4043C156.285 57.2378 156.595 57.1545 156.938 57.1545C157.246 57.1545 157.516 57.2227 157.748 57.3589C157.981 57.4927 158.16 57.6819 158.286 57.9267L158.331 57.3968H158.774C158.757 57.5456 158.738 57.7059 158.717 57.8775C158.697 58.049 158.678 58.2244 158.661 58.4036C158.645 58.5802 158.63 58.7492 158.615 58.9107C158.603 59.0722 158.591 59.216 158.581 59.3422C158.574 59.4684 158.57 59.5668 158.57 59.6374C158.57 59.8242 158.614 59.9756 158.702 60.0916C158.791 60.2077 158.904 60.2657 159.043 60.2657C159.192 60.2657 159.324 60.2001 159.44 60.0689C159.559 59.9352 159.651 59.7522 159.717 59.5201C159.785 59.288 159.819 59.0255 159.819 58.7328C159.819 58.2055 159.707 57.7437 159.482 57.3476C159.26 56.9489 158.948 56.6385 158.547 56.4165C158.148 56.1919 157.683 56.0796 157.15 56.0796C156.711 56.0796 156.304 56.1566 155.928 56.3105C155.554 56.4619 155.228 56.6751 154.948 56.9501C154.67 57.2227 154.453 57.5444 154.297 57.9153C154.143 58.2837 154.066 58.6849 154.066 59.1189C154.066 59.6286 154.172 60.0752 154.384 60.4588C154.596 60.8398 154.891 61.1363 155.269 61.3482C155.648 61.5602 156.088 61.6661 156.59 61.6661C157.196 61.6661 157.755 61.5072 158.267 61.1892L158.479 61.5753C157.843 61.921 157.191 62.0938 156.522 62.0938C155.942 62.0938 155.431 61.9689 154.989 61.7191C154.548 61.4693 154.203 61.1224 153.956 60.6783C153.709 60.2317 153.585 59.7144 153.585 59.1265C153.585 58.6294 153.673 58.1701 153.85 57.7488C154.029 57.3274 154.28 56.9602 154.603 56.6474C154.926 56.3345 155.303 56.091 155.735 55.9169C156.169 55.7428 156.639 55.6557 157.147 55.6557C157.611 55.6557 158.035 55.7289 158.418 55.8752C158.804 56.0216 159.136 56.2298 159.414 56.4997C159.694 56.7697 159.91 57.0902 160.061 57.4611C160.212 57.8295 160.288 58.2358 160.288 58.6799C160.288 59.0684 160.231 59.4154 160.118 59.7207C160.007 60.0235 159.853 60.2619 159.656 60.436C159.462 60.6076 159.24 60.6934 158.99 60.6934C158.77 60.6934 158.589 60.624 158.445 60.4853C158.304 60.3465 158.214 60.1547 158.176 59.9099C158.02 60.1623 157.818 60.3566 157.571 60.4928C157.323 60.6266 157.044 60.6934 156.734 60.6934ZM156.791 60.2657C157.028 60.2657 157.245 60.2153 157.442 60.1143C157.639 60.0134 157.801 59.8746 157.93 59.698C158.061 59.5188 158.147 59.3157 158.188 59.0886L158.21 58.8123C158.21 58.565 158.16 58.3493 158.059 58.1651C157.958 57.9809 157.817 57.8371 157.635 57.7336C157.453 57.6302 157.244 57.5784 157.007 57.5784C156.739 57.5784 156.499 57.6428 156.287 57.7715C156.076 57.8976 155.908 58.0705 155.784 58.29C155.663 58.507 155.602 58.7543 155.602 59.0318C155.602 59.4002 155.711 59.698 155.928 59.9251C156.147 60.1522 156.435 60.2657 156.791 60.2657ZM161.654 61H161.238V55.3226H161.704V57.9342C161.868 57.6895 162.083 57.4964 162.351 57.3551C162.618 57.2113 162.916 57.1394 163.244 57.1394C163.615 57.1394 163.946 57.2252 164.236 57.3968C164.528 57.5683 164.759 57.803 164.928 58.1008C165.097 58.396 165.182 58.7316 165.182 59.1075C165.182 59.481 165.097 59.8166 164.928 60.1143C164.759 60.4121 164.528 60.6467 164.236 60.8183C163.946 60.9899 163.615 61.0757 163.244 61.0757C162.909 61.0757 162.604 61.0013 162.332 60.8524C162.062 60.7035 161.844 60.5042 161.677 60.2544L161.654 61ZM163.206 60.6556C163.491 60.6556 163.746 60.5887 163.971 60.455C164.198 60.3187 164.377 60.1345 164.508 59.9024C164.64 59.6677 164.705 59.404 164.705 59.1113C164.705 58.8161 164.64 58.5512 164.508 58.3165C164.377 58.0818 164.198 57.8976 163.971 57.7639C163.746 57.6276 163.491 57.5595 163.206 57.5595C162.934 57.5595 162.687 57.6226 162.464 57.7488C162.245 57.8724 162.067 58.0427 161.931 58.2597C161.797 58.4742 161.721 58.719 161.704 58.994V59.2173C161.721 59.4923 161.797 59.7384 161.931 59.9554C162.065 60.1724 162.241 60.3439 162.461 60.4701C162.683 60.5938 162.931 60.6556 163.206 60.6556ZM167.794 61.0757C167.42 61.0757 167.085 60.9899 166.787 60.8183C166.489 60.6467 166.254 60.4133 166.083 60.1181C165.911 59.8204 165.825 59.4835 165.825 59.1075C165.825 58.7341 165.911 58.3998 166.083 58.1045C166.254 57.8068 166.489 57.5721 166.787 57.4006C167.085 57.2264 167.42 57.1394 167.794 57.1394C168.165 57.1394 168.498 57.2264 168.793 57.4006C169.088 57.5721 169.321 57.8068 169.493 58.1045C169.665 58.3998 169.75 58.7341 169.75 59.1075C169.75 59.481 169.665 59.8166 169.493 60.1143C169.321 60.4121 169.088 60.6467 168.793 60.8183C168.498 60.9899 168.165 61.0757 167.794 61.0757ZM167.79 60.6556C168.072 60.6556 168.325 60.5874 168.547 60.4512C168.771 60.3149 168.948 60.1307 169.077 59.8986C169.208 59.6639 169.274 59.399 169.274 59.1038C169.274 58.8136 169.208 58.5524 169.077 58.3203C168.948 58.0856 168.771 57.9002 168.547 57.7639C168.325 57.6276 168.072 57.5595 167.79 57.5595C167.507 57.5595 167.254 57.6276 167.029 57.7639C166.804 57.9002 166.627 58.0856 166.495 58.3203C166.367 58.5524 166.302 58.8136 166.302 59.1038C166.302 59.399 166.367 59.6639 166.495 59.8986C166.627 60.1307 166.804 60.3149 167.029 60.4512C167.254 60.5874 167.507 60.6556 167.79 60.6556ZM172.366 61.0757C171.992 61.0757 171.657 60.9899 171.359 60.8183C171.061 60.6467 170.827 60.4133 170.655 60.1181C170.483 59.8204 170.398 59.4835 170.398 59.1075C170.398 58.7341 170.483 58.3998 170.655 58.1045C170.827 57.8068 171.061 57.5721 171.359 57.4006C171.657 57.2264 171.992 57.1394 172.366 57.1394C172.737 57.1394 173.07 57.2264 173.365 57.4006C173.66 57.5721 173.894 57.8068 174.065 58.1045C174.237 58.3998 174.323 58.7341 174.323 59.1075C174.323 59.481 174.237 59.8166 174.065 60.1143C173.894 60.4121 173.66 60.6467 173.365 60.8183C173.07 60.9899 172.737 61.0757 172.366 61.0757ZM172.362 60.6556C172.645 60.6556 172.897 60.5874 173.119 60.4512C173.344 60.3149 173.52 60.1307 173.649 59.8986C173.78 59.6639 173.846 59.399 173.846 59.1038C173.846 58.8136 173.78 58.5524 173.649 58.3203C173.52 58.0856 173.344 57.9002 173.119 57.7639C172.897 57.6276 172.645 57.5595 172.362 57.5595C172.079 57.5595 171.826 57.6276 171.601 57.7639C171.377 57.9002 171.199 58.0856 171.068 58.3203C170.939 58.5524 170.875 58.8136 170.875 59.1038C170.875 59.399 170.939 59.6639 171.068 59.8986C171.199 60.1307 171.377 60.3149 171.601 60.4512C171.826 60.5874 172.079 60.6556 172.362 60.6556ZM175.738 61H175.273V55.3226H175.738V59.4823L176.007 59.1567L177.85 57.2151H178.433L176.896 58.8464L178.683 61H178.081L176.575 59.187L175.738 60.0765V61ZM179.784 55.8866C179.696 55.8866 179.621 55.8563 179.561 55.7958C179.503 55.7327 179.474 55.657 179.474 55.5687C179.474 55.4829 179.503 55.4097 179.561 55.3491C179.621 55.2886 179.696 55.2583 179.784 55.2583C179.875 55.2583 179.951 55.2886 180.011 55.3491C180.074 55.4097 180.106 55.4829 180.106 55.5687C180.106 55.657 180.074 55.7327 180.011 55.7958C179.951 55.8563 179.875 55.8866 179.784 55.8866ZM180.019 61H179.553V57.2151H180.019V61ZM184.754 61H184.288V58.8805C184.288 58.4767 184.177 58.1575 183.955 57.9229C183.733 57.6857 183.434 57.5671 183.058 57.5671C182.67 57.5671 182.358 57.692 182.123 57.9418C181.889 58.1891 181.771 58.5196 181.771 58.9334V61H181.306V57.2151H181.718L181.733 57.9267C181.865 57.6718 182.049 57.4775 182.286 57.3438C182.523 57.2075 182.806 57.1394 183.134 57.1394C183.638 57.1394 184.035 57.2908 184.322 57.5936C184.61 57.8964 184.754 58.3152 184.754 58.8502V61ZM187.517 60.9735C187.158 60.9735 186.837 60.8902 186.552 60.7237C186.266 60.5546 186.041 60.3263 185.874 60.0386C185.71 59.7485 185.628 59.4217 185.628 59.0583C185.628 58.6925 185.71 58.3657 185.874 58.0781C186.041 57.7879 186.266 57.5595 186.552 57.393C186.837 57.2239 187.16 57.1394 187.521 57.1394C187.849 57.1394 188.144 57.2113 188.406 57.3551C188.671 57.499 188.883 57.692 189.042 57.9342L189.065 57.2151H189.481V60.9054C189.481 61.3318 189.4 61.6989 189.239 62.0068C189.077 62.3146 188.847 62.5518 188.546 62.7183C188.246 62.8849 187.888 62.9682 187.471 62.9682C186.878 62.9682 186.37 62.7676 185.946 62.3664L186.166 61.9954C186.514 62.3638 186.947 62.548 187.464 62.548C187.784 62.548 188.059 62.4799 188.289 62.3436C188.521 62.2099 188.7 62.0207 188.826 61.7759C188.953 61.5311 189.016 61.2397 189.016 60.9016V60.209C188.854 60.4436 188.643 60.6303 188.384 60.7691C188.124 60.9054 187.835 60.9735 187.517 60.9735ZM187.555 60.561C187.822 60.561 188.064 60.5004 188.281 60.3793C188.498 60.2582 188.672 60.0929 188.804 59.8835C188.937 59.6715 189.008 59.4318 189.016 59.1643V58.9524C189.008 58.6824 188.937 58.4427 188.804 58.2332C188.672 58.0213 188.498 57.8547 188.281 57.7336C188.067 57.6125 187.826 57.5519 187.558 57.5519C187.281 57.5519 187.031 57.6188 186.809 57.7525C186.589 57.8838 186.415 58.0629 186.287 58.29C186.161 58.5146 186.097 58.7707 186.097 59.0583C186.097 59.3435 186.161 59.5996 186.287 59.8267C186.415 60.0538 186.589 60.2329 186.809 60.3641C187.029 60.4953 187.277 60.561 187.555 60.561ZM190.427 60.6707L190.564 60.2392C190.657 60.325 190.76 60.3982 190.874 60.4588C190.99 60.5193 191.11 60.566 191.234 60.5988C191.36 60.6316 191.487 60.648 191.616 60.648C191.873 60.648 192.083 60.5849 192.244 60.4588C192.406 60.3326 192.486 60.1686 192.486 59.9667C192.486 59.8229 192.446 59.7056 192.365 59.6147C192.284 59.5214 192.179 59.4419 192.047 59.3763C191.916 59.3107 191.777 59.2488 191.631 59.1908C191.462 59.1252 191.297 59.052 191.135 58.9713C190.974 58.888 190.84 58.7808 190.734 58.6496C190.63 58.5184 190.579 58.3455 190.579 58.131C190.579 57.9292 190.628 57.7551 190.726 57.6087C190.827 57.4598 190.967 57.345 191.146 57.2643C191.328 57.181 191.538 57.1394 191.775 57.1394C192.115 57.1394 192.451 57.2227 192.782 57.3892L192.638 57.8093C192.56 57.7614 192.471 57.7197 192.373 57.6844C192.274 57.6466 192.173 57.6176 192.07 57.5974C191.967 57.5772 191.868 57.5671 191.775 57.5671C191.56 57.5671 191.387 57.6188 191.256 57.7223C191.125 57.8232 191.059 57.9569 191.059 58.1235C191.059 58.232 191.088 58.3266 191.146 58.4073C191.207 58.4856 191.298 58.5587 191.419 58.6269C191.54 58.695 191.692 58.7669 191.873 58.8426C192.047 58.9133 192.218 58.994 192.384 59.0848C192.551 59.1732 192.688 59.2867 192.797 59.4255C192.908 59.5643 192.963 59.7447 192.963 59.9667C192.963 60.1837 192.906 60.3768 192.793 60.5458C192.682 60.7123 192.527 60.8423 192.327 60.9357C192.131 61.029 191.901 61.0757 191.639 61.0757C191.202 61.0757 190.798 60.9407 190.427 60.6707ZM195.613 61.0757C195.239 61.0757 194.904 60.9899 194.606 60.8183C194.308 60.6467 194.073 60.4133 193.902 60.1181C193.73 59.8204 193.645 59.4835 193.645 59.1075C193.645 58.7341 193.73 58.3998 193.902 58.1045C194.073 57.8068 194.308 57.5721 194.606 57.4006C194.904 57.2264 195.239 57.1394 195.613 57.1394C195.984 57.1394 196.317 57.2264 196.612 57.4006C196.907 57.5721 197.141 57.8068 197.312 58.1045C197.484 58.3998 197.569 58.7341 197.569 59.1075C197.569 59.481 197.484 59.8166 197.312 60.1143C197.141 60.4121 196.907 60.6467 196.612 60.8183C196.317 60.9899 195.984 61.0757 195.613 61.0757ZM195.609 60.6556C195.892 60.6556 196.144 60.5874 196.366 60.4512C196.59 60.3149 196.767 60.1307 196.896 59.8986C197.027 59.6639 197.093 59.399 197.093 59.1038C197.093 58.8136 197.027 58.5524 196.896 58.3203C196.767 58.0856 196.59 57.9002 196.366 57.7639C196.144 57.6276 195.892 57.5595 195.609 57.5595C195.326 57.5595 195.073 57.6276 194.848 57.7639C194.624 57.9002 194.446 58.0856 194.314 58.3203C194.186 58.5524 194.121 58.8136 194.121 59.1038C194.121 59.399 194.186 59.6639 194.314 59.8986C194.446 60.1307 194.624 60.3149 194.848 60.4512C195.073 60.5874 195.326 60.6556 195.609 60.6556ZM201.869 61H201.457L201.441 60.2884C201.308 60.5433 201.124 60.7388 200.889 60.8751C200.657 61.0088 200.378 61.0757 200.052 61.0757C199.553 61.0757 199.159 60.9243 198.871 60.6215C198.586 60.3162 198.444 59.8973 198.444 59.3649V57.2151H198.909V59.3346C198.909 59.7384 199.019 60.0588 199.239 60.296C199.458 60.5307 199.755 60.648 200.128 60.648C200.514 60.648 200.823 60.5244 201.055 60.2771C201.288 60.0273 201.404 59.6955 201.404 59.2817V57.2151H201.869V61ZM206.767 62.8925H206.301V60.3036C206.137 60.5458 205.922 60.7351 205.654 60.8713C205.387 61.0076 205.091 61.0757 204.768 61.0757C204.397 61.0757 204.064 60.9899 203.769 60.8183C203.476 60.6467 203.244 60.4121 203.073 60.1143C202.904 59.8166 202.819 59.481 202.819 59.1075C202.819 58.7316 202.904 58.396 203.073 58.1008C203.244 57.803 203.476 57.5683 203.769 57.3968C204.064 57.2252 204.397 57.1394 204.768 57.1394C205.099 57.1394 205.399 57.2113 205.669 57.3551C205.942 57.4964 206.161 57.692 206.328 57.9418L206.347 57.2151H206.767V62.8925ZM204.799 60.648C205.074 60.648 205.322 60.5887 205.544 60.4701C205.766 60.349 205.944 60.1825 206.078 59.9705C206.214 59.756 206.289 59.5113 206.301 59.2362V58.9789C206.289 58.7038 206.215 58.4603 206.082 58.2484C205.948 58.0339 205.77 57.8674 205.548 57.7488C205.329 57.6276 205.08 57.5671 204.802 57.5671C204.512 57.5671 204.255 57.634 204.03 57.7677C203.806 57.8989 203.628 58.0806 203.497 58.3127C203.365 58.5449 203.3 58.8098 203.3 59.1075C203.3 59.4053 203.364 59.6702 203.493 59.9024C203.624 60.1345 203.802 60.3175 204.027 60.4512C204.254 60.5824 204.511 60.648 204.799 60.648ZM208.251 61.0757C208.16 61.0757 208.085 61.0467 208.027 60.9886C207.969 60.9306 207.94 60.8549 207.94 60.7616C207.94 60.6682 207.969 60.5925 208.027 60.5345C208.085 60.4739 208.16 60.4436 208.251 60.4436C208.344 60.4436 208.42 60.4739 208.478 60.5345C208.538 60.5925 208.568 60.6682 208.568 60.7616C208.568 60.8549 208.538 60.9306 208.478 60.9886C208.42 61.0467 208.344 61.0757 208.251 61.0757ZM215.673 61H215.207V58.9448C215.207 58.5083 215.109 58.1689 214.912 57.9267C214.715 57.6819 214.44 57.5595 214.087 57.5595C213.731 57.5595 213.451 57.6832 213.247 57.9304C213.042 58.1752 212.94 58.5133 212.94 58.9448V61H212.474V58.9448C212.474 58.5083 212.376 58.1689 212.179 57.9267C211.982 57.6819 211.706 57.5595 211.35 57.5595C210.995 57.5595 210.714 57.6832 210.51 57.9304C210.306 58.1752 210.204 58.5133 210.204 58.9448V61H209.738V57.2151H210.124L210.143 57.9607C210.264 57.6907 210.436 57.4863 210.658 57.3476C210.882 57.2088 211.15 57.1394 211.46 57.1394C211.796 57.1394 212.08 57.2201 212.312 57.3816C212.544 57.5431 212.71 57.774 212.811 58.0743C212.925 57.7689 213.098 57.5368 213.33 57.3778C213.565 57.2189 213.85 57.1394 214.185 57.1394C214.655 57.1394 215.019 57.2895 215.279 57.5898C215.542 57.8901 215.673 58.3102 215.673 58.8502V61ZM220.146 60.5269C219.682 60.8928 219.167 61.0757 218.602 61.0757C218.211 61.0757 217.86 60.9886 217.55 60.8145C217.242 60.6379 217 60.3982 216.823 60.0954C216.647 59.7926 216.558 59.4494 216.558 59.0659C216.558 58.695 216.64 58.3644 216.804 58.0743C216.971 57.7841 217.198 57.5557 217.486 57.3892C217.773 57.2227 218.1 57.1394 218.466 57.1394C218.837 57.1394 219.164 57.2277 219.446 57.4043C219.729 57.5784 219.95 57.8207 220.109 58.131C220.268 58.4389 220.347 58.7959 220.347 59.2022V59.3195H217.062C217.092 59.5844 217.179 59.8166 217.323 60.0159C217.469 60.2153 217.656 60.3704 217.883 60.4815C218.11 60.5925 218.365 60.648 218.648 60.648C219.112 60.648 219.538 60.4941 219.927 60.1862L220.146 60.5269ZM217.047 58.9183H219.912C219.889 58.6483 219.815 58.4124 219.688 58.2105C219.562 58.0087 219.396 57.851 219.189 57.7374C218.984 57.6239 218.751 57.5671 218.489 57.5671C218.224 57.5671 217.985 57.6239 217.773 57.7374C217.564 57.851 217.395 58.0099 217.266 58.2143C217.14 58.4162 217.067 58.6508 217.047 58.9183Z" fill="white"/>
</svg>
