<svg width="162" height="78" viewBox="0 0 162 78" fill="none" xmlns="http://www.w3.org/2000/svg">
<rect x="0.769531" width="74.8613" height="78" rx="11" fill="black"/>
<path fill-rule="evenodd" clip-rule="evenodd" d="M21.5301 15.2649C21.3622 15.4673 21.3192 17.3067 21.382 21.6003C21.4643 27.2213 21.5044 27.7471 21.9473 29.0119C22.6621 31.0541 23.2875 32.1743 24.6653 33.8811C26.7918 36.5156 29.3271 38.0429 32.3563 38.5141C34.1715 38.7963 34.7931 38.6213 35.2657 37.6951C35.5351 37.1673 35.5161 36.949 35.0784 35.5318C34.3887 33.2994 33.3953 30.5073 33.2331 30.345C33.1575 30.2693 33.0957 29.9923 33.0957 29.7294C33.0957 29.4665 33.0012 29.1931 32.8857 29.1216C32.7701 29.0502 32.6756 28.8959 32.6756 28.779C32.6756 28.662 32.8174 28.708 32.9907 28.8814C33.164 29.0548 33.3058 29.2477 33.3058 29.3101C33.3058 29.3726 33.6678 29.9705 34.11 30.6388C34.5521 31.307 35.8048 33.2172 36.8934 34.8834C38.0771 36.6953 39.1259 38.0677 39.5028 38.2978C39.9881 38.5944 40.5676 38.6839 42.0236 38.6881C44.105 38.6942 44.9889 38.9817 46.3863 40.1082L47.1778 40.7461L45.8897 41.6067C44.6047 42.4653 44.5967 42.4674 42.5774 42.4678C39.7452 42.4682 39.4551 42.6452 37.5072 45.5621C36.6406 46.8595 35.2227 49.0545 34.3562 50.4395C32.8264 52.8851 32.238 53.5818 32.7029 52.3979C33.4905 50.3912 35.4065 44.6052 35.4065 44.233C35.4065 43.9867 35.2105 43.5359 34.971 43.2313C34.5982 42.757 34.3753 42.6775 33.4178 42.6775C32.1899 42.6775 29.9479 43.298 28.4743 44.0457C26.5477 45.0232 24.0752 47.7063 22.8445 50.1554C21.5641 52.7028 21.4502 53.5124 21.4433 60.1216L21.437 66.1114H36.0367C50.6019 66.1114 50.6398 66.1104 52.0399 65.6405C55.4558 64.4942 58.3837 61.9997 59.9739 58.881C60.9738 56.9201 61.3265 55.2862 61.316 52.6606C61.3034 49.4448 60.736 47.5043 59.0731 44.9894C58.0463 43.4365 55.0335 40.7944 54.2748 40.7812C54.1223 40.7787 54.3166 40.6191 54.7067 40.4268C55.0968 40.2347 56.1603 39.3745 57.0703 38.5156C59.9577 35.7899 61.3948 32.1262 61.1929 28.0054C61.0196 24.4701 59.7615 21.648 57.2273 19.11C55.6604 17.5409 54.4758 16.7786 52.4472 16.0341C50.6723 15.383 47.0562 15.2109 32.3151 15.0762C23.6041 14.9968 21.7252 15.0295 21.5301 15.2649ZM35.4065 17.874C29.3408 17.9564 24.3544 18.0381 24.3254 18.0558C24.2964 18.0732 24.2729 20.0219 24.2729 22.3859C24.2729 26.8186 24.438 28.0706 25.2508 29.7971C26.2623 31.9461 27.9567 33.7121 30.1075 34.859C31.5476 35.627 32.1681 35.73 31.9458 35.164C31.8664 34.9616 31.6625 34.3706 31.4927 33.8504C31.323 33.3303 31.1001 32.7155 30.9974 32.4843C30.8949 32.2531 30.4546 30.9965 30.0191 29.6918L29.2276 27.3194L29.6101 26.6084C30.0475 25.7963 30.3518 25.6858 32.3017 25.632C34.0066 25.5851 34.4843 25.8497 35.4727 27.3888C35.8619 27.9951 36.9822 29.7206 37.9622 31.2233C38.9424 32.726 40.0206 34.4013 40.3586 34.946L40.9733 35.9368L42.9429 35.9443C44.7137 35.9513 45.0396 36.0166 46.1706 36.5917C46.8623 36.9433 47.5478 37.3453 47.6938 37.4849C47.8398 37.6244 48.1706 37.8804 48.4292 38.0538C48.6878 38.2272 49.1161 38.5345 49.3808 38.7369C49.9946 39.2058 50.3835 39.1992 51.7558 38.6974C54.9421 37.5322 57.5136 34.6285 58.4106 31.1827C58.891 29.3377 58.8168 27.0193 58.2209 25.2572C57.5447 23.2577 56.8918 22.1967 55.4915 20.8235C53.4418 18.8132 51.3607 17.9297 48.3824 17.8055C47.3114 17.7607 41.4722 17.7916 35.4065 17.874ZM49.3535 42.6458C49.1243 42.8593 48.8464 43.0722 48.7361 43.1187C48.6258 43.1649 48.0042 43.563 47.3547 44.0031C45.917 44.9768 44.4081 45.4039 42.3933 45.4072L40.8725 45.4097L40.1005 46.6182C38.0563 49.8181 34.8635 54.6024 34.4904 55.025C34.1179 55.4468 33.8764 55.4979 32.2555 55.4979C30.6275 55.4979 30.3905 55.4472 29.9813 55.0116C29.73 54.744 29.5246 54.2629 29.5246 53.9424C29.5246 53.6221 30.092 51.6501 30.7854 49.5604C31.4789 47.4707 32.0105 45.7252 31.9671 45.6815C31.8137 45.5283 30.0376 46.328 28.9467 47.0415C26.9492 48.3477 25.3193 50.5961 24.5685 53.0809C24.2532 54.1248 24.1857 55.1202 24.1778 58.8606L24.1679 63.3792H37.087C49.0972 63.3792 50.0948 63.3517 51.2666 62.9877C52.9165 62.4753 53.7569 61.9692 55.1184 60.6676C56.5063 59.3413 57.2596 58.2555 57.8306 56.7589C58.8836 53.9987 58.9473 51.9006 58.0564 49.2979C57.2226 46.8627 55.0776 44.3429 52.9921 43.349C50.3738 42.1013 50.0125 42.0315 49.3535 42.6458Z" fill="white"/>
<rect x="86.6309" width="74.8613" height="78" rx="11" fill="#07399E" fill-opacity="0.06"/>
<path fill-rule="evenodd" clip-rule="evenodd" d="M107.391 15.2649C107.224 15.4673 107.18 17.3067 107.243 21.6003C107.326 27.2213 107.366 27.7471 107.809 29.0119C108.523 31.0541 109.149 32.1743 110.527 33.8811C112.653 36.5156 115.188 38.0429 118.218 38.5141C120.033 38.7963 120.654 38.6213 121.127 37.6951C121.396 37.1673 121.377 36.949 120.94 35.5318C120.25 33.2994 119.257 30.5073 119.094 30.345C119.019 30.2693 118.957 29.9923 118.957 29.7294C118.957 29.4665 118.863 29.1931 118.747 29.1216C118.631 29.0502 118.537 28.8959 118.537 28.779C118.537 28.662 118.679 28.708 118.852 28.8814C119.025 29.0548 119.167 29.2477 119.167 29.3101C119.167 29.3726 119.529 29.9705 119.971 30.6388C120.413 31.307 121.666 33.2172 122.755 34.8834C123.938 36.6953 124.987 38.0677 125.364 38.2978C125.849 38.5944 126.429 38.6839 127.885 38.6881C129.966 38.6942 130.85 38.9817 132.248 40.1082L133.039 40.7461L131.751 41.6067C130.466 42.4653 130.458 42.4674 128.439 42.4678C125.607 42.4682 125.316 42.6452 123.368 45.5621C122.502 46.8595 121.084 49.0545 120.217 50.4395C118.688 52.8851 118.099 53.5818 118.564 52.3979C119.352 50.3912 121.268 44.6052 121.268 44.233C121.268 43.9867 121.072 43.5359 120.832 43.2313C120.459 42.757 120.237 42.6775 119.279 42.6775C118.051 42.6775 115.809 43.298 114.336 44.0457C112.409 45.0232 109.937 47.7063 108.706 50.1554C107.425 52.7028 107.312 53.5124 107.305 60.1216L107.298 66.1114H121.898C136.463 66.1114 136.501 66.1104 137.901 65.6405C141.317 64.4942 144.245 61.9997 145.835 58.881C146.835 56.9201 147.188 55.2862 147.177 52.6606C147.165 49.4448 146.597 47.5043 144.934 44.9894C143.908 43.4365 140.895 40.7944 140.136 40.7812C139.984 40.7787 140.178 40.6191 140.568 40.4268C140.958 40.2347 142.022 39.3745 142.932 38.5156C145.819 35.7899 147.256 32.1262 147.054 28.0054C146.881 24.4701 145.623 21.648 143.089 19.11C141.522 17.5409 140.337 16.7786 138.308 16.0341C136.534 15.383 132.918 15.2109 118.176 15.0762C109.465 14.9968 107.587 15.0295 107.391 15.2649ZM121.268 17.874C115.202 17.9564 110.216 18.0381 110.187 18.0558C110.158 18.0732 110.134 20.0219 110.134 22.3859C110.134 26.8186 110.299 28.0706 111.112 29.7971C112.124 31.9461 113.818 33.7121 115.969 34.859C117.409 35.627 118.029 35.73 117.807 35.164C117.728 34.9616 117.524 34.3706 117.354 33.8504C117.184 33.3303 116.961 32.7155 116.859 32.4843C116.756 32.2531 116.316 30.9965 115.88 29.6918L115.089 27.3194L115.471 26.6084C115.909 25.7963 116.213 25.6858 118.163 25.632C119.868 25.5851 120.346 25.8497 121.334 27.3888C121.723 27.9951 122.844 29.7206 123.824 31.2233C124.804 32.726 125.882 34.4013 126.22 34.946L126.835 35.9368L128.804 35.9443C130.575 35.9513 130.901 36.0166 132.032 36.5917C132.724 36.9433 133.409 37.3453 133.555 37.4849C133.701 37.6244 134.032 37.8804 134.291 38.0538C134.549 38.2272 134.977 38.5345 135.242 38.7369C135.856 39.2058 136.245 39.1992 137.617 38.6974C140.803 37.5322 143.375 34.6285 144.272 31.1827C144.752 29.3377 144.678 27.0193 144.082 25.2572C143.406 23.2577 142.753 22.1967 141.353 20.8235C139.303 18.8132 137.222 17.9297 134.244 17.8055C133.173 17.7607 127.334 17.7916 121.268 17.874ZM135.215 42.6458C134.986 42.8593 134.708 43.0722 134.597 43.1187C134.487 43.1649 133.866 43.563 133.216 44.0031C131.778 44.9768 130.269 45.4039 128.255 45.4072L126.734 45.4097L125.962 46.6182C123.918 49.8181 120.725 54.6024 120.352 55.025C119.979 55.4468 119.738 55.4979 118.117 55.4979C116.489 55.4979 116.252 55.4472 115.843 55.0116C115.591 54.744 115.386 54.2629 115.386 53.9424C115.386 53.6221 115.953 51.6501 116.647 49.5604C117.34 47.4707 117.872 45.7252 117.828 45.6815C117.675 45.5283 115.899 46.328 114.808 47.0415C112.811 48.3477 111.181 50.5961 110.43 53.0809C110.114 54.1248 110.047 55.1202 110.039 58.8606L110.029 63.3792H122.948C134.959 63.3792 135.956 63.3517 137.128 62.9877C138.778 62.4753 139.618 61.9692 140.98 60.6676C142.368 59.3413 143.121 58.2555 143.692 56.7589C144.745 53.9987 144.809 51.9006 143.918 49.2979C143.084 46.8627 140.939 44.3429 138.853 43.349C136.235 42.1013 135.874 42.0315 135.215 42.6458Z" fill="white"/>
</svg>
