<svg width="56" height="56" viewBox="0 0 56 56" fill="none" xmlns="http://www.w3.org/2000/svg">
<circle cx="28.1717" cy="28.3578" r="25.7171" stroke="url(#paint0_angular_330_5788)" stroke-width="3.69145"/>
<circle cx="28.1717" cy="28.3587" r="24.3636" fill="#9A3C06"/>
<circle cx="28.1717" cy="28.3587" r="22.3805" stroke="#FF7A00" stroke-width="3.96617"/>
<path d="M34.2252 18.7278L33.9209 23.436L33.8088 23.468C33.0188 22.283 31.6736 21.5143 29.7732 21.162C29.1753 21.0445 28.5988 20.9858 28.0437 20.9858C27.4992 20.9858 27.0294 21.0339 26.6344 21.1299C26.2501 21.226 25.9191 21.3648 25.6415 21.5463C25.0543 21.9307 24.7607 22.4324 24.7607 23.0517C24.7607 23.8631 25.017 24.4716 25.5294 24.8773C26.17 25.3684 27.2323 25.7154 28.7163 25.9182C30.2003 26.1104 31.3907 26.3773 32.2875 26.719C33.1843 27.0606 33.9209 27.493 34.4974 28.0161C35.5864 28.9983 36.1309 30.3862 36.1309 32.1798C36.1309 34.5286 35.2448 36.3382 33.4725 37.6087C31.9565 38.6977 30.0455 39.2422 27.7394 39.2422C25.8817 39.2422 24.0454 38.8898 22.2305 38.1852C21.6326 37.9503 21.1095 37.6781 20.6611 37.3685L20.8372 32.0197L20.9013 31.9717C22.2251 34.2564 24.3977 35.3987 27.4191 35.3987C29.565 35.3987 30.985 34.8809 31.6789 33.8453C31.9138 33.493 32.0312 33.1033 32.0312 32.6763C32.0312 32.2386 31.9618 31.8809 31.823 31.6033C31.6843 31.3151 31.4547 31.0695 31.1344 30.8667C30.5152 30.461 29.4743 30.1887 28.0116 30.0499C26.549 29.9111 25.3533 29.6496 24.4244 29.2652C23.4956 28.8809 22.7536 28.4058 22.1984 27.84C21.1949 26.815 20.6931 25.3844 20.6931 23.5481C20.6931 21.6477 21.3603 20.1104 22.6949 18.936C24.0508 17.7403 25.8764 17.1424 28.1718 17.1424C30.4778 17.1424 32.4956 17.6709 34.2252 18.7278Z" fill="white"/>
<defs>
<radialGradient id="paint0_angular_330_5788" cx="0" cy="0" r="1" gradientUnits="userSpaceOnUse" gradientTransform="translate(28.1717 28.3578) rotate(90) scale(27.5629)">
<stop stop-color="#FFD600"/>
<stop offset="0.364583" stop-color="#FFC700"/>
<stop offset="0.6875" stop-color="#6F4D00"/>
<stop offset="0.932292" stop-color="#B76E00"/>
</radialGradient>
</defs>
</svg>
