<svg width="43" height="43" viewBox="0 0 43 43" fill="none" xmlns="http://www.w3.org/2000/svg">
<g clip-path="url(#clip0_37_372)">
<path d="M4.2788 9C2.8648 9 1.71154 10.1533 1.71154 11.5673V23.3874C2.82134 22.4246 4.22531 21.6458 5.99031 21.034V17.5575C5.99031 15.2811 9.87797 14.9903 13.2642 14.9903C16.6505 14.9903 20.5381 15.2811 20.5381 17.5575V19.2691C20.8256 19.2657 21.0997 19.2691 21.3939 19.2691C21.6881 19.2691 21.9622 19.2657 22.2496 19.2691V17.5575C22.2496 15.2811 26.1373 14.9903 29.5236 14.9903C32.9098 14.9903 36.7975 15.2811 36.7975 17.5575V21.0073C38.5591 21.6157 39.9564 22.4113 41.0762 23.3874V11.5673C41.0762 10.1533 39.923 9 38.509 9H4.2788ZM21.3939 20.9806C5.05433 20.9806 -0.0133448 24.0024 2.63764e-05 32.1054H42.7878C42.8011 23.949 37.7335 20.9806 21.3939 20.9806ZM2.63764e-05 33.8169V43.2302H5.99031V39.8072C5.99031 38.577 6.47167 38.0957 7.70182 38.0957H35.086C36.3161 38.0957 36.7975 38.577 36.7975 39.8072V43.2302H42.7878V33.8169H2.63764e-05Z" fill="white"/>
</g>
<defs>
<clipPath id="clip0_37_372">
<rect width="42.7877" height="42.7877" fill="white" transform="translate(0 0.106201)"/>
</clipPath>
</defs>
</svg>
