<?xml version="1.0" encoding="UTF-8" standalone="no"?>
<!DOCTYPE svg PUBLIC "-//W3C//DTD SVG 1.1//EN" "http://www.w3.org/Graphics/SVG/1.1/DTD/svg11.dtd">
<svg xmlns="http://www.w3.org/2000/svg" version="1.1" viewBox="0 0 512 512">
<g stroke-width="2.00" fill="none" stroke-linecap="butt">
<path stroke="#ffffff" stroke-opacity="0.992" vector-effect="non-scaling-stroke" d="
  M 208.55 80.32
  Q 304.03 80.64 399.50 80.58
  Q 400.39 80.58 400.16 80.36
  Q 400.05 80.25 399.80 80.25
  Q 304.18 80.20 208.55 80.31
  Q 208.06 80.31 208.55 80.32"
/>
<path stroke="#ffffff" stroke-opacity="0.992" vector-effect="non-scaling-stroke" d="
  M 383.69 272.47
  Q 391.09 272.46 398.50 272.33
  Q 400.03 272.31 398.25 272.31
  Q 303.41 272.20 208.56 272.31
  Q 208.06 272.31 208.55 272.32
  Q 296.12 272.59 383.69 272.47"
/>
</g>
<path fill="#ffffff" d="
  M 64.06 416.56
  Q 64.01 438.42 63.95 460.28
  Q 63.93 467.08 62.53 470.39
  Q 59.99 476.36 54.00 478.70
  Q 48.57 480.81 42.94 479.01
  Q 36.14 476.83 33.39 470.18
  Q 32.00 466.83 32.00 460.10
  Q 32.00 256.55 32.00 52.99
  Q 32.00 45.67 32.81 43.10
  Q 34.39 38.03 39.06 34.81
  Q 43.09 32.03 47.80 32.01
  Q 52.21 32.00 56.21 34.40
  Q 60.93 37.25 62.86 42.38
  Q 64.00 45.43 64.00 52.25
  Q 64.00 121.17 64.00 191.18
  A 0.82 0.82 0.0 0 0 64.82 192.00
  L 191.45 191.94
  A 0.50 0.49 -90.0 0 0 191.94 191.44
  Q 192.04 145.60 192.00 99.76
  Q 192.00 93.29 193.35 89.94
  Q 197.39 79.90 210.00 79.91
  Q 300.50 80.00 391.00 80.00
  Q 404.99 80.00 410.96 80.82
  Q 437.51 84.47 456.50 103.50
  Q 479.96 127.01 479.98 161.50
  Q 480.04 310.90 479.94 460.30
  Q 479.94 467.06 478.54 470.37
  Q 476.00 476.35 470.01 478.69
  Q 464.58 480.81 458.94 479.01
  Q 452.14 476.83 449.39 470.18
  Q 448.00 466.83 448.00 460.11
  Q 448.00 438.98 448.00 417.26
  A 1.26 1.26 0.0 0 0 446.74 416.00
  L 64.56 416.06
  A 0.50 0.50 0.0 0 0 64.06 416.56
  Z
  M 208.55 80.32
  Q 304.03 80.64 399.50 80.58
  Q 400.39 80.58 400.16 80.36
  Q 400.05 80.25 399.80 80.25
  Q 304.18 80.20 208.55 80.31
  Q 208.06 80.31 208.55 80.32
  Z
  M 433.33 125.67
  Q 421.12 113.74 403.99 112.31
  Q 400.24 112.00 392.25 112.00
  Q 308.62 112.00 224.52 112.00
  A 0.52 0.52 0.0 0 0 224.00 112.52
  L 224.00 191.34
  A 0.66 0.66 0.0 0 0 224.66 192.00
  L 447.32 192.00
  A 0.67 0.67 0.0 0 0 447.99 191.33
  Q 448.13 177.41 447.92 163.96
  Q 447.75 152.54 446.06 146.71
  Q 442.61 134.73 433.33 125.67
  Z
  M 411.89 273.03
  Q 431.35 276.06 447.26 287.87
  Q 448.00 288.42 448.00 287.49
  L 447.94 224.95
  A 0.95 0.95 0.0 0 0 446.99 224.00
  L 64.50 224.00
  A 0.50 0.50 0.0 0 0 64.00 224.50
  L 64.00 383.13
  A 0.87 0.87 0.0 0 0 64.87 384.00
  L 191.50 384.00
  A 0.50 0.50 0.0 0 0 192.00 383.50
  Q 192.00 338.02 192.00 292.54
  Q 192.00 285.07 193.42 281.66
  Q 195.83 275.89 201.58 273.45
  Q 205.02 272.00 212.62 272.00
  Q 302.27 271.96 391.93 272.05
  Q 405.70 272.06 411.89 273.03
  Z
  M 383.69 272.47
  Q 391.09 272.46 398.50 272.33
  Q 400.03 272.31 398.25 272.31
  Q 303.41 272.20 208.56 272.31
  Q 208.06 272.31 208.55 272.32
  Q 296.12 272.59 383.69 272.47
  Z
  M 433.04 317.46
  Q 419.28 304.28 400.00 304.23
  Q 312.25 304.00 224.50 304.00
  A 0.50 0.50 0.0 0 0 224.00 304.50
  L 224.00 383.13
  A 0.87 0.87 0.0 0 0 224.87 384.00
  L 447.48 384.00
  A 0.52 0.52 -89.4 0 0 448.00 383.49
  Q 448.13 369.56 447.92 355.92
  Q 447.74 344.55 446.07 338.75
  Q 442.55 326.57 433.04 317.46
  Z"
/>
<path fill="#ffffff" d="
  M 175.90 128.00
  A 47.90 47.90 0.0 0 1 128.00 175.90
  A 47.90 47.90 0.0 0 1 80.10 128.00
  A 47.90 47.90 0.0 0 1 128.00 80.10
  A 47.90 47.90 0.0 0 1 175.90 128.00
  Z
  M 143.93 128.01
  A 15.93 15.93 0.0 0 0 128.00 112.08
  A 15.93 15.93 0.0 0 0 112.07 128.01
  A 15.93 15.93 0.0 0 0 128.00 143.94
  A 15.93 15.93 0.0 0 0 143.93 128.01
  Z"
/>
<path fill="#fffefe" fill-opacity="0.980" d="
  M 208.55 80.31
  Q 304.18 80.20 399.80 80.25
  Q 400.05 80.25 400.16 80.36
  Q 400.39 80.58 399.50 80.58
  Q 304.03 80.64 208.55 80.32
  Q 208.06 80.31 208.55 80.31
  Z"
/>
<path fill="#ffffff" d="
  M 175.90 320.00
  A 47.90 47.90 0.0 0 1 128.00 367.90
  A 47.90 47.90 0.0 0 1 80.10 320.00
  A 47.90 47.90 0.0 0 1 128.00 272.10
  A 47.90 47.90 0.0 0 1 175.90 320.00
  Z
  M 143.93 320.01
  A 15.93 15.93 0.0 0 0 128.00 304.08
  A 15.93 15.93 0.0 0 0 112.07 320.01
  A 15.93 15.93 0.0 0 0 128.00 335.94
  A 15.93 15.93 0.0 0 0 143.93 320.01
  Z"
/>
<path fill="#fffefe" fill-opacity="0.980" d="
  M 383.69 272.47
  Q 296.12 272.59 208.55 272.32
  Q 208.06 272.31 208.56 272.31
  Q 303.41 272.20 398.25 272.31
  Q 400.03 272.31 398.50 272.33
  Q 391.09 272.46 383.69 272.47
  Z"
/>
</svg>
