<svg width="43" height="44" viewBox="0 0 43 44" fill="none" xmlns="http://www.w3.org/2000/svg">
<g clip-path="url(#clip0_37_376)">
<path fill-rule="evenodd" clip-rule="evenodd" d="M1.2 42.35C1.2 43.2608 1.9392 44 2.85 44H6.403C6.79375 44.0001 7.17186 43.8615 7.46998 43.6089C7.76811 43.3563 7.96692 43.0061 8.031 42.6206L8.9 37.4H33.1L33.969 42.6206C34.0331 43.0061 34.2319 43.3563 34.53 43.6089C34.8281 43.8615 35.2062 44.0001 35.597 44H39.15C39.5876 44 40.0073 43.8262 40.3167 43.5167C40.6262 43.2073 40.8 42.7876 40.8 42.35V17.6L42.516 15.884C42.8255 15.5749 42.9996 15.1555 43 14.718V10.45C43 10.0124 42.8262 9.59271 42.5167 9.28327C42.2073 8.97384 41.7876 8.8 41.35 8.8H40.8V6.611C40.8 4.0348 39.0092 1.8084 36.466 1.3904C32.6578 0.7634 26.83 0 21 0C15.17 0 9.3422 0.7634 5.534 1.3904C2.9908 1.8084 1.2 4.0348 1.2 6.611V8.8H0.65C0.212393 8.8 -0.207291 8.97384 -0.516726 9.28327C-0.826161 9.59271 -1 10.0124 -1 10.45V14.718C-1 15.1536 -0.8262 15.5738 -0.516 15.884L1.2 17.6V42.35ZM12.2 27.5C12.2 28.3752 11.8523 29.2146 11.2335 29.8335C10.6146 30.4523 9.77521 30.8 8.9 30.8C8.02479 30.8 7.18542 30.4523 6.56655 29.8335C5.94768 29.2146 5.6 28.3752 5.6 27.5C5.6 26.6248 5.94768 25.7854 6.56655 25.1665C7.18542 24.5477 8.02479 24.2 8.9 24.2C9.77521 24.2 10.6146 24.5477 11.2335 25.1665C11.8523 25.7854 12.2 26.6248 12.2 27.5ZM33.1 30.8C33.9752 30.8 34.8146 30.4523 35.4335 29.8335C36.0523 29.2146 36.4 28.3752 36.4 27.5C36.4 26.6248 36.0523 25.7854 35.4335 25.1665C34.8146 24.5477 33.9752 24.2 33.1 24.2C32.2248 24.2 31.3854 24.5477 30.7665 25.1665C30.1477 25.7854 29.8 26.6248 29.8 27.5C29.8 28.3752 30.1477 29.2146 30.7665 29.8335C31.3854 30.4523 32.2248 30.8 33.1 30.8ZM5.6 6.919V19.8H36.4V6.919C36.4 6.105 35.806 5.412 34.9964 5.3086C32.4312 4.9786 26.7156 4.3362 21 4.3362C15.2844 4.3362 9.5688 4.9764 7.0036 5.3086C6.61365 5.36004 6.25589 5.55203 5.99745 5.84854C5.73902 6.14504 5.59769 6.52568 5.6 6.919Z" fill="white"/>
</g>
<defs>
<clipPath id="clip0_37_376">
<rect width="42.7877" height="42.7877" fill="white" transform="translate(0 0.553101)"/>
</clipPath>
</defs>
</svg>
