<svg width="43" height="43" viewBox="0 0 43 43" fill="none" xmlns="http://www.w3.org/2000/svg">
<path d="M23.1767 9.12643C23.1767 11.0957 18.7867 12.6921 13.3712 12.6921C7.95575 12.6921 3.56567 11.0957 3.56567 9.12643M23.1767 9.12643C23.1767 7.15718 18.7867 5.56079 13.3712 5.56079C7.95575 5.56079 3.56567 7.15718 3.56567 9.12643M23.1767 9.12643V11.8007M3.56567 9.12643V30.5203C3.56567 32.4896 7.95575 34.0859 13.3712 34.0859M13.3712 19.8234C13.0707 19.8234 12.7734 19.8184 12.4798 19.8087C7.48209 19.6451 3.56567 18.1177 3.56567 16.2577M13.3712 26.9546C7.95575 26.9546 3.56567 25.3583 3.56567 23.389M39.2221 20.7148C39.2221 22.6841 34.8321 24.2804 29.4166 24.2804C24.0011 24.2804 19.6111 22.6841 19.6111 20.7148M39.2221 20.7148C39.2221 18.7455 34.8321 17.1491 29.4166 17.1491C24.0011 17.1491 19.6111 18.7455 19.6111 20.7148M39.2221 20.7148V34.0859C39.2221 36.0552 34.8321 37.6516 29.4166 37.6516C24.0011 37.6516 19.6111 36.0552 19.6111 34.0859V20.7148M39.2221 27.4004C39.2221 29.3697 34.8321 30.966 29.4166 30.966C24.0011 30.966 19.6111 29.3697 19.6111 27.4004" stroke="white" stroke-width="4.65084" stroke-linecap="round" stroke-linejoin="round"/>
</svg>
