<svg width="43" height="43" viewBox="0 0 43 43" fill="none" xmlns="http://www.w3.org/2000/svg">
<path d="M16.0462 3.5658H7.13163C5.16227 3.5658 3.5658 5.16227 3.5658 7.13163V19.612C3.5658 21.5814 5.16227 23.1779 7.13163 23.1779H16.0462C18.0156 23.1779 19.612 21.5814 19.612 19.612V7.13163C19.612 5.16227 18.0156 3.5658 16.0462 3.5658Z" fill="white"/>
<path d="M35.6584 3.5658H26.7438C24.7745 3.5658 23.178 5.16227 23.178 7.13163V12.4804C23.178 14.4497 24.7745 16.0462 26.7438 16.0462H35.6584C37.6277 16.0462 39.2242 14.4497 39.2242 12.4804V7.13163C39.2242 5.16227 37.6277 3.5658 35.6584 3.5658Z" fill="white"/>
<path d="M16.0462 26.7438H7.13163C5.16227 26.7438 3.5658 28.3403 3.5658 30.3096V35.6584C3.5658 37.6277 5.16227 39.2242 7.13163 39.2242H16.0462C18.0156 39.2242 19.612 37.6277 19.612 35.6584V30.3096C19.612 28.3403 18.0156 26.7438 16.0462 26.7438Z" fill="white"/>
<path d="M35.6584 19.6121H26.7438C24.7745 19.6121 23.178 21.2085 23.178 23.1779V35.6583C23.178 37.6277 24.7745 39.2241 26.7438 39.2241H35.6584C37.6277 39.2241 39.2242 37.6277 39.2242 35.6583V23.1779C39.2242 21.2085 37.6277 19.6121 35.6584 19.6121Z" fill="white"/>
</svg>
