<?xml version="1.0" encoding="UTF-8" standalone="no"?>
<!DOCTYPE svg PUBLIC "-//W3C//DTD SVG 1.1//EN" "http://www.w3.org/Graphics/SVG/1.1/DTD/svg11.dtd">
<svg xmlns="http://www.w3.org/2000/svg" version="1.1" viewBox="0 0 512 512">
<path fill="#ffffff" d="
  M 64.06 384.56
  Q 64.01 406.42 63.95 428.28
  Q 63.93 435.08 62.53 438.39
  Q 59.99 444.36 54.00 446.70
  Q 48.57 448.81 42.94 447.01
  Q 36.14 444.83 33.39 438.18
  Q 32.00 434.83 32.00 428.11
  Q 32.00 345.44 32.00 262.77
  Q 32.00 251.24 33.39 245.33
  Q 39.06 221.28 63.52 211.23
  A 0.78 0.78 78.5 0 0 64.00 210.51
  Q 64.00 166.88 64.01 123.75
  Q 64.01 113.18 68.44 103.62
  Q 76.96 85.25 94.64 78.46
  Q 100.37 76.26 114.14 74.28
  Q 261.81 53.12 408.19 75.81
  Q 417.75 77.29 426.46 83.34
  Q 442.81 94.70 446.78 113.08
  Q 448.00 118.74 448.00 133.01
  Q 448.00 171.54 448.00 210.30
  A 0.93 0.93 -78.6 0 0 448.57 211.16
  Q 472.95 221.43 478.57 245.30
  Q 480.00 251.37 480.00 263.81
  Q 480.04 346.06 479.94 428.30
  Q 479.94 435.06 478.54 438.37
  Q 476.00 444.35 470.01 446.69
  Q 464.58 448.81 458.94 447.01
  Q 452.14 444.83 449.39 438.18
  Q 448.00 434.83 448.00 428.11
  Q 448.00 406.98 448.00 385.26
  A 1.26 1.26 0.0 0 0 446.74 384.00
  L 64.56 384.06
  A 0.50 0.50 0.0 0 0 64.06 384.56
  Z
  M 251.06 96.13
  Q 179.21 96.47 110.00 107.25
  Q 100.58 108.72 97.28 116.98
  Q 96.25 119.54 96.10 123.28
  Q 96.00 125.95 96.00 129.75
  Q 96.04 189.58 96.18 207.31
  A 0.52 0.51 89.4 0 0 96.69 207.82
  L 127.44 207.94
  A 0.50 0.49 -89.4 0 0 127.94 207.44
  Q 128.02 195.27 128.01 183.09
  Q 128.01 171.98 129.43 167.05
  Q 133.07 154.47 144.88 147.97
  Q 148.83 145.79 153.02 144.89
  Q 157.16 144.00 161.75 144.00
  Q 184.37 144.00 207.00 144.11
  Q 221.91 144.18 231.20 154.17
  Q 235.80 159.12 237.93 165.21
  Q 240.00 171.14 240.00 178.25
  Q 240.00 192.50 240.00 207.44
  A 0.56 0.56 0.0 0 0 240.56 208.00
  L 271.44 208.00
  A 0.56 0.56 0.0 0 0 272.00 207.44
  Q 272.00 195.30 272.00 183.26
  Q 272.00 171.92 273.48 166.89
  Q 277.14 154.43 288.89 147.96
  Q 292.84 145.79 297.02 144.89
  Q 301.16 144.00 305.75 144.00
  Q 328.37 144.00 351.00 144.11
  Q 365.91 144.18 375.20 154.17
  Q 379.80 159.12 381.93 165.21
  Q 384.00 171.14 384.00 178.25
  Q 384.00 192.50 384.00 207.44
  A 0.56 0.56 0.0 0 0 384.56 208.00
  L 415.44 208.00
  A 0.56 0.56 0.0 0 0 416.00 207.44
  Q 416.00 167.48 416.00 127.68
  Q 416.00 120.91 415.01 117.94
  Q 413.27 112.69 408.82 109.83
  Q 405.45 107.65 395.72 106.24
  Q 323.79 95.78 251.06 96.13
  Z
  M 208.00 176.32
  A 0.32 0.32 0.0 0 0 207.68 176.00
  L 160.32 176.00
  A 0.32 0.32 0.0 0 0 160.00 176.32
  L 160.00 207.68
  A 0.32 0.32 0.0 0 0 160.32 208.00
  L 207.68 208.00
  A 0.32 0.32 0.0 0 0 208.00 207.68
  L 208.00 176.32
  Z
  M 352.00 176.32
  A 0.32 0.32 0.0 0 0 351.68 176.00
  L 304.32 176.00
  A 0.32 0.32 0.0 0 0 304.00 176.32
  L 304.00 207.68
  A 0.32 0.32 0.0 0 0 304.32 208.00
  L 351.68 208.00
  A 0.32 0.32 0.0 0 0 352.00 207.68
  L 352.00 176.32
  Z
  M 441.32 243.17
  Q 437.08 240.00 431.25 240.00
  Q 257.88 240.00 84.50 239.81
  Q 78.54 239.81 77.00 240.25
  Q 67.23 243.07 64.78 251.29
  Q 64.00 253.93 64.00 266.29
  Q 64.00 276.81 64.00 287.13
  A 0.87 0.87 0.0 0 0 64.87 288.00
  L 447.50 288.00
  A 0.50 0.50 0.0 0 0 448.00 287.50
  Q 448.00 274.00 448.00 260.49
  Q 448.00 253.67 447.16 251.10
  Q 445.61 246.38 441.32 243.17
  Z
  M 64.68 351.81
  L 447.45 351.94
  A 0.50 0.49 -90.0 0 0 447.94 351.44
  L 448.00 321.26
  A 1.27 1.26 -0.0 0 0 446.73 320.00
  L 64.56 320.06
  A 0.51 0.51 -0.2 0 0 64.05 320.57
  L 64.18 351.32
  A 0.50 0.49 0.0 0 0 64.68 351.81
  Z"
/>
</svg>
