<svg width="134" height="134" viewBox="0 0 134 134" fill="none" xmlns="http://www.w3.org/2000/svg">
<g clip-path="url(#clip0_296_5217)">
<path d="M88.2166 40.1628C87.7242 40.1607 87.237 40.061 86.7833 39.8693C86.3297 39.6776 85.9186 39.3978 85.5739 39.0461L57.9177 11.39C57.2218 10.6792 56.8367 9.72108 56.8471 8.72635C56.8576 7.73163 57.2628 6.78181 57.9736 6.08583C58.6844 5.38986 59.6425 5.00475 60.6372 5.01522C61.632 5.02569 62.5818 5.43089 63.2777 6.14167L90.9711 33.7978C91.6643 34.4952 92.0535 35.4386 92.0535 36.4219C92.0535 37.4053 91.6643 38.3487 90.9711 39.0461C90.6133 39.4115 90.1841 39.6992 89.7101 39.8913C89.2362 40.0834 88.7278 40.1758 88.2166 40.1628Z" fill="white"/>
<path d="M39.7905 88.5517C38.814 88.5476 37.8782 88.1599 37.1849 87.4723L9.49161 59.8162C8.79071 59.1004 8.40282 58.1356 8.41329 57.1339C8.42376 56.1322 8.83173 55.1757 9.54745 54.4748C10.2632 53.7739 11.228 53.386 12.2297 53.3964C13.2314 53.4069 14.1879 53.8149 14.8888 54.5306L42.5449 82.1867C43.0699 82.7073 43.4279 83.3725 43.5733 84.0974C43.7187 84.8223 43.645 85.5741 43.3615 86.2569C43.078 86.9397 42.5976 87.5226 41.9815 87.9313C41.3653 88.34 40.6415 88.556 39.9022 88.5517H39.7905Z" fill="white"/>
<path d="M76.8266 115.389L78.6877 121.977C78.8183 122.465 78.8355 122.976 78.7383 123.472C78.641 123.967 78.4317 124.434 78.1264 124.836C77.8211 125.239 77.4279 125.566 76.9769 125.793C76.5258 126.02 76.0288 126.141 75.5238 126.146H13.6605C13.1556 126.141 12.6586 126.02 12.2075 125.793C11.7564 125.566 11.3632 125.239 11.0579 124.836C10.7527 124.434 10.5434 123.967 10.4461 123.472C10.3488 122.976 10.3661 122.465 10.4966 121.977L12.395 115.389C12.7439 114.214 13.4674 113.185 14.4552 112.459C15.443 111.734 16.641 111.351 17.8666 111.369H71.3177C72.5468 111.355 73.7475 111.739 74.7404 112.463C75.7333 113.188 76.4652 114.214 76.8266 115.389Z" fill="white"/>
<path d="M119.818 104.52L68.6006 53.8233L79.7672 42.6567L54.0467 16.75L20.77 50.0267L46.565 75.8589L58.5134 63.9478L109.657 114.57C110.318 115.238 111.107 115.767 111.977 116.125C112.846 116.483 113.779 116.663 114.719 116.654C116.131 116.668 117.515 116.262 118.695 115.486C119.874 114.711 120.797 113.601 121.344 112.3C121.891 110.998 122.038 109.563 121.766 108.178C121.494 106.792 120.816 105.519 119.818 104.52Z" fill="white"/>
</g>
<defs>
<clipPath id="clip0_296_5217">
<rect width="134" height="134" fill="white"/>
</clipPath>
</defs>
</svg>
