<svg width="148" height="148" viewBox="0 0 148 148" fill="none" xmlns="http://www.w3.org/2000/svg">
<g style="mix-blend-mode:darken">
<path d="M87.635 143.798C91.955 140.263 96.079 134.914 99.5819 128.135C100.745 125.888 101.813 123.407 102.834 120.846H78.2178V147.679C79.4507 147.615 80.668 147.521 81.8852 147.411C83.8104 146.532 85.7338 145.353 87.635 143.798Z" fill="black" fill-opacity="0.05"/>
<path d="M37.5684 70.2452H70.3397V35.4248H42.9577C39.8309 45.66 37.89 57.5358 37.5684 70.2452Z" fill="black" fill-opacity="0.05"/>
<path d="M37.2457 120.846H17.365C18.8808 122.708 20.5232 124.514 22.2358 126.227C29.8942 133.901 39.2255 139.855 49.6335 143.555C46.8062 140.122 44.2451 136.179 41.9668 131.748C40.2144 128.378 38.6746 124.726 37.2457 120.846Z" fill="black" fill-opacity="0.05"/>
<path d="M60.8959 143.798C62.798 145.353 64.7214 146.532 66.6466 147.411C67.8796 147.521 69.0978 147.615 70.3381 147.679V120.846H45.6577C49.7503 131.081 55.1156 139.069 60.8959 143.798Z" fill="black" fill-opacity="0.05"/>
<path d="M42.9171 112.96H70.3388V78.1326H37.5518C37.8734 90.8402 39.7986 102.718 42.9171 112.96Z" fill="black" fill-opacity="0.05"/>
<path d="M110.964 78.1313H78.2178V112.959H105.6C108.702 102.717 110.627 90.8565 110.964 78.1313Z" fill="black" fill-opacity="0.05"/>
<path d="M98.8916 143.555C109.307 139.855 118.638 133.901 126.32 126.227C128.032 124.514 129.651 122.708 131.191 120.846H111.286C108.034 129.785 103.887 137.515 98.8916 143.555Z" fill="black" fill-opacity="0.05"/>
<path d="M105.615 35.4248H78.2178V70.2452H111.003C110.658 57.5358 108.75 45.66 105.615 35.4248Z" fill="black" fill-opacity="0.05"/>
<path d="M118.843 70.2452H147.765C147.097 57.496 143.162 45.6286 136.823 35.4248H113.856C116.809 45.9114 118.537 57.7252 118.843 70.2452Z" fill="black" fill-opacity="0.05"/>
<path d="M111.287 27.5308H131.192C129.652 25.6611 128.034 23.8708 126.321 22.1581C118.647 14.4923 109.315 8.53739 98.9158 4.8302C101.736 8.25549 104.304 12.2141 106.567 16.6283C108.317 19.9898 109.88 23.6665 111.287 27.5308Z" fill="black" fill-opacity="0.05"/>
<path d="M87.635 4.57881C85.7338 3.039 83.8095 1.86057 81.8852 0.981602C80.667 0.871615 79.4507 0.777344 78.2178 0.706177V27.5308H102.874C98.8046 17.2873 93.4245 9.29899 87.635 4.57881Z" fill="black" fill-opacity="0.05"/>
<path d="M113.839 112.96H136.823C143.161 102.749 147.097 90.8882 147.764 78.1326H118.882C118.552 90.6682 116.785 102.466 113.839 112.96Z" fill="black" fill-opacity="0.05"/>
<path d="M45.7058 27.5308H70.3391V0.706177C69.0978 0.777344 67.8805 0.870691 66.6476 0.981602C64.7233 1.86057 62.799 3.039 60.8969 4.57881C56.5769 8.11409 52.4695 13.4702 48.9657 20.2412C47.7946 22.5038 46.7179 24.9781 45.7058 27.5308Z" fill="black" fill-opacity="0.05"/>
<path d="M34.6924 35.4248H11.7089C5.37037 45.6286 1.4506 57.4969 0.767578 70.2452H29.6496C29.9796 57.7169 31.7468 45.9114 34.6924 35.4248Z" fill="black" fill-opacity="0.05"/>
<path d="M49.6409 4.8302C39.2412 8.52167 29.9016 14.4923 22.2358 22.1581C20.5232 23.8708 18.8817 25.6611 17.365 27.5308H37.2457C40.4982 18.6071 44.6693 10.8628 49.6409 4.8302Z" fill="black" fill-opacity="0.05"/>
<path d="M34.6924 112.96C31.7237 102.466 30.011 90.6692 29.6894 78.1326H0.767578C1.4506 90.8891 5.37037 102.749 11.7089 112.96H34.6924Z" fill="black" fill-opacity="0.05"/>
</g>
</svg>
