<svg width="64" height="52" viewBox="0 0 64 52" fill="none" xmlns="http://www.w3.org/2000/svg">
<g filter="url(#filter0_d_243_5284)">
<path d="M57.7399 7.17636L34.9334 0.423453C33.0274 -0.141151 30.9666 -0.141151 29.0606 0.423453L6.25306 7.17636C5.63673 7.35896 5.10067 7.70918 4.72081 8.17743C4.34094 8.64568 4.13651 9.20822 4.13647 9.78539V13.9971L29.7735 7.16433C31.2274 6.77761 32.7646 6.77761 34.2214 7.16433L59.8565 13.9971V9.78539C59.8565 8.60205 59.0043 7.55104 57.7399 7.17636ZM30.6635 9.79914L4.13647 16.8692V36.4954C4.13647 37.7844 5.14447 38.8999 6.56068 39.18L29.9824 43.8034C31.3093 44.0655 32.6847 44.0655 34.0115 43.8034L57.4333 39.18C58.8495 38.9007 59.8575 37.7844 59.8575 36.4954V16.8683L33.3324 9.79914C32.4579 9.5654 31.5341 9.5654 30.6635 9.79914ZM16.5187 19.7747C16.5187 20.0849 16.2856 20.3565 15.9489 20.4381L8.21004 22.3132C7.71765 22.4318 7.23203 22.1027 7.23203 21.6498V20.225C7.23203 19.9147 7.46517 19.6432 7.80181 19.5615L15.5407 17.6864C16.0331 17.567 16.5187 17.8961 16.5187 18.3498V19.7747ZM30.4487 16.3991C30.4487 16.7093 30.2156 16.9809 29.8789 17.0625L20.5923 19.3123C20.0999 19.4318 19.6143 19.1026 19.6143 18.6489V17.2241C19.6143 16.9138 19.8474 16.6423 20.184 16.5606L29.4707 14.3108C29.9631 14.1914 30.4487 14.5205 30.4487 14.9742V16.3991ZM47.4743 18.3498C47.4743 17.8961 47.9599 17.567 48.4523 17.6864L56.1912 19.5615C56.5278 19.6432 56.761 19.9147 56.761 20.225V21.6498C56.761 22.1036 56.2753 22.4327 55.783 22.3132L48.0441 20.4381C47.8803 20.3984 47.7358 20.3119 47.6328 20.192C47.5299 20.0721 47.4742 19.9255 47.4743 19.7747V18.3498ZM33.5443 14.9751C33.5443 14.5214 34.0299 14.1922 34.5223 14.3117L43.8089 16.5615C44.1456 16.6431 44.3787 16.9147 44.3787 17.2249V18.6498C44.3787 19.1035 43.8931 19.4326 43.4007 19.3132L34.114 17.0634C33.9503 17.0236 33.8058 16.9372 33.7028 16.8173C33.5999 16.6974 33.5442 16.5507 33.5443 16.3999V14.9751Z" fill="black"/>
</g>
<defs>
<filter id="filter0_d_243_5284" x="0.136475" y="0" width="63.7209" height="52" filterUnits="userSpaceOnUse" color-interpolation-filters="sRGB">
<feFlood flood-opacity="0" result="BackgroundImageFix"/>
<feColorMatrix in="SourceAlpha" type="matrix" values="0 0 0 0 0 0 0 0 0 0 0 0 0 0 0 0 0 0 127 0" result="hardAlpha"/>
<feOffset dy="4"/>
<feGaussianBlur stdDeviation="2"/>
<feComposite in2="hardAlpha" operator="out"/>
<feColorMatrix type="matrix" values="0 0 0 0 0 0 0 0 0 0 0 0 0 0 0 0 0 0 0.25 0"/>
<feBlend mode="normal" in2="BackgroundImageFix" result="effect1_dropShadow_243_5284"/>
<feBlend mode="normal" in="SourceGraphic" in2="effect1_dropShadow_243_5284" result="shape"/>
</filter>
</defs>
</svg>
