<svg width="40" height="35" viewBox="0 0 40 35" fill="none" xmlns="http://www.w3.org/2000/svg">
<path d="M31.3317 12.8699C27.6933 10.8611 24.4251 8.24513 21.6683 5.13495C21.465 4.88959 21.2101 4.6921 20.9217 4.55654C20.6334 4.42099 20.3186 4.35071 20 4.35071C19.6814 4.35071 19.3666 4.42099 19.0783 4.55654C18.7899 4.6921 18.535 4.88959 18.3317 5.13495C15.5749 8.24513 12.3067 10.8611 8.66833 12.8699C2.97 15.9466 0.5 19.4999 0.5 24.5483C0.636292 27.615 1.43456 30.6159 2.84 33.3449C3.00587 33.7366 3.28332 34.0707 3.63778 34.3057C3.99224 34.5408 4.40804 34.6663 4.83333 34.6666H35.1667C35.592 34.6663 36.0078 34.5408 36.3622 34.3057C36.7167 34.0707 36.9941 33.7366 37.16 33.3449C38.5654 30.6159 39.3637 27.615 39.5 24.5483C39.5 19.4999 37.03 15.9466 31.3317 12.8699Z" fill="black"/>
<rect x="19" width="2" height="5" fill="black"/>
</svg>
