<svg width="43" height="43" viewBox="0 0 43 43" fill="none" xmlns="http://www.w3.org/2000/svg">
<g clip-path="url(#clip0_37_378)">
<path d="M22.6027 23.3842C22.9933 23.0647 23.3662 22.581 23.6829 21.9681C23.7881 21.7649 23.8847 21.5405 23.977 21.309H21.7512V23.7352C21.8627 23.7294 21.9728 23.7209 22.0828 23.7109C22.2569 23.6314 22.4308 23.5249 22.6027 23.3842Z" fill="white"/>
<path d="M18.0757 16.7337H21.0388V13.5853H18.563C18.2803 14.5108 18.1048 15.5846 18.0757 16.7337Z" fill="white"/>
<path d="M18.0466 21.309H16.249C16.3861 21.4774 16.5346 21.6406 16.6894 21.7955C17.3819 22.4894 18.2256 23.0277 19.1667 23.3623C18.9111 23.0519 18.6795 22.6954 18.4735 22.2947C18.315 21.9901 18.1758 21.6598 18.0466 21.309Z" fill="white"/>
<path d="M20.1849 23.3842C20.3569 23.5249 20.5308 23.6314 20.7049 23.7109C20.8164 23.7209 20.9265 23.7294 21.0387 23.7352V21.309H18.8071C19.1772 22.2344 19.6623 22.9567 20.1849 23.3842Z" fill="white"/>
<path d="M18.5593 20.596H21.0388V17.4469H18.0742C18.1033 18.5959 18.2774 19.6699 18.5593 20.596Z" fill="white"/>
<path d="M24.7121 17.4468H21.7512V20.5959H24.2271C24.5076 19.6698 24.6816 18.5974 24.7121 17.4468Z" fill="white"/>
<path d="M23.6205 23.3623C24.5622 23.0277 25.406 22.4894 26.1005 21.7955C26.2554 21.6406 26.4017 21.4774 26.5409 21.309H24.7412C24.4472 22.1172 24.0722 22.8161 23.6205 23.3623Z" fill="white"/>
<path d="M24.2285 13.5853H21.7512V16.7337H24.7156C24.6844 15.5846 24.5119 14.5108 24.2285 13.5853Z" fill="white"/>
<path d="M25.4245 16.7337H28.0395C27.9792 15.581 27.6233 14.5079 27.0502 13.5853H24.9735C25.2405 14.5335 25.3968 15.6017 25.4245 16.7337Z" fill="white"/>
<path d="M24.7413 12.8715H26.541C26.4018 12.7025 26.2555 12.5406 26.1006 12.3857C25.4067 11.6926 24.563 11.1542 23.6227 10.819C23.8777 11.1287 24.1099 11.4866 24.3145 11.8857C24.4728 12.1897 24.6141 12.5221 24.7413 12.8715Z" fill="white"/>
<path d="M22.6027 10.7962C22.4308 10.657 22.2568 10.5504 22.0828 10.4709C21.9727 10.461 21.8627 10.4525 21.7512 10.446V12.8715H23.9806C23.6127 11.9453 23.1262 11.223 22.6027 10.7962Z" fill="white"/>
<path d="M24.972 20.596H27.0502C27.6233 19.6727 27.9791 18.6002 28.0395 17.4469H25.428C25.3982 18.5804 25.2384 19.6471 24.972 20.596Z" fill="white"/>
<path d="M18.8307 31.2238L18.1603 33.2998H19.5296L18.8576 31.2238H18.8307Z" fill="white"/>
<path d="M32.9671 0H9.82075C6.97411 0 4.6665 2.30753 4.6665 5.15408V37.6343C4.6665 40.4802 6.97411 42.7877 9.82075 42.7877H32.9671C35.8136 42.7877 38.1211 40.4802 38.1211 37.6343V5.15408C38.1211 2.30753 35.8136 0 32.9671 0ZM21.3946 8.75075C26.0004 8.75075 29.7341 12.4836 29.7341 17.0903C29.7341 21.6975 26.0004 25.4298 21.3946 25.4305C16.7874 25.4298 13.0551 21.6975 13.0536 17.0903C13.0551 12.4836 16.7874 8.75075 21.3946 8.75075ZM13.7085 33.3957H12.6531C12.6177 33.3957 12.6005 33.4128 12.6005 33.4475V35.4276C12.6005 35.4802 12.5665 35.515 12.514 35.515H11.4059C11.3534 35.515 11.3179 35.4802 11.3179 35.4276V29.6713C11.3179 29.6187 11.3533 29.5839 11.4059 29.5839H13.7085C14.9997 29.5839 15.7753 30.3601 15.7753 31.4937C15.7753 32.6102 14.9911 33.3957 13.7085 33.3957ZM21.4656 35.515H20.3321C20.271 35.515 20.2355 35.4887 20.2184 35.4276L19.8775 34.3899H17.8022L17.4698 35.4276C17.4528 35.4887 17.4187 35.515 17.3576 35.515H16.2142C16.1531 35.515 16.136 35.4802 16.1531 35.4276L18.1942 29.6713C18.2113 29.6187 18.2468 29.5839 18.3078 29.5839H19.4073C19.4684 29.5839 19.5025 29.6187 19.5209 29.6713L21.5266 35.4276C21.5437 35.4802 21.5267 35.515 21.4656 35.515ZM24.2156 35.6109C23.2908 35.6109 22.3931 35.2444 21.9301 34.7998C21.896 34.765 21.8775 34.7039 21.9215 34.6514L22.5849 33.8928C22.619 33.8488 22.6716 33.8488 22.7156 33.8836C23.1077 34.1982 23.6403 34.4943 24.2681 34.4943C24.8875 34.4943 25.2369 34.2067 25.2369 33.7877C25.2369 33.4389 25.0267 33.2209 24.3207 33.125L24.0067 33.0817C22.8021 32.9155 22.1302 32.3488 22.1302 31.3018C22.1302 30.2116 22.9512 29.4879 24.2325 29.4879C25.018 29.4879 25.751 29.7229 26.2481 30.1073C26.3006 30.142 26.3091 30.1769 26.2652 30.238L25.7339 31.0313C25.6985 31.0752 25.6544 31.0838 25.6118 31.0575C25.1573 30.7614 24.7212 30.6044 24.2326 30.6044C23.7099 30.6044 23.4399 30.8743 23.4399 31.2493C23.4399 31.5895 23.6843 31.8076 24.3633 31.9042L24.6785 31.9475C25.8987 32.113 26.5451 32.6713 26.5451 33.7444C26.5452 34.8175 25.7512 35.6109 24.2156 35.6109ZM29.4088 35.6109C28.4841 35.6109 27.5849 35.2444 27.1234 34.7998C27.0878 34.765 27.0708 34.7039 27.1148 34.6514L27.7767 33.8928C27.8121 33.8488 27.8648 33.8488 27.9074 33.8836C28.3009 34.1982 28.8321 34.4943 29.46 34.4943C30.0792 34.4943 30.4287 34.2067 30.4287 33.7877C30.4287 33.4389 30.2199 33.2209 29.5125 33.125L29.1986 33.0817C27.9954 32.9155 27.3236 32.3488 27.3236 31.3018C27.3236 30.2116 28.1432 29.4879 29.4259 29.4879C30.2114 29.4879 30.9428 29.7229 31.4401 30.1073C31.4926 30.142 31.5012 30.1769 31.4585 30.238L30.9259 31.0313C30.8918 31.0752 30.8478 31.0838 30.8037 31.0575C30.3506 30.7614 29.9145 30.6044 29.4259 30.6044C28.9017 30.6044 28.6318 30.8743 28.6318 31.2493C28.6318 31.5895 28.8761 31.8076 29.5565 31.9042L29.8704 31.9475C31.092 32.113 31.7368 32.6713 31.7368 33.7444C31.7369 34.8175 30.9428 35.6109 29.4088 35.6109Z" fill="white"/>
<path d="M18.8115 12.8715H21.0388V10.446C20.9266 10.4525 20.8165 10.4609 20.705 10.4709C20.5311 10.5504 20.3571 10.657 20.1851 10.7962C19.7945 11.1159 19.4231 11.6001 19.1063 12.2124C19.0004 12.417 18.903 12.6407 18.8115 12.8715Z" fill="white"/>
<path d="M13.6303 30.6912H12.653C12.6176 30.6912 12.6005 30.7089 12.6005 30.7437V32.2352C12.6005 32.27 12.6176 32.2877 12.653 32.2877H13.6303C14.1701 32.2877 14.4939 31.9738 14.4939 31.4936C14.4939 31.0142 14.1701 30.6912 13.6303 30.6912Z" fill="white"/>
<path d="M17.8157 13.5853H15.7376C15.1645 14.5079 14.81 15.5811 14.7483 16.7337H17.3598C17.3896 15.6009 17.5494 14.5335 17.8157 13.5853Z" fill="white"/>
<path d="M19.1674 10.819C18.227 11.1527 17.3826 11.6926 16.6894 12.3857C16.5346 12.5406 16.3862 12.7025 16.249 12.8715H18.0466C18.3407 12.0647 18.7178 11.3644 19.1674 10.819Z" fill="white"/>
<path d="M17.8157 20.596C17.5473 19.6471 17.3924 18.5804 17.3634 17.4469H14.7483C14.81 18.6003 15.1645 19.6727 15.7376 20.596H17.8157Z" fill="white"/>
</g>
<defs>
<clipPath id="clip0_37_378">
<rect width="42.7877" height="42.7877" fill="white"/>
</clipPath>
</defs>
</svg>
