<svg width="130" height="130" viewBox="0 0 130 130" fill="none" xmlns="http://www.w3.org/2000/svg">
<circle cx="65" cy="65" r="64.5" fill="white" stroke="#07399E"/>
<g clip-path="url(#clip0_1030_5529)">
<path d="M67.3495 68.7096C68.0295 68.1532 68.6787 67.3112 69.2301 66.2441C69.4131 65.8905 69.5813 65.4998 69.7421 65.0967H65.8672V69.3205C66.0612 69.3105 66.2528 69.2956 66.4445 69.2783C66.7475 69.1399 67.0503 68.9544 67.3495 68.7096Z" fill="url(#paint0_linear_1030_5529)"/>
<path d="M59.4684 57.132H64.627V51.6509H60.3168C59.8246 53.262 59.519 55.1314 59.4684 57.132Z" fill="url(#paint1_linear_1030_5529)"/>
<path d="M59.4177 65.0967H56.2882C56.5268 65.3898 56.7854 65.6741 57.055 65.9437C58.2605 67.1517 59.7293 68.0889 61.3677 68.6713C60.9226 68.131 60.5195 67.5103 60.1608 66.8129C59.885 66.2824 59.6426 65.7074 59.4177 65.0967Z" fill="url(#paint2_linear_1030_5529)"/>
<path d="M63.1405 68.7096C63.4399 68.9544 63.7426 69.1399 64.0457 69.2783C64.2398 69.2956 64.4315 69.3105 64.6268 69.3205V65.0967H60.7418C61.386 66.7078 62.2306 67.9653 63.1405 68.7096Z" fill="url(#paint3_linear_1030_5529)"/>
<path d="M60.3104 63.8558H64.6269V58.3735H59.4659C59.5165 60.3739 59.8195 62.2435 60.3104 63.8558Z" fill="url(#paint4_linear_1030_5529)"/>
<path d="M71.0218 58.3735H65.8672V63.8558H70.1774C70.6658 62.2437 70.9687 60.3766 71.0218 58.3735Z" fill="url(#paint5_linear_1030_5529)"/>
<path d="M69.1214 68.6713C70.7609 68.0889 72.2298 67.1517 73.4389 65.9437C73.7085 65.6741 73.9633 65.3898 74.2057 65.0967H71.0724C70.5606 66.5038 69.9078 67.7206 69.1214 68.6713Z" fill="url(#paint6_linear_1030_5529)"/>
<path d="M70.1799 51.6509H65.8672V57.132H71.0279C70.9736 55.1314 70.6732 53.262 70.1799 51.6509Z" fill="url(#paint7_linear_1030_5529)"/>
<path d="M72.262 57.132H76.8146C76.7095 55.1251 76.09 53.2571 75.0923 51.6509H71.4769C71.9417 53.3016 72.2138 55.1612 72.262 57.132Z" fill="url(#paint8_linear_1030_5529)"/>
<path d="M71.0725 50.4088H74.2057C73.9634 50.1145 73.7086 49.8326 73.439 49.5631C72.231 48.3564 70.7622 47.419 69.1252 46.8354C69.569 47.3746 69.9733 47.9978 70.3295 48.6926C70.6051 49.2217 70.8511 49.8005 71.0725 50.4088Z" fill="url(#paint9_linear_1030_5529)"/>
<path d="M67.3495 46.7956C67.0503 46.5532 66.7474 46.3677 66.4445 46.2294C66.2527 46.2121 66.0612 46.1972 65.8672 46.186V50.4085H69.7483C69.1078 48.7961 68.2609 47.5386 67.3495 46.7956Z" fill="url(#paint10_linear_1030_5529)"/>
<path d="M71.4744 63.8558H75.0922C76.09 62.2485 76.7095 60.3814 76.8145 58.3735H72.2682C72.2162 60.3468 71.938 62.204 71.4744 63.8558Z" fill="url(#paint11_linear_1030_5529)"/>
<path d="M60.7828 82.3589L59.6157 85.9731H61.9995L60.8296 82.3589H60.7828Z" fill="url(#paint12_linear_1030_5529)"/>
<path d="M85.3931 28H45.0972C40.1414 28 36.1241 32.0172 36.1241 36.9728V93.5183C36.1241 98.4728 40.1414 102.49 45.0972 102.49H85.3931C90.3487 102.49 94.3659 98.4728 94.3659 93.5183V36.9728C94.3659 32.0172 90.3487 28 85.3931 28ZM65.2463 43.2344C73.2646 43.2344 79.7647 49.733 79.7647 57.7528C79.7647 65.7737 73.2646 72.2712 65.2463 72.2725C57.2255 72.2712 50.7279 65.7737 50.7254 57.7528C50.7279 49.733 57.2255 43.2344 65.2463 43.2344ZM51.8654 86.1393H50.0281C49.9664 86.1393 49.9366 86.169 49.9366 86.2295V89.6767C49.9366 89.7682 49.8774 89.8287 49.7858 89.8287H47.8568C47.7654 89.8287 47.7036 89.7682 47.7036 89.6767V79.6553C47.7036 79.5638 47.7653 79.5031 47.8568 79.5031H51.8654C54.1134 79.5031 55.4635 80.8546 55.4635 82.828C55.4635 84.7717 54.0984 86.1393 51.8654 86.1393ZM65.37 89.8287H63.3966C63.2902 89.8287 63.2284 89.7831 63.1987 89.6767L62.6052 87.8702H58.9923L58.4136 89.6767C58.3839 89.7831 58.3245 89.8287 58.2182 89.8287H56.2276C56.1213 89.8287 56.0916 89.7682 56.1213 89.6767L59.6747 79.6553C59.7045 79.5638 59.7662 79.5031 59.8725 79.5031H61.7866C61.8929 79.5031 61.9523 79.5638 61.9844 79.6553L65.4762 89.6767C65.506 89.7682 65.4763 89.8287 65.37 89.8287ZM70.1574 89.9958C68.5474 89.9958 66.9847 89.3576 66.1786 88.5836C66.1192 88.5231 66.0871 88.4168 66.1636 88.3253L67.3185 87.0047C67.3778 86.9281 67.4695 86.9281 67.546 86.9887C68.2287 87.5364 69.1559 88.0519 70.2489 88.0519C71.3271 88.0519 71.9354 87.5511 71.9354 86.8216C71.9354 86.2145 71.5695 85.8349 70.3404 85.6681L69.7938 85.5926C67.6968 85.3033 66.527 84.3166 66.527 82.4939C66.527 80.596 67.9563 79.3361 70.1869 79.3361C71.5544 79.3361 72.8305 79.7452 73.696 80.4143C73.7873 80.4749 73.8022 80.5355 73.7256 80.6419L72.8008 82.023C72.7391 82.0995 72.6623 82.1144 72.5882 82.0687C71.7969 81.5531 71.0376 81.2798 70.1871 81.2798C69.277 81.2798 68.8071 81.7498 68.8071 82.4026C68.8071 82.9949 69.2325 83.3744 70.4146 83.5426L70.9634 83.618C73.0877 83.9062 74.213 84.8781 74.213 86.7463C74.2132 88.6145 72.8307 89.9958 70.1574 89.9958ZM79.1985 89.9958C77.5886 89.9958 76.0232 89.3576 75.2197 88.5836C75.1577 88.5231 75.1282 88.4168 75.2048 88.3253L76.3571 87.0047C76.4188 86.9281 76.5104 86.9281 76.5846 86.9887C77.2696 87.5364 78.1945 88.0519 79.2875 88.0519C80.3656 88.0519 80.974 87.5511 80.974 86.8216C80.974 86.2145 80.6104 85.8349 79.3789 85.6681L78.8324 85.5926C76.7378 85.3033 75.5682 84.3166 75.5682 82.4939C75.5682 80.596 76.9951 79.3361 79.2282 79.3361C80.5957 79.3361 81.8691 79.7452 82.7347 80.4143C82.8262 80.4749 82.8411 80.5355 82.7669 80.6419L81.8395 82.023C81.7802 82.0995 81.7036 82.1144 81.6268 82.0687C80.838 81.5531 80.0788 81.2798 79.2282 81.2798C78.3157 81.2798 77.8457 81.7498 77.8457 82.4026C77.8457 82.9949 78.271 83.3744 79.4556 83.5426L80.002 83.618C82.1288 83.9062 83.2513 84.8781 83.2513 86.7463C83.2515 88.6145 81.8691 89.9958 79.1985 89.9958Z" fill="url(#paint13_linear_1030_5529)"/>
<path d="M60.7493 50.4085H64.6269V46.186C64.4315 46.1972 64.2399 46.2119 64.0458 46.2294C63.7429 46.3677 63.44 46.5532 63.1406 46.7956C62.4606 47.3521 61.814 48.1952 61.2625 49.2611C61.0781 49.6172 60.9086 50.0067 60.7493 50.4085Z" fill="url(#paint14_linear_1030_5529)"/>
<path d="M51.7294 81.4307H50.028C49.9663 81.4307 49.9365 81.4615 49.9365 81.5222V84.1187C49.9365 84.1792 49.9663 84.2101 50.028 84.2101H51.7294C52.6691 84.2101 53.2329 83.6636 53.2329 82.8276C53.2329 81.9931 52.6691 81.4307 51.7294 81.4307Z" fill="url(#paint15_linear_1030_5529)"/>
<path d="M59.0157 51.6509H55.3978C54.4001 53.2571 53.7831 55.1253 53.6755 57.132H58.2219C58.2738 55.1599 58.552 53.3016 59.0157 51.6509Z" fill="url(#paint16_linear_1030_5529)"/>
<path d="M61.3688 46.8354C59.7318 47.4165 58.2616 48.3564 57.055 49.5631C56.7854 49.8326 56.527 50.1145 56.2882 50.4088H59.4177C59.9297 49.0041 60.5863 47.7851 61.3688 46.8354Z" fill="url(#paint17_linear_1030_5529)"/>
<path d="M59.0157 63.8558C58.5484 62.204 58.2788 60.3469 58.2282 58.3735H53.6755C53.7831 60.3816 54.4001 62.2485 55.3978 63.8558H59.0157Z" fill="url(#paint18_linear_1030_5529)"/>
</g>
<path d="M25 73H105" stroke="black" stroke-width="3" stroke-linecap="round"/>
<defs>
<linearGradient id="paint0_linear_1030_5529" x1="67.8046" y1="65.0967" x2="67.8046" y2="69.3205" gradientUnits="userSpaceOnUse">
<stop/>
<stop offset="0.604067"/>
<stop offset="0.635417" stop-color="#07399E"/>
</linearGradient>
<linearGradient id="paint1_linear_1030_5529" x1="62.0477" y1="51.6509" x2="62.0477" y2="57.132" gradientUnits="userSpaceOnUse">
<stop/>
<stop offset="0.604067"/>
<stop offset="0.635417" stop-color="#07399E"/>
</linearGradient>
<linearGradient id="paint2_linear_1030_5529" x1="58.828" y1="65.0967" x2="58.828" y2="68.6713" gradientUnits="userSpaceOnUse">
<stop/>
<stop offset="0.604067"/>
<stop offset="0.635417" stop-color="#07399E"/>
</linearGradient>
<linearGradient id="paint3_linear_1030_5529" x1="62.6843" y1="65.0967" x2="62.6843" y2="69.3205" gradientUnits="userSpaceOnUse">
<stop/>
<stop offset="0.604067"/>
<stop offset="0.635417" stop-color="#07399E"/>
</linearGradient>
<linearGradient id="paint4_linear_1030_5529" x1="62.0464" y1="58.3735" x2="62.0464" y2="63.8558" gradientUnits="userSpaceOnUse">
<stop/>
<stop offset="0.604067"/>
<stop offset="0.635417" stop-color="#07399E"/>
</linearGradient>
<linearGradient id="paint5_linear_1030_5529" x1="68.4445" y1="58.3735" x2="68.4445" y2="63.8558" gradientUnits="userSpaceOnUse">
<stop/>
<stop offset="0.604067"/>
<stop offset="0.635417" stop-color="#07399E"/>
</linearGradient>
<linearGradient id="paint6_linear_1030_5529" x1="71.6635" y1="65.0967" x2="71.6635" y2="68.6713" gradientUnits="userSpaceOnUse">
<stop/>
<stop offset="0.604067"/>
<stop offset="0.635417" stop-color="#07399E"/>
</linearGradient>
<linearGradient id="paint7_linear_1030_5529" x1="68.4475" y1="51.6509" x2="68.4475" y2="57.132" gradientUnits="userSpaceOnUse">
<stop/>
<stop offset="0.604067"/>
<stop offset="0.635417" stop-color="#07399E"/>
</linearGradient>
<linearGradient id="paint8_linear_1030_5529" x1="74.1457" y1="51.6509" x2="74.1457" y2="57.132" gradientUnits="userSpaceOnUse">
<stop/>
<stop offset="0.604067"/>
<stop offset="0.635417" stop-color="#07399E"/>
</linearGradient>
<linearGradient id="paint9_linear_1030_5529" x1="71.6654" y1="46.8354" x2="71.6654" y2="50.4088" gradientUnits="userSpaceOnUse">
<stop/>
<stop offset="0.604067"/>
<stop offset="0.635417" stop-color="#07399E"/>
</linearGradient>
<linearGradient id="paint10_linear_1030_5529" x1="67.8078" y1="46.186" x2="67.8078" y2="50.4085" gradientUnits="userSpaceOnUse">
<stop/>
<stop offset="0.604067"/>
<stop offset="0.635417" stop-color="#07399E"/>
</linearGradient>
<linearGradient id="paint11_linear_1030_5529" x1="74.1444" y1="58.3735" x2="74.1444" y2="63.8558" gradientUnits="userSpaceOnUse">
<stop/>
<stop offset="0.604067"/>
<stop offset="0.635417" stop-color="#07399E"/>
</linearGradient>
<linearGradient id="paint12_linear_1030_5529" x1="60.8076" y1="82.3589" x2="60.8076" y2="85.9731" gradientUnits="userSpaceOnUse">
<stop/>
<stop offset="0.604067"/>
<stop offset="0.635417" stop-color="#07399E"/>
</linearGradient>
<linearGradient id="paint13_linear_1030_5529" x1="65.245" y1="28" x2="65.245" y2="102.49" gradientUnits="userSpaceOnUse">
<stop/>
<stop offset="0.604067"/>
<stop offset="0.635417" stop-color="#07399E"/>
</linearGradient>
<linearGradient id="paint14_linear_1030_5529" x1="62.6881" y1="46.186" x2="62.6881" y2="50.4085" gradientUnits="userSpaceOnUse">
<stop/>
<stop offset="0.604067"/>
<stop offset="0.635417" stop-color="#07399E"/>
</linearGradient>
<linearGradient id="paint15_linear_1030_5529" x1="51.5847" y1="81.4307" x2="51.5847" y2="84.2101" gradientUnits="userSpaceOnUse">
<stop/>
<stop offset="0.604067"/>
<stop offset="0.635417" stop-color="#07399E"/>
</linearGradient>
<linearGradient id="paint16_linear_1030_5529" x1="56.3456" y1="51.6509" x2="56.3456" y2="57.132" gradientUnits="userSpaceOnUse">
<stop/>
<stop offset="0.604067"/>
<stop offset="0.635417" stop-color="#07399E"/>
</linearGradient>
<linearGradient id="paint17_linear_1030_5529" x1="58.8285" y1="46.8354" x2="58.8285" y2="50.4088" gradientUnits="userSpaceOnUse">
<stop/>
<stop offset="0.604067"/>
<stop offset="0.635417" stop-color="#07399E"/>
</linearGradient>
<linearGradient id="paint18_linear_1030_5529" x1="56.3456" y1="58.3735" x2="56.3456" y2="63.8558" gradientUnits="userSpaceOnUse">
<stop/>
<stop offset="0.604067"/>
<stop offset="0.635417" stop-color="#07399E"/>
</linearGradient>
<clipPath id="clip0_1030_5529">
<rect width="74.49" height="74.49" fill="white" transform="translate(28 28)"/>
</clipPath>
</defs>
</svg>
