<svg width="43" height="44" viewBox="0 0 43 44" fill="none" xmlns="http://www.w3.org/2000/svg">
<g clip-path="url(#clip0_37_374)">
<path fill-rule="evenodd" clip-rule="evenodd" d="M40.85 0C39.4734 0 38.1531 0.559579 37.1797 1.55564L30.9608 7.91921C30.4267 8.46565 29.6517 8.68532 28.919 8.49789L4.3 2.2L2.10928 4.44167C1.26965 5.30083 1.26965 6.69379 2.10928 7.55294C2.27268 7.72015 2.46136 7.8593 2.66805 7.96505L21.5 17.6L12.9 26.4H3.47877C2.66441 26.4 1.91995 26.8708 1.55575 27.6161L0 30.8L8.6 35.2L12.9 44L16.0115 42.4081C16.7399 42.0354 17.2 41.2736 17.2 40.4403V30.8L25.8 22L35.216 41.2699C35.747 42.3567 37.0385 42.7972 38.1005 42.2538C38.3072 42.148 38.4959 42.0089 38.6593 41.8417L40.85 39.6L34.6952 14.4084C34.5121 13.6587 34.7267 12.8657 35.2608 12.3192L41.4797 5.95563C42.4531 4.95958 43 3.60864 43 2.2C43 0.984974 42.0374 0 40.85 0Z" fill="white"/>
</g>
<defs>
<clipPath id="clip0_37_374">
<rect width="42.7877" height="42.7877" fill="white" transform="translate(0 0.65918)"/>
</clipPath>
</defs>
</svg>
