<?xml version="1.0" encoding="UTF-8" standalone="no"?>
<!DOCTYPE svg PUBLIC "-//W3C//DTD SVG 1.1//EN" "http://www.w3.org/Graphics/SVG/1.1/DTD/svg11.dtd">
<svg xmlns="http://www.w3.org/2000/svg" version="1.1" viewBox="0 0 512 512">
<path stroke="#ffffff" stroke-width="2.00" fill="none" stroke-linecap="butt" vector-effect="non-scaling-stroke" d="
  M 288.21 144.37
  A 0.12 0.12 0.0 0 0 288.09 144.25
  L 224.67 144.25
  A 0.12 0.12 0.0 0 0 224.55 144.37
  L 224.55 144.39
  A 0.12 0.12 0.0 0 0 224.67 144.51
  L 288.09 144.51
  A 0.12 0.12 0.0 0 0 288.21 144.39
  L 288.21 144.37"
/>
<path fill="#ffffff" d="
  M 96.06 384.57
  Q 95.95 408.04 95.98 431.50
  Q 95.99 439.24 90.14 444.13
  Q 85.57 447.95 80.12 447.95
  Q 74.96 447.96 70.57 444.77
  Q 64.00 440.00 64.00 430.50
  Q 64.00 346.31 64.00 262.12
  Q 64.00 251.30 65.36 245.51
  Q 71.09 221.19 95.48 211.12
  A 0.74 0.73 -11.4 0 0 95.94 210.44
  Q 96.05 166.85 96.03 123.25
  Q 96.03 114.41 98.86 106.32
  Q 101.63 98.39 107.25 91.66
  Q 116.92 80.07 131.45 75.91
  Q 134.81 74.94 151.12 72.37
  Q 257.69 55.59 364.23 72.90
  Q 377.87 75.12 380.24 75.74
  Q 388.51 77.92 395.19 82.56
  Q 409.88 92.78 414.37 109.93
  Q 415.74 115.15 415.81 124.21
  Q 416.17 166.80 416.00 210.14
  A 1.18 1.15 12.2 0 0 416.71 211.22
  Q 440.96 221.44 446.57 245.29
  Q 448.00 251.37 448.00 263.84
  Q 448.04 346.07 447.94 428.30
  Q 447.94 435.06 446.54 438.37
  Q 444.00 444.35 438.01 446.69
  Q 432.58 448.81 426.94 447.01
  Q 420.14 444.83 417.39 438.18
  Q 416.00 434.83 416.00 428.11
  Q 416.00 406.98 416.00 385.26
  A 1.26 1.26 0.0 0 0 414.74 384.00
  L 96.57 384.06
  A 0.51 0.51 0.0 0 0 96.06 384.57
  Z
  M 377.61 109.38
  Q 374.91 107.24 372.25 106.75
  Q 259.07 86.08 145.84 105.64
  Q 139.21 106.79 136.43 108.29
  Q 131.65 110.88 129.52 115.76
  Q 128.00 119.25 128.00 127.97
  Q 128.00 167.71 128.00 207.15
  A 0.85 0.85 0.0 0 0 128.85 208.00
  L 191.50 208.00
  A 0.50 0.50 0.0 0 0 192.00 207.50
  Q 192.00 192.25 192.00 177.00
  Q 192.00 163.72 200.31 154.56
  Q 209.79 144.13 224.75 144.09
  Q 256.25 144.00 287.75 144.00
  Q 301.10 144.00 310.24 153.11
  Q 315.02 157.86 317.47 163.80
  Q 319.98 169.89 319.98 176.75
  Q 320.00 192.13 320.00 207.50
  A 0.50 0.50 0.0 0 0 320.50 208.00
  L 383.42 208.00
  A 0.58 0.58 -89.9 0 0 384.00 207.42
  Q 384.18 165.08 383.79 123.13
  Q 383.74 118.21 382.53 115.58
  Q 380.87 111.96 377.61 109.38
  Z
  M 288.21 144.37
  A 0.12 0.12 0.0 0 0 288.09 144.25
  L 224.67 144.25
  A 0.12 0.12 0.0 0 0 224.55 144.37
  L 224.55 144.39
  A 0.12 0.12 0.0 0 0 224.67 144.51
  L 288.09 144.51
  A 0.12 0.12 0.0 0 0 288.21 144.39
  L 288.21 144.37
  Z
  M 288.00 176.32
  A 0.32 0.32 0.0 0 0 287.68 176.00
  L 224.32 176.00
  A 0.32 0.32 0.0 0 0 224.00 176.32
  L 224.00 207.68
  A 0.32 0.32 0.0 0 0 224.32 208.00
  L 287.68 208.00
  A 0.32 0.32 0.0 0 0 288.00 207.68
  L 288.00 176.32
  Z
  M 409.32 243.17
  Q 405.08 240.00 399.25 240.00
  Q 257.87 240.00 116.50 239.81
  Q 110.54 239.81 109.00 240.25
  Q 99.23 243.07 96.78 251.29
  Q 96.00 253.93 96.00 266.29
  Q 96.00 276.81 96.00 287.13
  A 0.87 0.87 0.0 0 0 96.87 288.00
  L 415.50 288.00
  A 0.50 0.50 0.0 0 0 416.00 287.50
  Q 416.00 274.00 416.00 260.49
  Q 416.00 253.67 415.16 251.10
  Q 413.61 246.38 409.32 243.17
  Z
  M 96.69 351.81
  L 415.43 351.94
  A 0.51 0.50 -0.0 0 0 415.94 351.44
  L 416.00 321.26
  A 1.27 1.26 -0.0 0 0 414.73 320.00
  L 96.57 320.06
  A 0.52 0.51 0.0 0 0 96.05 320.57
  L 96.18 351.32
  A 0.51 0.49 -0.0 0 0 96.69 351.81
  Z"
/>
<rect fill="#ffffff" x="224.55" y="144.25" width="63.66" height="0.26" rx="0.12"/>
</svg>
