<?xml version="1.0" encoding="UTF-8" standalone="no"?>
<!DOCTYPE svg PUBLIC "-//W3C//DTD SVG 1.1//EN" "http://www.w3.org/Graphics/SVG/1.1/DTD/svg11.dtd">
<svg xmlns="http://www.w3.org/2000/svg" version="1.1" viewBox="0 0 512 512">
<path stroke="#ffffff" stroke-width="2.00" fill="none" stroke-linecap="butt" vector-effect="non-scaling-stroke" d="
  M 484.81 192.81
  Q 484.70 288.40 484.75 383.99
  Q 484.75 384.27 484.80 384.50
  Q 485.02 385.56 485.02 383.50
  Q 485.14 288.15 484.81 192.80
  Q 484.81 192.31 484.81 192.81"
/>
<path fill="#ffffff" d="
  M 443.32 154.65
  Q 461.47 153.43 473.81 165.19
  Q 482.23 173.20 484.46 184.30
  Q 485.25 188.20 485.25 204.25
  Q 485.25 294.50 485.25 384.75
  Q 485.25 394.09 481.85 403.40
  Q 475.18 421.65 459.96 432.20
  Q 451.75 437.90 442.12 440.45
  Q 432.81 442.91 422.30 442.72
  A 1.04 1.03 0.3 0 0 421.25 443.75
  Q 421.25 456.50 421.25 467.75
  Q 421.25 473.42 418.86 477.53
  Q 416.49 481.61 411.69 483.89
  Q 403.43 487.82 395.31 481.69
  Q 392.16 479.31 390.58 475.43
  Q 389.51 472.81 389.39 467.92
  Q 389.07 455.71 389.32 443.26
  A 0.51 0.50 0.6 0 0 388.81 442.75
  L 123.31 442.81
  A 0.51 0.50 -90.0 0 0 122.81 443.32
  Q 122.70 455.41 122.72 467.50
  Q 122.74 481.36 110.19 484.94
  Q 107.29 485.76 103.83 485.06
  Q 100.78 484.43 98.09 482.65
  Q 92.20 478.74 90.97 472.03
  Q 90.76 470.88 90.76 459.93
  Q 90.77 451.72 90.70 444.04
  A 1.32 1.32 89.6 0 0 89.38 442.74
  Q 70.24 442.82 55.53 434.36
  Q 46.88 429.39 40.34 421.52
  Q 31.30 410.66 28.17 396.77
  Q 26.75 390.45 26.75 377.61
  Q 26.75 291.68 26.75 205.76
  Q 26.75 189.48 27.37 185.79
  Q 30.04 169.96 43.68 161.00
  Q 49.34 157.28 55.45 155.81
  Q 61.68 154.32 68.47 154.78
  A 0.74 0.73 -87.8 0 0 69.26 154.04
  Q 69.11 132.39 69.36 111.26
  Q 69.51 98.24 70.85 91.35
  Q 75.09 69.59 89.94 53.19
  Q 108.73 32.43 136.07 27.86
  Q 142.71 26.75 156.00 26.75
  Q 256.25 26.75 356.50 26.75
  Q 369.55 26.75 376.42 27.95
  Q 406.84 33.28 426.06 57.94
  Q 437.81 73.01 441.28 92.08
  Q 442.48 98.70 442.63 112.00
  Q 442.86 133.09 442.81 154.19
  A 0.47 0.46 -2.3 0 0 443.32 154.65
  Z
  M 396.06 72.44
  Q 384.54 61.24 369.23 59.16
  Q 366.22 58.75 349.25 58.75
  Q 252.54 58.75 155.82 58.75
  Q 143.61 58.75 137.80 60.19
  Q 125.11 63.33 115.83 72.46
  Q 109.79 78.40 106.01 86.05
  Q 102.01 94.16 101.50 102.50
  Q 100.85 113.11 101.31 156.70
  A 0.68 0.67 8.9 0 0 101.78 157.34
  Q 131.59 167.05 141.18 196.52
  A 1.05 1.04 -8.7 0 0 142.18 197.25
  L 370.00 197.25
  A 0.68 0.68 8.7 0 0 370.65 196.78
  Q 380.53 167.10 410.22 157.34
  A 0.69 0.68 -9.5 0 0 410.69 156.69
  Q 410.92 133.97 410.63 111.26
  Q 410.48 99.65 408.89 93.90
  Q 405.48 81.59 396.06 72.44
  Z
  M 102.59 193.15
  Q 95.26 186.87 85.50 186.81
  Q 75.13 186.75 64.75 186.65
  Q 61.12 186.62 59.62 189.10
  Q 58.75 190.52 58.75 194.06
  Q 58.75 286.88 58.75 379.70
  Q 58.75 387.87 60.11 392.15
  Q 64.29 405.31 78.17 409.56
  Q 80.46 410.26 83.41 410.50
  Q 86.45 410.75 88.75 410.75
  Q 257.00 410.75 425.25 410.61
  Q 442.73 410.60 450.47 395.33
  Q 453.25 389.86 453.25 381.50
  Q 453.25 287.38 453.25 193.25
  Q 453.25 189.41 450.97 187.77
  Q 449.55 186.75 445.82 186.75
  Q 437.86 186.75 429.90 186.75
  Q 422.86 186.75 418.76 188.05
  Q 405.46 192.26 401.42 205.30
  Q 400.00 209.91 400.00 219.34
  Q 400.00 257.42 400.00 295.50
  Q 400.00 309.21 390.14 313.17
  Q 386.21 314.75 373.68 314.75
  Q 257.28 314.75 140.88 314.75
  Q 126.17 314.75 122.72 313.63
  Q 111.98 310.12 112.00 295.75
  Q 112.07 246.70 111.80 215.08
  Q 111.74 207.88 110.33 204.11
  Q 107.97 197.76 102.59 193.15
  Z
  M 484.81 192.81
  Q 484.70 288.40 484.75 383.99
  Q 484.75 384.27 484.80 384.50
  Q 485.02 385.56 485.02 383.50
  Q 485.14 288.15 484.81 192.80
  Q 484.81 192.31 484.81 192.81
  Z
  M 368.00 229.81
  A 0.56 0.56 0.0 0 0 367.44 229.25
  L 144.56 229.25
  A 0.56 0.56 0.0 0 0 144.00 229.81
  L 144.00 282.19
  A 0.56 0.56 0.0 0 0 144.56 282.75
  L 367.44 282.75
  A 0.56 0.56 0.0 0 0 368.00 282.19
  L 368.00 229.81
  Z"
/>
<path fill="#ffffff" d="
  M 484.81 192.80
  Q 485.14 288.15 485.02 383.50
  Q 485.02 385.56 484.80 384.50
  Q 484.75 384.27 484.75 383.99
  Q 484.70 288.40 484.81 192.81
  Q 484.81 192.31 484.81 192.80
  Z"
/>
</svg>
